<svg width="46" height="46" viewBox="0 0 46 46" fill="none" xmlns="http://www.w3.org/2000/svg">
<path d="M27.9388 17.6813V24.9817C27.9388 25.1665 27.7951 25.3103 27.6103 25.3103H26.4397C26.3268 25.3103 26.2241 25.2487 26.1728 25.1768L22.8254 20.6589V24.992C22.8254 25.1768 22.6817 25.3205 22.4969 25.3205H21.3263C21.1415 25.3205 20.9978 25.1768 20.9978 24.992V17.6915C20.9978 17.5067 21.1415 17.363 21.3263 17.363H22.4866C22.5893 17.363 22.7022 17.4143 22.7536 17.5067L26.1009 22.0246V17.6915C26.1009 17.5067 26.2446 17.363 26.4295 17.363H27.6C27.7848 17.3527 27.9388 17.5067 27.9388 17.6813ZM19.5192 17.3527H18.3487C18.1638 17.3527 18.0201 17.4964 18.0201 17.6813V24.9817C18.0201 25.1665 18.1638 25.3103 18.3487 25.3103H19.5192C19.704 25.3103 19.8478 25.1665 19.8478 24.9817V17.6813C19.8478 17.5067 19.704 17.3527 19.5192 17.3527ZM16.6955 23.4723H13.5022V17.6813C13.5022 17.4964 13.3585 17.3527 13.1737 17.3527H12.0031C11.8183 17.3527 11.6746 17.4964 11.6746 17.6813V24.9817C11.6746 25.0741 11.7054 25.146 11.767 25.2076C11.8286 25.2589 11.9005 25.3 11.9929 25.3H16.6853C16.8701 25.3 17.0138 25.1562 17.0138 24.9714V23.8009C17.0138 23.6263 16.8701 23.4723 16.6955 23.4723ZM34.0995 17.3527H29.4071C29.2326 17.3527 29.0786 17.4964 29.0786 17.6813V24.9817C29.0786 25.1562 29.2223 25.3103 29.4071 25.3103H34.0995C34.2844 25.3103 34.4281 25.1665 34.4281 24.9817V23.8112C34.4281 23.6263 34.2844 23.4826 34.0995 23.4826H30.9062V22.2504H34.0995C34.2844 22.2504 34.4281 22.1067 34.4281 21.9219V20.7411C34.4281 20.5563 34.2844 20.4125 34.0995 20.4125H30.9062V19.1804H34.0995C34.2844 19.1804 34.4281 19.0366 34.4281 18.8518V17.6813C34.4178 17.5067 34.2741 17.3527 34.0995 17.3527ZM46 6.5V40C45.9897 44.6 43.6103 46.0102 39 46L6.5 46C1.9 45.9897 -0.0102467 44.1 2.11637e-05 39.5V6.5C0.010289 1.9 1.9 -0.0102678 6.5 0L39.675 2.11637e-05C44.275 0.010289 46.0102 1.88974 46 6.5ZM39.675 20.9772C39.675 13.4817 32.1589 7.3826 22.9281 7.3826C13.6973 7.3826 6.18127 13.4817 6.18127 20.9772C6.18127 27.6924 12.1366 33.3192 20.1866 34.387C22.1478 34.808 21.9219 35.5268 21.4804 38.1656C21.4085 38.5866 21.1415 39.8187 22.9281 39.0692C24.7147 38.3196 32.5696 33.3911 36.0915 29.3455C38.5147 26.6759 39.675 23.9754 39.675 20.9772Z" fill="white"/>
</svg>
