<svg width="46" height="46" viewBox="0 0 46 46" fill="none" xmlns="http://www.w3.org/2000/svg">
<path d="M23 9.32321C15.5353 9.32321 9.46696 15.3915 9.4567 22.8563C9.4567 25.4129 10.1754 27.908 11.5308 30.054L11.8491 30.5674L10.4835 35.5576L15.6071 34.2125L16.1 34.5103C18.1741 35.7424 20.5563 36.3996 22.9897 36.3996H23C30.4545 36.3996 36.6871 30.3313 36.6871 22.8665C36.6871 19.2522 35.1263 15.8536 32.5696 13.2969C30.0027 10.7299 26.6143 9.32321 23 9.32321ZM30.9576 28.6679C30.6188 29.6228 28.9964 30.4853 28.2161 30.5982C26.9223 30.7933 25.9161 30.6906 23.3388 29.5817C19.2625 27.8156 16.5929 23.7085 16.3875 23.4415C16.1821 23.1746 14.7241 21.2339 14.7241 19.2317C14.7241 17.2295 15.7714 16.2437 16.1513 15.833C16.521 15.4223 16.9625 15.3196 17.2397 15.3196C17.5067 15.3196 17.7839 15.3196 18.0201 15.3299C18.2665 15.3402 18.6054 15.2375 18.9339 16.0281C19.2728 16.8393 20.0839 18.8415 20.1866 19.0469C20.2893 19.2522 20.3612 19.4884 20.2174 19.7554C19.4371 21.3161 18.6054 21.2545 19.0263 21.9732C20.5973 24.6737 22.1683 25.608 24.5607 26.8094C24.9714 27.0147 25.2076 26.9839 25.4438 26.7067C25.6799 26.4397 26.4603 25.5156 26.7272 25.1152C26.9942 24.7045 27.2714 24.7763 27.6411 24.9098C28.0107 25.0433 30.0129 26.029 30.4237 26.2344C30.8344 26.4397 31.1013 26.5424 31.204 26.7067C31.2964 26.9018 31.2964 27.7232 30.9576 28.6679ZM41.0714 0H4.92857C2.20759 0 0 2.20759 0 4.92857V41.0714C0 43.7924 2.20759 46 4.92857 46H41.0714C43.7924 46 46 43.7924 46 41.0714V4.92857C46 2.20759 43.7924 0 41.0714 0ZM22.9897 39.1411C20.2585 39.1411 17.5786 38.4531 15.2067 37.1594L6.57143 39.4286L8.8817 30.9884C7.45446 28.5241 6.70491 25.721 6.70491 22.846C6.71518 13.8719 14.0156 6.57143 22.9897 6.57143C27.3433 6.57143 31.4299 8.26563 34.5103 11.346C37.5804 14.4263 39.4286 18.5129 39.4286 22.8665C39.4286 31.8406 31.9638 39.1411 22.9897 39.1411Z" fill="white"/>
</svg>
