<svg width="84" height="79" viewBox="0 0 84 79" fill="none" xmlns="http://www.w3.org/2000/svg">
<path d="M28.75 27.0833L13.3333 42.2916L4.58333 33.75L0 38.3333L13.3333 51.6666L33.3333 31.6666L28.75 27.0833Z" fill="#EB5757"/>
<path d="M28.75 0L13.3333 15.2083L4.58333 6.66667L0 11.25L13.3333 24.5833L33.3333 4.58333L28.75 0Z" fill="#EB5757"/>
<path d="M28.75 54.1667L13.3333 69.375L4.58333 60.8334L0 65.4167L13.3333 78.75L33.3333 58.75L28.75 54.1667Z" fill="#EB5757"/>
<path d="M41.6666 35.2082H83.3333V43.5415H41.6666V35.2082Z" fill="#FAF0F0"/>
<path d="M41.6666 8.12488H83.3333V16.4582H41.6666V8.12488Z" fill="#FAF0F0"/>
<path d="M41.6666 62.2916H83.3333V70.6249H41.6666V62.2916Z" fill="#FAF0F0"/>
</svg>
