<svg width="7" height="7" viewBox="0 0 7 7" fill="none" xmlns="http://www.w3.org/2000/svg">
<path d="M3.5 0C1.567 0 0 1.567 0 3.5C0 5.433 1.567 7 3.5 7C5.433 7 7 5.433 7 3.5C7 1.567 5.433 0 3.5 0ZM5.1531 4.89369C5.13063 4.92004 4.59175 5.53909 3.60278 5.53909C2.40753 5.53909 1.5637 4.64631 1.5637 3.48472C1.5637 2.33729 2.43875 1.46091 3.59259 1.46091C4.53755 1.46091 5.03162 1.98753 5.05218 2.00996C5.07752 2.03758 5.09298 2.07282 5.09614 2.11016C5.0993 2.14751 5.08999 2.18485 5.06965 2.21633L4.7538 2.70542C4.69666 2.79386 4.57353 2.80916 4.49647 2.7378C4.49318 2.73478 4.12207 2.40079 3.62316 2.40079C2.97233 2.40079 2.57999 2.87463 2.57999 3.47453C2.57999 4.03343 2.94007 4.59921 3.62826 4.59921C4.17439 4.59921 4.54955 4.19928 4.55327 4.19523C4.6257 4.11669 4.75169 4.1242 4.81448 4.21009L5.16091 4.68389C5.18339 4.71464 5.19485 4.75208 5.19343 4.79015C5.19202 4.82821 5.17781 4.86469 5.1531 4.89369Z" fill="#6C676C"/>
</svg>
