<svg width="100" height="100" viewBox="0 0 100 100" fill="none" xmlns="http://www.w3.org/2000/svg">
<path d="M64.2904 29.7083C64.2904 21.3528 57.8918 14.5555 50.0251 14.5555C42.1584 14.5555 35.7598 21.3528 35.7598 29.7125C35.7626 30.1292 35.9598 40.125 47.3848 57.7389C48.1209 58.8903 48.9723 59.475 49.9126 59.475C51.5626 59.475 52.689 57.6555 52.7987 57.4708C64.2959 39.8472 64.2959 30.1055 64.2904 29.7069V29.7083ZM50.0265 35.8111C46.5223 35.8111 43.6723 32.9611 43.6723 29.4583C43.6723 25.9555 46.5223 23.1055 50.0251 23.1055C53.5279 23.1055 56.3779 25.9555 56.3779 29.4583C56.3779 32.9611 53.5279 35.8111 50.0251 35.8111H50.0265Z" fill="#EB5757"/>
<path d="M64.2902 29.7083C64.2902 21.3528 57.8916 14.5555 50.025 14.5555C48.8537 14.561 47.6883 14.7197 46.5583 15.0278C54.0888 15.4305 60.1027 22.0444 60.1027 30.1403C60.1083 30.5389 60.1083 40.2792 48.6097 57.9042C48.568 57.9736 48.3847 58.2722 48.0833 58.618C48.6444 59.1819 49.2569 59.4736 49.9125 59.4736C51.5625 59.4736 52.6888 57.6556 52.7972 57.4708C64.2972 39.8472 64.2972 30.1055 64.2902 29.7069V29.7083Z" fill="#EA5A47"/>
<path d="M15.7501 84.2416V81.068C15.7501 76.5819 18.4029 73.4985 22.889 73.4985C25.546 75.7416 28.689 76.8624 31.3751 76.8624C34.0612 76.8624 37.2057 75.7416 39.8612 73.4985C44.3473 73.4985 47.0001 76.5819 47.0001 81.068V84.2416H15.7501Z" fill="#EB5757"/>
<path d="M52.9751 84.2416V81.068C52.9751 76.5819 55.6279 73.4985 60.114 73.4985C62.7709 75.7416 65.914 76.8624 68.6001 76.8624C71.2848 76.8624 74.4293 75.7416 77.0862 73.4985C81.5723 73.4985 84.2251 76.5819 84.2251 81.068V84.2416H52.9751Z" fill="#EB5757"/>
<path d="M31.3751 69.9958C35.2104 69.9958 38.3196 66.8867 38.3196 63.0514C38.3196 59.2161 35.2104 56.1069 31.3751 56.1069C27.5398 56.1069 24.4307 59.2161 24.4307 63.0514C24.4307 66.8867 27.5398 69.9958 31.3751 69.9958Z" fill="#EB5757"/>
<path d="M68.6001 69.9958C72.4354 69.9958 75.5445 66.8867 75.5445 63.0514C75.5445 59.2161 72.4354 56.1069 68.6001 56.1069C64.7648 56.1069 61.6556 59.2161 61.6556 63.0514C61.6556 66.8867 64.7648 69.9958 68.6001 69.9958Z" fill="#EB5757"/>
<path d="M15.7501 83.7833V81.068C15.7501 76.5819 18.4029 73.4985 22.889 73.4985C25.546 75.7416 28.689 76.8624 31.3751 76.8624C34.0612 76.8624 37.2057 75.7416 39.8612 73.4985C44.3473 73.4985 47.0001 76.5819 47.0001 81.068V83.7833" stroke="#EB5757" stroke-width="0.5" stroke-linecap="round" stroke-linejoin="round"/>
<path d="M52.9752 83.7833V81.068C52.9752 76.5819 55.6279 73.4985 60.114 73.4985C62.771 75.7416 65.914 76.8624 68.6002 76.8624C71.2849 76.8624 74.4293 75.7416 77.0863 73.4985C81.5724 73.4985 84.2251 76.5819 84.2251 81.068V83.7833" stroke="#EB5757" stroke-width="0.5" stroke-linecap="round" stroke-linejoin="round"/>
<path d="M49.9126 59.4736C48.9723 59.4736 48.1209 58.8903 47.3848 57.7375C35.9598 40.125 35.7626 30.1292 35.7598 29.7125C35.7598 21.3514 42.1584 14.5555 50.0251 14.5555C57.8918 14.5555 64.2904 21.3528 64.2904 29.7083C64.2959 30.1055 64.2959 39.8472 52.7987 57.4708C52.6876 57.6556 51.5626 59.4736 49.9126 59.4736Z" stroke="#EB5757" stroke-width="0.5" stroke-miterlimit="10"/>
<path d="M50.0251 35.8109C46.5224 35.8109 43.6724 32.9609 43.6724 29.4581C43.6724 25.9553 46.5224 23.1053 50.0251 23.1053C53.5279 23.1053 56.3779 25.9553 56.3779 29.4581C56.3779 32.9609 53.5279 35.8109 50.0251 35.8109Z" stroke="#EB5757" stroke-width="0.5" stroke-miterlimit="10"/>
<path d="M31.3751 69.9958C35.2104 69.9958 38.3195 66.8867 38.3195 63.0514C38.3195 59.2161 35.2104 56.1069 31.3751 56.1069C27.5398 56.1069 24.4307 59.2161 24.4307 63.0514C24.4307 66.8867 27.5398 69.9958 31.3751 69.9958Z" stroke="#EB5757" stroke-width="0.5" stroke-linecap="round" stroke-linejoin="round"/>
<path d="M68.6001 69.9958C72.4355 69.9958 75.5446 66.8867 75.5446 63.0514C75.5446 59.2161 72.4355 56.1069 68.6001 56.1069C64.7648 56.1069 61.6557 59.2161 61.6557 63.0514C61.6557 66.8867 64.7648 69.9958 68.6001 69.9958Z" stroke="#EB5757" stroke-width="0.5" stroke-linecap="round" stroke-linejoin="round"/>
</svg>
