<svg width="300" height="200" viewBox="0 0 300 200" fill="none" xmlns="http://www.w3.org/2000/svg">
<g clip-path="url(#clip0)">
<path opacity="0.1" d="M105.235 196.126C134.137 196.126 157.566 192.345 157.566 187.68C157.566 183.015 134.137 179.234 105.235 179.234C76.3336 179.234 52.9043 183.015 52.9043 187.68C52.9043 192.345 76.3336 196.126 105.235 196.126Z" fill="#E73361"/>
<path opacity="0.1" d="M174.302 28.205C155.07 27.6379 136.753 22.3463 119.261 16.5584C101.77 10.7706 84.4456 4.35988 65.6737 1.29379C53.5999 -0.67854 39.7906 -0.959577 30.0644 4.54977C20.7008 9.8667 17.6756 19.0194 16.0501 27.5189C14.8258 33.9144 14.1067 40.6466 17.4587 46.6345C19.7885 50.7918 23.9191 54.2858 26.7778 58.2685C36.7239 72.1229 29.693 89.2079 18.9178 102.736C13.866 109.081 7.99696 115.142 4.09518 121.889C0.193402 128.637 -1.61039 136.394 1.80404 143.296C5.18577 150.132 13.2479 155.257 21.9815 158.865C39.7193 166.194 60.613 168.291 81.0015 169.481C126.12 172.109 171.476 170.972 216.714 169.83C233.456 169.41 250.27 168.982 266.739 166.777C275.885 165.551 285.326 163.607 291.968 158.913C300.395 152.955 302.485 142.868 296.835 135.399C287.362 122.867 261.176 119.755 254.546 106.308C250.903 98.905 254.644 90.6612 259.942 83.7973C271.306 69.0694 290.351 56.1493 291.353 39.3174C292.042 27.7569 282.886 16.1787 268.73 10.7073C253.892 4.97259 233.313 5.69418 222.372 15.1862C211.094 24.949 191.285 28.7089 174.302 28.205Z" fill="#E73361"/>
<path d="M159.019 91.5879L149.916 86.3596L154.508 80.5363L130.467 78.9032L121.828 84.5949L111.014 79.4298L101.996 80.354L101.889 78.3285C101.777 76.2169 101.528 74.1122 101.143 72.0241C101.181 71.3912 101.208 70.6645 101.205 69.8746C101.205 66.5452 100.676 62.1321 98.3523 59.1901L98.8872 55.0935L94.5486 50.726C95.2453 49.5435 96.0398 48.4047 96.9259 47.3181C97.0745 47.1358 97.2231 46.9586 97.3835 46.7864C103.015 46.4396 107.457 42.4949 107.457 37.6717C107.457 37.4489 107.457 37.2261 107.428 37.0058C107.428 36.9172 107.407 36.8261 107.395 36.7374C107.945 36.9906 108.5 37.2438 109.056 37.497C109.16 37.6236 109.279 37.7502 109.41 37.8996L109.437 37.9274L109.603 38.1021L109.656 38.1553C109.716 38.2161 109.778 38.2743 109.841 38.3351L109.882 38.3756C110.04 38.525 110.206 38.6769 110.384 38.8262C110.406 38.841 110.426 38.857 110.444 38.8743L110.667 39.0516L110.729 39.0997C110.919 39.244 111.121 39.3833 111.324 39.5149L111.389 39.5554L111.644 39.7048L111.728 39.7504C111.826 39.801 111.927 39.8542 112.025 39.9023L112.061 39.92C112.176 39.9732 112.295 40.0238 112.414 40.0719L112.474 40.0922C112.575 40.1293 112.674 40.1648 112.771 40.1985L112.863 40.2264C112.967 40.2567 113.068 40.2846 113.175 40.3099L113.24 40.3251C113.371 40.353 113.502 40.3757 113.635 40.3935H113.65C113.776 40.4108 113.903 40.4218 114.031 40.4264H114.117C114.231 40.4315 114.345 40.4315 114.459 40.4264H114.533C114.675 40.4194 114.817 40.405 114.958 40.3833C115.623 40.3089 116.261 40.1137 116.83 39.8111C116.975 39.7286 117.103 39.6269 117.21 39.5098C117.805 38.8465 117.151 38.1198 117.151 38.1198C116.919 37.6489 115.416 37.3172 115.416 37.3172C115.416 37.3172 110.661 35.626 110.661 34.279C110.661 32.932 109.472 25.9441 97.2022 24.3465C97.2022 24.3465 89.2204 23.9642 86.9768 27.605L86.9293 28.0303C86.2696 28.3823 85.7228 29.0887 85.072 29.2963C84.7908 29.3477 84.5197 29.433 84.2667 29.5495V29.5014C84.1915 29.5573 84.13 29.6253 84.0854 29.7014C83.9456 29.9384 83.8618 30.1964 83.8387 30.4609C83.7718 30.7841 83.6401 31.0949 83.4494 31.38C83.3963 31.461 83.3367 31.5388 83.2712 31.6129V31.6129L83.2206 31.6813C83.5656 31.7042 83.9121 31.6565 84.231 31.5421C84.1807 31.8887 84.0809 32.2288 83.9338 32.5548C84.1227 32.56 84.3094 32.5189 84.4717 32.4363C84.6339 32.3537 84.7649 32.2331 84.8491 32.0889V32.0687L84.8877 32.0231C84.9625 31.9059 85.0241 31.783 85.072 31.656L85.0393 31.6864C85.0987 31.5218 85.1522 31.3547 85.2176 31.1927C85.2475 31.1014 85.2969 31.0156 85.3632 30.9395C85.4425 30.8713 85.5395 30.82 85.6463 30.7897C85.7532 30.7594 85.8669 30.7508 85.9783 30.7648L85.8565 32.9599H85.91C85.8384 33.1196 85.7509 33.2737 85.6485 33.4207C85.2265 34.003 84.4598 34.4005 84.1775 35.0386C84.0558 35.3463 84.0093 35.672 84.0408 35.9956C84.0408 36.1855 84.0676 36.3779 84.0854 36.5678V36.5526C84.127 37.059 84.1389 37.5401 83.8179 37.9477C83.598 38.2262 83.2444 38.4363 83.1226 38.7528C83.0889 38.841 83.0738 38.9336 83.078 39.0263C83.1018 39.3037 83.1698 39.5771 83.2801 39.839C83.2814 39.834 83.2814 39.8288 83.2801 39.8238C83.3542 40.0164 83.3715 40.2216 83.3306 40.4213C83.1969 40.9277 82.4748 41.3505 82.5104 41.8341C82.5084 41.8977 82.5194 41.9611 82.5431 42.0215C82.682 42.2577 82.9226 42.4391 83.2147 42.5278C83.6729 42.7498 84.199 42.8487 84.7243 42.8114C84.9212 42.7811 85.1115 42.7256 85.2889 42.6468C85.0809 43.0545 84.8669 43.457 84.65 43.8393C84.6173 43.9001 84.5816 43.9609 84.546 44.0216C84.546 44.0216 82.7095 42.976 81.6665 45.1078C81.362 45.5508 81.1442 46.0331 81.0216 46.5358C80.9694 46.7369 80.8958 46.9335 80.8017 47.1232C80.3387 47.7911 79.6456 48.3215 78.8166 48.6423C76.6889 49.4728 68.0949 58.6052 67.9434 60.97C67.869 61.8931 67.6858 62.8075 67.3966 63.6993C66.7201 65.7996 66.5463 67.9944 66.8855 70.1531C66.9917 70.8507 67.1676 71.5394 67.4114 72.2115C68.3237 74.5737 68.9329 78.9817 68.9329 78.9817L69.9195 86.633C69.8829 87.689 69.9365 88.7459 70.08 89.7953C69.0726 90.7752 65.0282 94.8591 66.5734 95.9705C67.7621 96.8466 69.8423 96.7023 71.0101 96.5225C70.0265 98.5961 68.4783 102.201 68.2732 104.678C67.9761 108.341 68.7814 113.195 70.0562 115.058C71.3311 116.922 75.5805 121.702 75.5805 121.702C75.5805 121.702 75.3814 128.259 76.8999 130.642C78.4184 133.024 79.0306 137.967 79.0306 137.967C79.0306 137.967 80.4481 142.139 79.7379 143.674C79.0276 145.208 81.0543 146.484 78.9266 147.504C76.7989 148.525 74.0769 171.522 74.0769 171.522C74.0769 171.522 72.9803 186.594 74.0769 187.361C74.1355 187.397 74.1982 187.429 74.2641 187.455V192.518C74.2641 192.518 73.5033 193.582 76.5968 193.797C78.7156 193.941 84.7213 194.268 88.2843 194.458L91.045 194.605C91.045 194.605 97.5826 195.714 100.471 194.605C103.36 193.496 108.48 193.521 107.719 190.592C107.618 190.193 107.483 189.801 107.315 189.419C106.48 187.601 105.062 187.394 102.45 186.887C102.299 186.86 102.153 186.834 102.019 186.814C99.2676 186.406 98.3642 187.498 96.8219 186.077C95.4817 184.849 91.2144 183.474 89.7612 183.039C89.7969 182.948 89.8415 182.859 89.8771 182.766C89.4656 182.706 89.0829 182.547 88.7747 182.307L92.7121 182.52L95.0567 182.644C95.0567 182.644 100.614 183.588 103.08 182.644C105.547 181.7 109.885 181.725 109.237 179.236C109.152 178.897 109.038 178.564 108.896 178.239C108.185 176.694 106.979 176.525 104.759 176.097C104.631 176.074 104.513 176.051 104.394 176.033C102.055 175.686 101.288 176.613 99.9778 175.408C98.8545 174.38 95.3093 173.228 94.0345 172.836C94.0345 172.274 93.143 171.473 92.5813 170.671C91.9216 169.734 93.14 166.455 93.14 166.455L93.8354 152.852C94.1002 152.751 94.3803 152.683 94.6674 152.649C94.6674 152.649 97.8114 150.092 97.1012 147.368C96.9565 146.544 96.881 145.712 96.8754 144.879C97.9095 144.061 99.3329 142.853 99.7371 142.109C100.397 140.896 99.7371 135.02 99.7371 135.02V112.549L104.997 113.002L109.769 113.42L111.223 113.547L115.995 113.957L126.963 114.901L136.847 113.306L141.123 112.618L149.916 111.2V92.869L159.019 91.5879ZM86.6261 30.8458L86.014 30.7901C86.2161 30.7977 86.43 30.8306 86.6261 30.8458Z" fill="url(#paint0_linear)"/>
<path d="M137.686 103.49C134.714 107.113 124.031 105.194 124.031 105.194L115.752 98.5936L114.638 97.6999L116.507 94.3173C116.507 94.3173 117.101 94.4565 118.12 94.7046C123.472 96.0288 140.194 100.444 137.686 103.49Z" fill="#EFB7B9"/>
<path opacity="0.1" d="M118.115 94.7046C117.749 95.7883 116.748 97.4112 115.752 98.5936L114.638 97.6998L116.507 94.3173C116.507 94.3173 117.107 94.4565 118.115 94.7046Z" fill="black"/>
<path d="M89.7203 56.5595C89.7203 56.5595 82.0891 59.4433 82.4635 66.5249C82.733 71.0873 83.3164 75.6322 84.2109 80.1363C84.2109 80.1363 82.6507 90.7929 89.1468 93.54C95.6428 96.2871 101.654 98.5455 101.654 98.5455C101.654 98.5455 111.817 99.4772 113.08 99.8621C114.343 100.247 118.29 94.3628 117.562 93.4463C116.834 92.5298 107.506 90.6081 106.317 89.0788C105.128 87.5496 102.38 86.6052 102.38 86.6052C102.38 86.6052 99.5416 85.1418 99.3484 83.8201C99.1553 82.4985 99.9041 81.5136 100.094 80.9338C100.285 80.354 100.766 74.7561 100.766 74.7561C100.766 74.7561 103.969 54.8302 89.7203 56.5595Z" fill="#DCE6F2"/>
<path opacity="0.1" d="M94.7573 79.8451C94.7573 79.8451 84.2882 81.3389 85.3015 84.4607C85.3015 84.4607 89.1023 81.0908 94.7573 79.8451Z" fill="black"/>
<path opacity="0.1" d="M94.8374 81.1084C94.8374 81.1084 89.0813 85.1113 90.2076 85.3164C91.3339 85.5214 94.8374 81.1084 94.8374 81.1084Z" fill="black"/>
<path opacity="0.1" d="M97.6036 82.5035C97.6036 82.5035 96.0613 85.1949 97.0092 85.0126C97.9572 84.8303 97.6036 82.5035 97.6036 82.5035Z" fill="black"/>
<path opacity="0.1" d="M118.501 94.9906L117.865 94.8362C118.046 94.3298 118.097 93.9197 117.948 93.7298C117.22 92.8132 107.898 90.8941 106.712 89.3623C105.527 87.8305 102.775 86.8887 102.775 86.8887C102.775 86.8887 99.9371 85.4252 99.7439 84.1036C99.5508 82.782 100.3 81.7971 100.49 81.2173C100.68 80.6375 101.161 75.037 101.161 75.037C101.161 75.037 104.356 55.1137 90.1069 56.843C90.1069 56.843 82.4757 59.7293 82.8471 66.8109C83.1166 71.3734 83.7011 75.9183 84.5974 80.4223C84.5974 80.4223 83.0373 91.0789 89.5333 93.826C96.0294 96.5731 102.041 98.8315 102.041 98.8315C102.041 98.8315 112.201 99.7607 113.467 100.148C113.945 100.295 114.81 99.5379 115.657 98.4973L116.139 98.8796L124.418 105.478C124.418 105.478 135.101 107.399 138.072 103.776C140.583 100.728 123.865 96.3123 118.501 94.9906Z" fill="black"/>
<path d="M85.328 29.9798C85.0371 30.0283 84.7585 30.12 84.5049 30.2507C84.2077 30.4609 84.2077 30.8204 84.1334 31.1344C84.0461 31.5711 83.8428 31.9851 83.5391 32.3446C83.8772 32.3657 84.2164 32.318 84.5286 32.2054C84.4778 32.5519 84.378 32.8919 84.2315 33.2181C84.4166 33.2221 84.5992 33.1805 84.7573 33.0984C84.9155 33.0162 85.0424 32.8969 85.123 32.7548C85.2802 32.4695 85.4046 32.1718 85.4944 31.8661C85.5223 31.7746 85.5708 31.6887 85.6371 31.6129C85.9104 31.3369 86.4186 31.461 86.8406 31.4964C87.1917 31.5217 87.5445 31.4664 87.8621 31.3364C88.1798 31.2064 88.4509 31.0064 88.6473 30.7571C89.0961 30.1773 89.1228 28.6937 88.053 28.5367C86.9357 28.3797 86.2403 29.6912 85.328 29.9798Z" fill="#965D7B"/>
<g opacity="0.1">
<path opacity="0.1" d="M84.4754 30.5622C84.5021 30.4381 84.52 30.309 84.5526 30.1849C84.2703 30.3951 84.2555 30.7521 84.1812 31.0686C84.1438 31.2512 84.085 31.4301 84.0059 31.6028C84.2398 31.285 84.3993 30.9316 84.4754 30.5622V30.5622Z" fill="black"/>
<path opacity="0.1" d="M84.5706 32.6535C84.7186 32.3277 84.8184 31.9875 84.8677 31.6407C84.5702 31.7475 84.2481 31.7951 83.9257 31.78C83.8319 31.9581 83.7174 32.1277 83.584 32.2864C83.9209 32.3086 84.2592 32.2617 84.5706 32.1497C84.5212 32.4964 84.4214 32.8366 84.2734 33.1624C84.4585 33.1661 84.6409 33.1244 84.799 33.0422C84.957 32.9601 85.0841 32.841 85.1649 32.6991C85.2389 32.584 85.2987 32.4626 85.3432 32.337C85.256 32.4408 85.1395 32.5243 85.0045 32.5796C84.8694 32.6349 84.7202 32.6603 84.5706 32.6535V32.6535Z" fill="black"/>
<path opacity="0.1" d="M87.1802 30.9318C86.7582 30.8964 86.2471 30.7723 85.9737 31.0483C85.9086 31.1247 85.8603 31.2104 85.8311 31.3015C85.8043 31.3673 85.7806 31.4357 85.7598 31.504C86.0421 31.3141 86.4997 31.4154 86.8831 31.4483C87.2341 31.4728 87.5865 31.4171 87.904 31.2872C88.2215 31.1573 88.4927 30.9577 88.6898 30.709C88.7799 30.5861 88.8471 30.452 88.8889 30.3115C88.6854 30.5261 88.4232 30.6949 88.1253 30.8031C87.8274 30.9112 87.5029 30.9554 87.1802 30.9318Z" fill="black"/>
</g>
<path d="M94.2727 50.8906L98.8044 55.5341L98.2131 60.2206L92.7363 52.9161L94.2727 50.8906Z" fill="#DCE6F2"/>
<path opacity="0.1" d="M98.8015 55.5341L98.2458 59.942L98.2101 60.2206L93.2682 53.6276L92.7363 52.9161L92.8909 52.711L94.2697 50.8906L94.5758 51.2046L98.8015 55.5341Z" fill="black"/>
<path d="M101.155 44.604C99.6215 44.9787 98.1565 46.2649 96.8817 47.8271C96.02 48.9049 95.2494 50.0336 94.5756 51.2046C94.1566 51.9186 93.7882 52.6047 93.4821 53.2023L93.2681 53.6276C92.7511 54.6682 92.4628 55.3645 92.4628 55.3645C92.4628 55.3645 80.7248 47.8448 82.5821 47.3384C83.2061 47.1688 84.0263 46.0295 84.8375 44.5939L84.9386 44.4116C85.4527 43.49 85.9579 42.4621 86.4066 41.4949C87.3248 39.5074 88.0053 37.7806 88.0053 37.7806C88.0053 37.7806 105.835 43.4647 101.155 44.604Z" fill="#EFB7B9"/>
<path d="M108.177 37.3578C108.177 37.3578 110.887 41.5354 114.527 40.9657C118.167 40.396 116.67 38.7225 116.67 38.7225L108.177 37.3578Z" fill="#444053"/>
<path d="M102.926 181.965C100.525 182.9 95.096 181.965 95.096 181.965L92.8079 181.844C89.8362 181.682 84.8617 181.408 83.1025 181.287C80.535 181.107 81.1649 180.211 81.1649 180.211V174.795L93.6221 172.106C93.6221 172.106 98.5461 173.542 99.8953 174.795C101.176 175.99 101.925 175.071 104.21 175.415C104.323 175.433 104.442 175.453 104.567 175.479C106.736 175.902 107.913 176.069 108.608 177.6C108.748 177.922 108.86 178.252 108.944 178.588C109.586 181.054 105.324 181.036 102.926 181.965Z" fill="#A36468"/>
<path opacity="0.1" d="M108.608 177.601C108.162 177.838 107.693 178.043 107.206 178.213C105.571 178.849 104.017 179.624 102.365 180.224C100.712 180.824 98.9325 181.252 97.1435 181.138C96.2075 181.079 95.2506 180.884 94.3561 181.112C93.8029 181.294 93.2819 181.54 92.8079 181.844C89.8362 181.682 84.8617 181.408 83.1025 181.287C80.535 181.107 81.1649 180.211 81.1649 180.211V179.578C81.2571 179.578 81.3611 179.555 81.48 179.548C82.0949 179.539 82.7073 179.617 83.2927 179.778C84.5823 180.077 85.8661 180.37 87.1558 180.664C87.2619 180.323 87.4483 180.004 87.7038 179.726C87.9592 179.449 88.2783 179.218 88.6416 179.049C89.3777 178.716 90.2039 178.554 91.0368 178.58C93.0367 178.603 94.9296 179.411 96.9266 179.492C97.4849 179.536 98.047 179.455 98.558 179.259C98.8314 179.142 99.0721 178.973 99.3396 178.844C99.7676 178.667 100.22 178.537 100.686 178.456C101.995 178.179 103.281 177.825 104.534 177.398C104.891 177.279 105.307 177.064 105.259 176.74C105.197 176.309 104.403 176.259 104.195 175.864C104.159 175.792 104.142 175.715 104.146 175.637C104.15 175.56 104.175 175.484 104.219 175.416C104.332 175.433 104.451 175.454 104.576 175.479C106.736 175.902 107.913 176.069 108.608 177.601Z" fill="black"/>
<path d="M100.388 193.815C97.5654 194.913 91.1764 193.815 91.1764 193.815L88.487 193.68C85.0043 193.491 79.1382 193.174 77.067 193.025C74.0448 192.812 74.7877 191.759 74.7877 191.759V185.376L89.4469 182.211C89.4469 182.211 95.2416 183.9 96.8285 185.376C98.3351 186.781 99.2058 185.7 101.907 186.105C102.041 186.125 102.18 186.151 102.326 186.178C104.879 186.685 106.263 186.875 107.081 188.677C107.246 189.056 107.378 189.444 107.476 189.84C108.213 192.741 103.212 192.718 100.388 193.815Z" fill="#A36468"/>
<path opacity="0.1" d="M107.075 188.678C106.55 188.957 105.998 189.198 105.425 189.399C103.503 190.146 101.672 191.057 99.7288 191.764C97.7853 192.47 95.6903 192.972 93.5834 192.84C92.4839 192.772 91.3577 192.536 90.3146 192.81C89.6611 193.026 89.046 193.319 88.487 193.68C85.0043 193.491 79.1382 193.174 77.067 193.025C74.0448 192.812 74.7877 191.759 74.7877 191.759V191.014C74.9108 190.997 75.0348 190.985 75.1592 190.979C75.8831 190.968 76.6042 191.059 77.2928 191.25L81.8365 192.293C81.9631 191.891 82.1846 191.515 82.4876 191.188C82.7906 190.861 83.1687 190.59 83.5987 190.392C84.4648 189.998 85.438 189.808 86.4188 189.84C88.7723 189.867 90.9981 190.817 93.3487 190.913C94.0033 190.964 94.6623 190.871 95.2624 190.642C95.5863 190.503 95.8567 190.303 96.1836 190.154C96.6862 189.944 97.2186 189.791 97.7675 189.698C99.3 189.368 100.805 188.952 102.273 188.452C102.692 188.31 103.182 188.057 103.125 187.677C103.051 187.171 102.118 187.11 101.871 186.644C101.83 186.56 101.811 186.469 101.816 186.378C101.821 186.287 101.85 186.198 101.901 186.118C102.035 186.138 102.174 186.163 102.32 186.191C104.873 186.677 106.258 186.875 107.075 188.678Z" fill="black"/>
<path d="M93.9998 150.016L93.2064 165.924C93.2064 165.924 92.0177 169.172 92.6626 170.101C93.3074 171.03 94.395 171.957 93.9998 172.506C93.6046 173.056 88.8499 178.996 87.3136 176.717C85.7773 174.438 84.2617 164.564 84.2617 164.564L85.6792 152.368L93.9998 150.016Z" fill="#444053"/>
<path d="M97.4409 110.382L99.6459 112.894V134.739C99.6459 134.739 100.291 140.562 99.6459 141.764C99.001 142.967 95.7322 145.372 95.7322 145.372L92.9834 133.346L93.5777 120.623L97.4409 110.382Z" fill="#444053"/>
<path opacity="0.1" d="M93.9998 150.016L93.2064 165.924C93.2064 165.924 92.0177 169.172 92.6626 170.101C93.3074 171.03 94.395 171.957 93.9998 172.506C93.6046 173.056 88.8499 178.996 87.3136 176.717C85.7773 174.438 84.2617 164.564 84.2617 164.564L85.6792 152.368L93.9998 150.016Z" fill="black"/>
<path opacity="0.1" d="M97.4409 110.382L99.6459 112.894V134.739C99.6459 134.739 100.291 140.562 99.6459 141.764C99.001 142.967 95.7322 145.372 95.7322 145.372L92.9834 133.346L93.5777 120.623L97.4409 110.382Z" fill="black"/>
<path d="M99.6454 101.065V112.881L97.17 122.079C97.17 122.079 96.3766 144.276 97.069 146.975C97.7614 149.674 94.6916 152.208 94.6916 152.208C94.6916 152.208 92.9086 152.378 92.9086 153.558C92.9086 154.738 89.937 158.115 89.937 158.115L90.0351 164.698C90.0351 164.698 91.3248 177.021 89.3427 179.383C87.3606 181.745 90.0351 182.084 90.0351 182.084C87.5597 189.004 75.6731 187.401 74.6003 186.642C73.5275 185.882 74.6003 170.944 74.6003 170.944C74.6003 170.944 77.257 148.157 79.3371 147.145C81.4173 146.132 79.4382 144.866 80.1305 143.347C80.8229 141.828 79.4381 137.693 79.4381 137.693C79.4381 137.693 78.8438 132.797 77.358 130.434C75.8722 128.072 76.0683 121.573 76.0683 121.573C76.0683 121.573 71.908 116.846 70.6718 114.99C69.4356 113.134 68.6392 108.324 68.9363 104.693C69.1384 102.239 70.651 98.667 71.6108 96.6111C72.0714 95.6262 72.4043 94.9882 72.4043 94.9882L72.6866 95.0515L88.9177 98.672L99.6454 101.065Z" fill="#444053"/>
<path opacity="0.1" d="M101.156 44.6039C99.6222 44.9786 98.1572 46.2648 96.8823 47.827H96.5495C94.6809 47.8281 92.845 47.4089 91.2275 46.6118C89.61 45.8147 88.268 44.6679 87.3374 43.2874C86.9485 42.7153 86.6355 42.1081 86.4043 41.4771C87.3225 39.4896 88.003 37.7628 88.003 37.7628C88.003 37.7628 105.836 43.4646 101.156 44.6039Z" fill="black"/>
<path d="M107.173 38.2743C107.176 39.6597 106.805 41.027 106.09 42.2711C105.374 43.5152 104.333 44.6027 103.047 45.45C101.761 46.2973 100.263 46.8818 98.6699 47.1583C97.0767 47.4348 95.4302 47.396 93.8573 47.045C92.2844 46.6939 90.8271 46.0399 89.5975 45.1334C88.368 44.2268 87.3992 43.092 86.7656 41.8161C86.132 40.5403 85.8505 39.1576 85.943 37.7745C86.0354 36.3914 86.4992 35.0448 87.2987 33.8385C87.6207 33.3483 87.9969 32.8854 88.422 32.4561C89.1227 31.7448 89.9464 31.1284 90.8647 30.6281C92.4157 29.7883 94.1959 29.3057 96.0314 29.2274C97.8668 29.1491 99.6947 29.4778 101.336 30.1814C102.978 30.885 104.378 31.9394 105.398 33.2416C106.418 34.5439 107.025 36.0493 107.158 37.611C107.164 37.8338 107.173 38.054 107.173 38.2743Z" fill="#EFB7B9"/>
<path opacity="0.1" d="M98.2456 59.942L98.21 60.2205L93.2681 53.6376C92.751 54.6782 92.4628 55.3745 92.4628 55.3745C92.4628 55.3745 80.7248 47.8447 82.5821 47.3383C83.2061 47.1687 84.0263 46.0294 84.8375 44.5938L84.9386 44.4115C85.8004 46.599 90.8076 50.9716 92.8907 52.7236C93.1314 52.9262 93.3305 53.0933 93.485 53.2148L93.803 53.468L93.9694 53.6098C94.7272 54.2757 97.9247 57.2126 98.2456 59.942Z" fill="black"/>
<path d="M101.94 82.2782L101.399 97.1074L101.304 99.7481C101.304 99.7481 94.8967 99.2418 88.9178 98.6847C84.1037 98.2366 79.566 97.753 78.8677 97.4695C77.9762 97.1125 76.0654 96.8365 74.5588 96.6618C73.3939 96.5276 72.4786 96.4567 72.4786 96.4567C72.4786 96.4567 72.1369 96.5428 71.6109 96.6238C70.4638 96.801 68.4491 96.9454 67.2752 96.0769C65.7746 94.9654 69.7179 90.9271 70.7016 89.9574L70.9185 89.7472L70.547 86.8229L69.5813 79.24C69.5813 79.24 68.9869 74.8725 68.0954 72.5305C67.8571 71.8647 67.6851 71.1829 67.5813 70.4924C67.2501 68.3534 67.4198 66.1797 68.0806 64.0969C68.3629 63.2119 68.5421 62.3053 68.6155 61.3903C68.764 59.0483 77.159 49.9969 79.2391 49.174C80.1749 48.8022 80.9278 48.1625 81.3668 47.3663C81.5117 47.1159 81.6205 46.8515 81.6907 46.5789C82.5822 43.2874 84.8377 44.5939 84.8377 44.5939C85.3815 47.1688 93.8002 53.9846 93.8002 53.9846L93.9666 54.1264C94.8016 54.8555 98.5221 58.2786 98.2577 61.2004C98.2048 62.2879 98.3954 63.374 98.8193 64.4007C100.532 68.9947 101.516 73.763 101.746 78.5792L101.94 82.2782Z" fill="#DCE6F2"/>
<path opacity="0.1" d="M90.0119 64.6691C90.0119 64.6691 87.9317 68.9732 86.3716 69.6695C84.8114 70.3658 90.7548 71.138 90.0119 64.6691Z" fill="black"/>
<path opacity="0.1" d="M91.5711 72.7078C91.5711 72.7078 86.8164 73.2141 86.8164 73.9737C86.8164 74.7333 91.5711 72.7078 91.5711 72.7078Z" fill="black"/>
<path opacity="0.1" d="M96.5491 77.6449C96.5491 77.6449 89.64 90.1776 87.7084 90.5574C85.7768 90.9372 96.5491 77.6449 96.5491 77.6449Z" fill="black"/>
<path opacity="0.1" d="M93.6693 54.62L87.9548 56.7367L81.0576 47.8599C81.2025 47.6096 81.3113 47.3452 81.3815 47.0725C82.273 43.7811 84.5285 45.0875 84.5285 45.0875C85.0723 47.6624 93.491 54.4782 93.491 54.4782L93.6693 54.62Z" fill="black"/>
<path d="M93.9662 54.1137L88.2517 56.2303L81.3545 47.3536C81.4994 47.1032 81.6082 46.8388 81.6784 46.5662C82.5699 43.2747 84.8254 44.5812 84.8254 44.5812C85.3692 47.1561 93.7879 53.9719 93.7879 53.9719L93.9662 54.1137Z" fill="#DCE6F2"/>
<path opacity="0.1" d="M101.304 99.7481C101.304 99.7481 94.8969 99.2417 88.9179 98.6847L99.6455 101.077V103.862C99.176 104.224 98.7689 104.412 98.5044 104.316C97.2682 103.873 87.1795 102.48 87.1795 102.48C87.1795 102.48 81.3194 99.9481 74.9957 96.9099C74.8422 96.8374 74.6934 96.758 74.55 96.6719C73.8126 96.2454 73.1773 95.7032 72.6778 95.0743C71.51 93.6337 70.9394 91.7829 70.6928 89.9675C70.5541 88.9271 70.5025 87.8797 70.5382 86.833C70.5689 85.6463 70.696 84.4628 70.9186 83.291C70.307 78.7524 70.0094 74.1872 70.0271 69.6189C70.1014 62.5296 77.902 59.9978 77.902 59.9978C92.2402 58.9217 87.7946 78.6703 87.7946 78.6703C87.7946 78.6703 86.9655 84.2404 86.7397 84.8101C86.5138 85.3798 85.7026 86.3292 85.8125 87.6584C85.9225 88.9877 88.6623 90.5777 88.6623 90.5777C88.6623 90.5777 91.3368 91.6461 92.4393 93.2286C93.2416 94.3957 98.4539 95.9782 101.399 97.1074L101.304 99.7481Z" fill="black"/>
<path opacity="0.1" d="M106.106 32.6536C106.111 33.0706 106.01 33.4836 105.809 33.8638C105.656 34.174 105.48 34.4752 105.28 34.7651C104.967 35.2986 104.523 35.7683 103.978 36.1425C103.292 36.5602 102.424 36.6767 101.601 36.8463C100.778 37.016 99.9218 37.2869 99.4523 37.8844C99.1978 38.2685 99.0276 38.6889 98.9501 39.125C98.8713 39.5607 98.6672 39.9731 98.3557 40.3251C98.1936 40.497 97.969 40.6182 97.7173 40.6695C97.4655 40.7208 97.2009 40.6994 96.965 40.6087C96.7165 40.466 96.528 40.2593 96.4271 40.0188C96.0884 39.3681 96.0022 38.6465 95.8655 37.9452C95.7288 37.2438 95.5356 36.5223 95.0305 35.9577C94.5253 35.3931 93.6308 35.0209 92.8374 35.2411C92.5718 35.3282 92.3296 35.4602 92.1254 35.629C91.9211 35.7978 91.759 36 91.6487 36.2235C91.4291 36.671 91.2783 37.1407 91.2 37.6211C90.8315 39.3394 90.3967 41.0476 89.8954 42.7456C89.8802 42.8152 89.8466 42.881 89.7974 42.938C89.7184 43.0051 89.6118 43.0433 89.5002 43.0444C88.8346 43.1203 88.1957 42.7228 87.5241 42.7659C87.4549 42.7698 87.3862 42.7791 87.319 42.7937C86.2332 41.1859 85.7537 39.3325 85.9456 37.4847C86.1375 35.6369 86.9915 33.8841 88.3918 32.4637L88.4453 32.451C88.892 32.3159 89.298 32.098 89.6339 31.813C90.0629 31.4472 90.4602 31.0555 90.8226 30.6407L91.0603 30.3875C91.7434 29.6864 92.5214 29.0567 93.3782 28.5114C93.6121 28.3482 93.8804 28.2244 94.1687 28.1468C94.4154 28.1059 94.6683 28.099 94.9175 28.1266C95.9438 28.2315 96.9784 28.2646 98.011 28.2253C98.7305 28.129 99.4557 28.0664 100.183 28.038C102.064 28.0835 103.669 29.2153 104.858 30.4559C105.497 31.0914 106.067 31.8231 106.106 32.6536Z" fill="black"/>
<path d="M85.9108 34.079C85.4977 34.6563 84.7518 35.0487 84.4725 35.6817C84.0624 36.6007 84.7548 37.7451 84.1189 38.5655C83.9079 38.8414 83.5602 39.0465 83.4413 39.363C83.2393 39.8972 83.792 40.4669 83.6494 41.0163C83.5067 41.5657 82.6568 42.0291 82.8827 42.5658C83.0161 42.7999 83.2502 42.9812 83.5364 43.0722C83.9867 43.2923 84.505 43.3903 85.0223 43.3532C85.8335 43.2393 86.4368 42.5608 87.2599 42.5101C87.9285 42.4696 88.5674 42.8646 89.2331 42.7912C89.3447 42.7878 89.4507 42.749 89.5303 42.6823C89.5808 42.6259 89.6144 42.5598 89.6283 42.4899C90.1276 40.7935 90.5634 39.0853 90.9358 37.3654C91.0117 36.8848 91.1616 36.4149 91.3816 35.9678C91.4927 35.7447 91.6552 35.5429 91.8593 35.3742C92.0635 35.2055 92.3052 35.0733 92.5703 34.9854C93.3637 34.7677 94.2552 35.1373 94.7633 35.7019C95.2715 36.2665 95.4646 36.9881 95.6013 37.6894C95.738 38.3908 95.8242 39.1124 96.16 39.763C96.262 40.0044 96.4514 40.2118 96.7009 40.3555C97.1466 40.5758 97.7469 40.4011 98.0886 40.0719C98.4017 39.7197 98.606 39.3062 98.6829 38.8693C98.7605 38.434 98.9307 38.0144 99.1851 37.6312C99.6547 37.0337 100.513 36.7628 101.334 36.5931C102.154 36.4235 103.019 36.3045 103.711 35.8867C104.255 35.513 104.699 35.0442 105.013 34.5119C105.452 33.8587 105.862 33.1498 105.827 32.3978C105.788 31.5775 105.218 30.8458 104.608 30.2078C103.42 28.9671 101.812 27.8354 99.931 27.7924C99.2032 27.8183 98.4779 27.8808 97.7588 27.9797C96.7261 28.0193 95.6913 27.9854 94.6653 27.8784C94.4158 27.853 94.1631 27.8607 93.9164 27.9012C93.6278 27.9763 93.3599 28.1003 93.1289 28.2658C92.2713 28.8102 91.4923 29.4391 90.8081 30.1394C90.3669 30.6378 89.8885 31.1114 89.3757 31.5572C89.0397 31.8427 88.6338 32.0614 88.1871 32.1978C87.8899 32.2687 87.5927 32.2181 87.3104 32.2966C86.4338 32.532 86.3179 33.5068 85.9108 34.079Z" fill="#965D7B"/>
<path opacity="0.1" d="M114.527 40.9632C112.15 41.3354 110.18 39.6972 109.089 38.5022C108.754 38.1393 108.449 37.7569 108.177 37.3578L116.337 38.6693L116.667 38.7225C116.667 38.7225 118.167 40.396 114.527 40.9632Z" fill="black"/>
<g opacity="0.1">
<path opacity="0.1" d="M83.6487 40.2922C83.682 39.9611 83.623 39.6279 83.4764 39.3199C83.4764 39.3453 83.4496 39.3706 83.4407 39.3959C83.313 39.7352 83.4853 40.0871 83.5953 40.439C83.6189 40.3917 83.6368 40.3425 83.6487 40.2922V40.2922Z" fill="black"/>
<path opacity="0.1" d="M84.3561 36.1476C84.3255 36.4977 84.3335 36.8495 84.3799 37.1983C84.4103 36.8482 84.4024 36.4964 84.3561 36.1476Z" fill="black"/>
<path opacity="0.1" d="M104.995 33.7803C104.682 34.3137 104.238 34.7834 103.693 35.1576C103.007 35.5754 102.142 35.6918 101.316 35.8615C100.49 36.0311 99.6367 36.302 99.1671 36.8995C98.9131 37.2838 98.743 37.7042 98.6649 38.1402C98.5875 38.577 98.3832 38.9904 98.0706 39.3428C97.7289 39.6719 97.1286 39.8492 96.6828 39.6264C96.4334 39.4827 96.244 39.2752 96.142 39.0339C95.8062 38.3832 95.7171 37.6642 95.5833 36.9603C95.4496 36.2564 95.2505 35.5374 94.7453 34.9728C94.2401 34.4082 93.3457 34.036 92.5522 34.2563C92.2869 34.3438 92.045 34.4758 91.8408 34.6446C91.6366 34.8133 91.4743 35.0154 91.3636 35.2386C91.1436 35.6858 90.9937 36.1557 90.9178 36.6362C90.5474 38.3562 90.1115 40.0644 89.6103 41.7607C89.5964 41.8307 89.5628 41.8967 89.5123 41.9531C89.4327 42.0199 89.3266 42.0587 89.2151 42.062C88.5494 42.1354 87.9105 41.7405 87.2419 41.781C86.4188 41.8316 85.8155 42.5102 85.0042 42.6216C84.4868 42.6611 83.9676 42.5629 83.5184 42.3405C83.3119 42.2648 83.1265 42.1526 82.9746 42.0114C82.9051 42.0962 82.8591 42.1934 82.84 42.2956C82.821 42.3978 82.8294 42.5023 82.8647 42.6013C82.9955 42.837 83.2306 43.0191 83.5184 43.1077C83.9676 43.3301 84.4868 43.4283 85.0042 43.3887C85.8155 43.2773 86.4188 42.5988 87.2419 42.5481C87.9105 42.5076 88.5494 42.9026 89.2151 42.8292C89.3266 42.8259 89.4327 42.787 89.5123 42.7203C89.5628 42.6639 89.5964 42.5978 89.6103 42.5279C90.1095 40.84 90.5454 39.1318 90.9178 37.4034C90.9937 36.9229 91.1436 36.4529 91.3636 36.0058C91.4743 35.7825 91.6366 35.5805 91.8408 35.4117C92.045 35.243 92.2869 35.1109 92.5522 35.0234C93.3457 34.8031 94.2372 35.1753 94.7453 35.7399C95.2535 36.3045 95.4466 37.0261 95.5833 37.7275C95.72 38.4288 95.8062 39.1504 96.142 39.8011C96.244 40.0424 96.4334 40.2499 96.6828 40.3935C97.1286 40.6138 97.7289 40.4391 98.0706 40.1099C98.3832 39.7575 98.5875 39.3441 98.6649 38.9073C98.743 38.4713 98.9131 38.051 99.1671 37.6667C99.6367 37.0692 100.495 36.8008 101.316 36.6286C102.136 36.4565 103.001 36.3425 103.693 35.9248C104.238 35.5506 104.682 35.0808 104.995 34.5474C105.434 33.8967 105.844 33.1878 105.809 32.4358C105.803 32.3392 105.791 32.2428 105.773 32.1472C105.63 32.7267 105.366 33.2797 104.995 33.7803V33.7803Z" fill="black"/>
</g>
<path opacity="0.1" d="M105.82 33.8562C106.582 35.0106 107.034 36.2948 107.143 37.616C104.495 36.3501 102.005 34.9601 100.748 34.4765C98.5576 33.6334 90.3677 33.76 87.2891 33.8385C87.6111 33.3483 87.9872 32.8854 88.4123 32.4561C89.1158 31.7442 89.9425 31.1278 90.864 30.6281C92.0842 29.9682 93.4497 29.5274 94.8767 29.3324C96.3038 29.1374 97.7625 29.1924 99.1638 29.4941C100.565 29.7958 101.879 30.3378 103.026 31.0869C104.173 31.836 105.129 32.7766 105.835 33.8511L105.82 33.8562Z" fill="black"/>
<path opacity="0.1" d="M115.27 39.8897C113.841 40.2644 111.508 39.5403 109.089 38.5022C108.754 38.1393 108.449 37.7569 108.177 37.3578L116.337 38.6693C116.878 38.9832 117.014 39.4314 115.27 39.8897Z" fill="black"/>
<path d="M97.1816 25.0781C97.1816 25.0781 89.381 24.6984 87.1879 28.3063L86.8343 31.504L86.24 31.4483L86.1211 33.6232C86.1211 33.6232 98.0433 33.1801 100.756 34.2232C103.47 35.2664 111.9 40.5225 115.279 39.6364C118.658 38.7502 114.982 37.9274 114.982 37.9274C114.982 37.9274 110.331 36.2487 110.331 34.9322C110.331 33.6156 109.178 26.6606 97.1816 25.0781Z" fill="#444053"/>
<path opacity="0.1" d="M82.1367 143.62C82.1367 143.62 87.1142 147.735 89.2687 147.418C89.2687 147.418 83.1768 146.975 82.1367 143.62Z" fill="black"/>
<path opacity="0.1" d="M81.0967 145.527C81.0967 145.527 81.5424 147.643 82.7311 147.436C83.9198 147.228 81.0967 145.527 81.0967 145.527Z" fill="black"/>
<path opacity="0.1" d="M88.8971 180.902C88.8971 180.902 81.8305 185.586 83.0221 185.713C84.2137 185.839 88.8971 180.902 88.8971 180.902Z" fill="black"/>
<path d="M98.3496 87.9394L121.231 84.767V103.224L99.4907 102.255L98.3496 87.9394Z" fill="#E73361"/>
<path opacity="0.05" d="M98.3496 87.9394L121.231 84.767V103.224L99.4907 102.255L98.3496 87.9394Z" fill="black"/>
<path d="M121.231 84.767L148.672 86.5165L147.153 102.579L121.231 103.224V84.767Z" fill="#E73361"/>
<path opacity="0.1" d="M121.231 84.767L148.672 86.5165L147.153 102.579L121.231 103.224V84.767Z" fill="black"/>
<path d="M129.668 79.1335L121.231 84.767L148.672 86.5165L153.156 80.7514L129.668 79.1335Z" fill="#E73361"/>
<path d="M90.0645 81.787L110.664 79.6501L121.231 84.7671L98.3494 87.9395L90.0645 81.787Z" fill="#E73361"/>
<path d="M126.247 89.5599V114.795L115.529 113.858L110.866 113.453L109.446 113.327L104.786 112.919L98.3496 112.357V87.9395L121.228 89.2662L126.247 89.5599Z" fill="#E73361"/>
<path d="M148.672 86.5165V111.126L140.081 112.531L135.903 113.215L126.248 114.795V89.5598L148.672 86.5165Z" fill="#E73361"/>
<path opacity="0.05" d="M148.672 86.5165V111.126L140.081 112.531L135.903 113.215L126.248 114.795V89.5598L148.672 86.5165Z" fill="black"/>
<path d="M90.0645 93.2513L98.3494 87.9395L126.247 89.5599L122.14 95.454L90.0645 93.2513Z" fill="#E73361"/>
<path opacity="0.1" d="M90.0645 93.2513L98.3494 87.9395L126.247 89.5599L122.14 95.454L90.0645 93.2513Z" fill="white"/>
<path d="M148.672 86.5165L126.248 89.5598L133.546 95.1299L157.566 91.6967L148.672 86.5165Z" fill="#E73361"/>
<path opacity="0.1" d="M148.672 86.5165L126.248 89.5598L133.546 95.1299L157.566 91.6967L148.672 86.5165Z" fill="white"/>
<path opacity="0.1" d="M140.08 112.532L135.902 113.215V107.956L139.816 107.116L140.08 112.532Z" fill="white"/>
<path opacity="0.1" d="M115.529 110.379V113.858L110.866 113.453V110.379H115.529Z" fill="white"/>
<path opacity="0.1" d="M109.446 111.476V113.327L104.786 112.919V111.476H109.446Z" fill="white"/>
<path opacity="0.1" d="M123.443 108.534C120.248 112.015 109.699 109.61 109.699 109.61L101.86 102.642L100.796 101.698L102.876 98.4062C102.876 98.4062 103.47 98.5733 104.463 98.867C109.717 100.432 126.132 105.604 123.443 108.534Z" fill="black"/>
<path d="M123.145 108.027C119.95 111.509 109.401 109.103 109.401 109.103L101.562 102.136L100.498 101.191L102.578 97.8998C102.578 97.8998 103.173 98.0669 104.165 98.3606C109.419 99.9253 125.834 105.098 123.145 108.027Z" fill="#EFB7B9"/>
<path opacity="0.1" d="M104.153 98.3606C103.719 99.424 102.617 100.999 101.55 102.136L100.486 101.191L102.566 97.8998C102.566 97.8998 103.164 98.0669 104.153 98.3606Z" fill="black"/>
<path d="M78.1989 58.985C78.1989 58.985 70.3983 61.5169 70.324 68.6061C70.3062 73.1745 70.6039 77.7397 71.2155 82.2782C71.2155 82.2782 68.9867 92.8488 75.3015 95.887C81.6163 98.9253 87.4853 101.457 87.4853 101.457C87.4853 101.457 97.574 102.85 98.8132 103.293C100.052 103.736 104.358 98.0391 103.69 97.0897C103.021 96.1402 93.8357 93.7982 92.7451 92.2158C91.6545 90.6334 88.9681 89.5675 88.9681 89.5675C88.9681 89.5675 86.2283 87.9749 86.1183 86.6457C86.0084 85.3165 86.8166 84.367 87.0455 83.7974C87.2743 83.2277 88.1034 77.6576 88.1034 77.6576C88.1034 77.6576 92.5371 57.8963 78.1989 58.985Z" fill="#DCE6F2"/>
<path opacity="0.1" d="M81.7646 82.4554C81.7646 82.4554 71.2152 83.4682 72.0324 86.633C72.0324 86.633 76.0412 83.4403 81.7646 82.4554Z" fill="black"/>
<path opacity="0.1" d="M81.7644 83.7213C81.7644 83.7213 75.7765 87.4558 76.876 87.709C77.9755 87.9622 81.7644 83.7213 81.7644 83.7213Z" fill="black"/>
<path opacity="0.1" d="M84.439 85.2405C84.439 85.2405 82.7304 87.8584 83.6961 87.7217C84.6619 87.585 84.439 85.2405 84.439 85.2405Z" fill="black"/>
<path d="M194.277 28.4557C194.277 28.4557 182.985 27.8759 184.304 34.6259C184.304 34.6259 184.04 35.8184 185.309 36.3602C185.309 36.3602 185.33 35.8538 186.468 36.0285C186.873 36.0866 187.285 36.1036 187.695 36.0792C188.251 36.0476 188.779 35.8617 189.199 35.55V35.55C189.199 35.55 192.376 34.4335 193.612 30.0077C193.612 30.0077 194.527 29.0406 194.503 28.7924L192.595 29.4887C192.595 29.4887 193.246 30.661 192.732 31.6357C192.732 31.6357 192.673 29.5317 192.304 29.5799C192.23 29.5799 191.315 29.9875 191.315 29.9875C191.315 29.9875 192.435 32.0282 191.588 33.5144C191.588 33.5144 191.909 30.9977 190.964 30.1343L189.621 30.8027C189.621 30.8027 190.931 32.9118 190.043 34.6335C190.043 34.6335 190.272 31.9927 189.338 30.9648L188.12 31.7725C188.12 31.7725 189.353 33.8537 188.602 35.2816C188.602 35.2816 188.503 32.2079 187.856 31.975C187.856 31.975 186.792 32.7751 186.631 33.1042C186.631 33.1042 187.472 34.6233 186.949 35.4108C186.949 35.4108 186.628 33.3625 186.355 33.3523C186.355 33.3523 185.294 34.7094 185.184 35.631C185.235 34.7718 185.55 33.9391 186.096 33.2156C185.485 33.3142 184.921 33.5633 184.474 33.9321C184.474 33.9321 184.637 32.9726 186.358 32.889C186.358 32.889 187.249 31.8585 187.469 31.7952C187.469 31.7952 185.758 31.6737 184.721 32.0661C184.721 32.0661 185.633 31.1623 187.784 31.5598L188.973 30.7243C188.973 30.7243 186.72 30.4711 185.764 30.7521C185.764 30.7521 186.863 29.952 189.297 30.5344L190.604 29.8685C190.604 29.8685 188.685 29.514 187.541 29.6431C187.541 29.6431 188.747 29.0887 190.988 29.6887L191.924 29.3317C191.924 29.3317 190.515 29.0963 190.105 29.0583C189.695 29.0203 189.671 28.9241 189.671 28.9241C190.562 28.7977 191.477 28.8854 192.313 29.1773C192.313 29.1773 194.319 28.562 194.277 28.4557Z" fill="#E73361"/>
<path opacity="0.1" d="M228.588 62.2156C228.588 62.2156 217.296 61.6358 218.615 68.3858C218.615 68.3858 218.351 69.5783 219.619 70.1201C219.619 70.1201 219.64 69.6137 220.781 69.7884C221.187 69.8465 221.599 69.8635 222.009 69.839C222.558 69.8051 223.079 69.6203 223.494 69.3124V69.3124C223.494 69.3124 226.674 68.1933 227.91 63.7676C227.91 63.7676 228.823 62.803 228.787 62.5549L226.879 63.2486C226.879 63.2486 227.53 64.4208 227.019 65.3956C227.019 65.3956 226.956 63.2916 226.591 63.3397C226.517 63.3397 225.598 63.7474 225.598 63.7474C225.598 63.7474 226.722 65.7906 225.875 67.2743C225.875 67.2743 226.196 64.7576 225.248 63.8942L223.919 64.555C223.919 64.555 225.23 66.6641 224.341 68.3858C224.341 68.3858 224.57 65.745 223.637 64.7171L222.422 65.5273C222.422 65.5273 223.652 67.6059 222.903 69.0339C222.903 69.0339 222.805 65.9602 222.157 65.7273C222.157 65.7273 221.093 66.5274 220.93 66.8565C220.93 66.8565 221.774 68.3756 221.251 69.163C221.251 69.163 220.93 67.1148 220.657 67.1046C220.657 67.1046 219.596 68.4617 219.486 69.3833C219.539 68.524 219.854 67.6914 220.401 66.9679C219.789 67.0667 219.224 67.3157 218.776 67.6844C218.776 67.6844 218.942 66.7248 220.662 66.6413C220.662 66.6413 221.539 65.6108 221.774 65.5475C221.774 65.5475 220.062 65.426 219.025 65.8184C219.025 65.8184 219.937 64.9146 222.086 65.3247L223.275 64.4892C223.275 64.4892 221.019 64.236 220.065 64.5171C220.065 64.5171 221.165 63.717 223.598 64.2993L224.906 63.6334C224.906 63.6334 222.983 63.2815 221.839 63.4081C221.839 63.4081 223.049 62.8536 225.289 63.4537L226.225 63.0967C226.225 63.0967 224.817 62.8612 224.404 62.8232C223.991 62.7853 223.97 62.689 223.97 62.689C224.862 62.5626 225.778 62.6503 226.615 62.9422C226.615 62.9422 228.624 62.3219 228.588 62.2156Z" fill="#E73361"/>
<path opacity="0.1" d="M159.988 56.2227C159.988 56.2227 162.588 46.832 154.552 46.7991C154.552 46.7991 153.218 46.3737 152.377 47.3459C152.377 47.3459 152.951 47.4497 152.561 48.3764C152.427 48.7041 152.337 49.0439 152.294 49.3892C152.236 49.8598 152.361 50.3336 152.648 50.7386V50.7386C152.648 50.7386 153.399 53.5997 158.294 55.3922C158.294 55.3922 159.257 56.3239 159.548 56.3341L159.072 54.6149C159.072 54.6149 157.604 54.9618 156.564 54.3617C156.564 54.3617 159.01 54.6681 159.013 54.3617C159.013 54.2985 158.716 53.4604 158.716 53.4604C158.716 53.4604 156.163 54.0529 154.588 53.0882C154.588 53.0882 157.444 53.787 158.606 53.1414L158.071 51.8957C158.071 51.8957 155.396 52.6375 153.566 51.597C153.566 51.597 156.582 52.24 157.931 51.6324L157.203 50.4728C157.203 50.4728 154.588 51.1513 153.064 50.2778C153.064 50.2778 156.63 50.7184 157.016 50.2171C157.016 50.2171 156.273 49.1866 155.919 48.9942C155.919 48.9942 154.029 49.4449 153.197 48.8701C153.197 48.8701 155.619 48.9486 155.676 48.7309C155.676 48.7309 154.288 47.6093 153.23 47.3561C154.216 47.5473 155.126 47.9539 155.872 48.5359C155.861 48.0053 155.669 47.4889 155.319 47.0497C155.319 47.0497 156.401 47.3535 156.211 48.822C156.211 48.822 157.251 49.7335 157.283 49.9411C157.283 49.9411 157.714 48.5258 157.438 47.5865C157.438 47.5865 158.329 48.5081 157.489 50.2424L158.249 51.3944C158.249 51.3944 158.939 49.5461 158.763 48.6954C158.763 48.6954 159.503 49.7537 158.413 51.6982L158.962 52.911C158.962 52.911 159.696 51.3564 159.744 50.3791C159.744 50.3791 160.181 51.4881 159.102 53.268L159.358 54.1136C159.358 54.1136 159.869 52.9718 159.982 52.6325C160.095 52.2932 160.211 52.2907 160.211 52.2907C160.206 53.0609 159.95 53.8149 159.471 54.4681C159.471 54.4681 159.86 56.2353 159.988 56.2227Z" fill="#E73361"/>
<path opacity="0.1" d="M135.258 59.4229C135.258 59.4229 126.188 53.6427 122.946 59.904C122.946 59.904 121.957 60.7775 122.667 61.8231C122.667 61.8231 123.006 61.4155 123.855 62.0915C124.156 62.3301 124.49 62.5375 124.848 62.7093C125.333 62.9395 125.894 63.0284 126.444 62.9625V62.9625C126.444 62.9625 129.82 63.5169 133.706 60.4002C133.706 60.4002 135.094 60.0204 135.225 59.7976L133.177 59.4913C133.177 59.4913 132.964 60.7749 131.909 61.3497C131.909 61.3497 133.213 59.5622 132.874 59.433C132.806 59.4052 131.784 59.3064 131.784 59.3064C131.784 59.3064 131.403 61.5396 129.739 62.3827C129.739 62.3827 131.632 60.4306 131.397 59.2659L129.843 59.195C129.843 59.195 129.579 61.5725 127.724 62.5953C127.724 62.5953 129.617 60.4964 129.507 59.2001L127.968 59.3064C127.968 59.3064 127.656 61.618 126.108 62.4586C126.108 62.4586 128.007 59.8457 127.618 59.3495C127.618 59.3495 126.212 59.5191 125.864 59.7166C125.864 59.7166 125.594 61.3724 124.643 61.7927C124.643 61.7927 125.698 59.9318 125.484 59.8027C125.484 59.8027 123.722 60.4382 123.029 61.1623C123.628 60.469 124.429 59.9209 125.353 59.5723C124.778 59.3687 124.146 59.3124 123.534 59.4102C123.534 59.4102 124.289 58.6861 125.781 59.4229C125.781 59.4229 127.178 58.9748 127.415 59.0305C127.415 59.0305 126.063 58.1266 124.943 57.9696C124.943 57.9696 126.292 57.6405 127.823 58.9824L129.365 58.8482C129.365 58.8482 127.65 57.5822 126.667 57.3696C126.667 57.3696 128.102 57.2151 129.757 58.8406L131.279 58.8988C131.279 58.8988 129.903 57.7038 128.866 57.2733C128.866 57.2733 130.23 57.3746 131.715 58.9267L132.729 59.0659C132.729 59.0659 131.704 58.2101 131.383 57.9873C131.062 57.7645 131.106 57.6709 131.106 57.6709C131.933 57.9828 132.642 58.4841 133.154 59.1191C133.154 59.1191 135.219 59.5267 135.258 59.4229Z" fill="#E73361"/>
<path opacity="0.1" d="M165.453 5.71957C165.453 5.71957 156.383 -0.0632255 153.141 6.20062C153.141 6.20062 152.152 7.07412 152.862 8.11978C152.862 8.11978 153.201 7.71215 154.051 8.38816C154.353 8.62554 154.687 8.83202 155.046 9.0034C155.531 9.23383 156.092 9.32275 156.642 9.25659V9.25659C156.642 9.25659 160.018 9.81107 163.905 6.6918C163.905 6.6918 165.292 6.31456 165.42 6.08922L163.373 5.78793C163.373 5.78793 163.162 7.07159 162.104 7.64632C162.104 7.64632 163.411 5.85882 163.073 5.72969C163.004 5.70184 161.982 5.6031 161.982 5.6031C161.982 5.6031 161.59 7.84127 159.926 8.67932C159.926 8.67932 161.816 6.72725 161.584 5.56259L160.03 5.4917C160.03 5.4917 159.762 7.86912 157.911 8.88947C157.911 8.88947 159.804 6.79055 159.694 5.49423L158.158 5.60057C158.158 5.60057 157.843 7.9147 156.294 8.75528C156.294 8.75528 158.196 6.14239 157.807 5.64614C157.807 5.64614 156.401 5.81578 156.054 6.01326C156.054 6.01326 155.783 7.66911 154.832 8.0894C154.832 8.0894 155.887 6.22847 155.673 6.09682C155.673 6.09682 153.911 6.73485 153.219 7.45896C153.817 6.7649 154.618 6.21665 155.542 5.86895C154.967 5.66388 154.334 5.60753 153.721 5.70691C153.721 5.70691 154.479 4.98279 155.97 5.71957C155.97 5.71957 157.367 5.26889 157.605 5.32713C157.605 5.32713 156.253 4.42325 155.132 4.26374C155.132 4.26374 156.479 3.93713 158.009 5.27649L159.551 5.1423C159.551 5.1423 157.84 3.87636 156.853 3.66116C156.853 3.66116 158.288 3.50924 159.946 5.1347L161.468 5.19041C161.468 5.19041 160.092 3.99536 159.052 3.56748C159.052 3.56748 160.419 3.66875 161.905 5.22079L162.915 5.36004C162.915 5.36004 161.887 4.5144 161.566 4.29666C161.245 4.07891 161.29 3.9827 161.29 3.9827C162.117 4.29427 162.826 4.79571 163.337 5.43093C163.337 5.43093 165.402 5.81578 165.453 5.71957Z" fill="#E73361"/>
<path opacity="0.1" d="M200.108 13.0442C200.108 13.0442 196.483 3.90165 189.645 7.49437C189.645 7.49437 188.249 7.74756 188.139 8.94007C188.139 8.94007 188.688 8.76791 188.932 9.73002C189.023 10.0723 189.159 10.4044 189.339 10.72C189.585 11.1446 189.985 11.4901 190.48 11.7049V11.7049C190.48 11.7049 192.893 13.7937 198.171 13.1025C198.171 13.1025 199.565 13.462 199.82 13.3379L198.334 12.0948C198.334 12.0948 197.306 13.0493 196.052 13.0113C196.052 13.0113 198.32 12.1707 198.132 11.8998C198.094 11.8467 197.318 11.2719 197.318 11.2719C197.318 11.2719 195.517 12.9252 193.586 12.8164C193.586 12.8164 196.441 12.1226 197.024 11.0441L195.794 10.2364C195.794 10.2364 193.993 12.0644 191.785 12.0087C191.785 12.0087 194.757 11.196 195.508 10.0718L194.171 9.41606C194.171 9.41606 192.388 11.1707 190.54 11.1149C190.54 11.1149 193.844 9.88193 193.853 9.28441C193.853 9.28441 192.584 8.74512 192.165 8.74006C192.165 8.74006 190.84 9.97308 189.788 9.86167C189.788 9.86167 191.892 8.83627 191.803 8.62612C191.803 8.62612 189.931 8.29951 188.876 8.56282C189.83 8.27978 190.854 8.21431 191.847 8.37293C191.508 7.92707 191.024 7.57512 190.454 7.36019C190.454 7.36019 191.559 7.12979 192.299 8.45649C192.299 8.45649 193.749 8.76284 193.904 8.92235C193.904 8.92235 193.393 7.52729 192.575 6.85381C192.575 6.85381 193.904 7.23612 194.266 9.08692L195.627 9.71989C195.627 9.71989 195.066 7.84377 194.388 7.18802C194.388 7.18802 195.675 7.75516 195.954 9.89459L197.172 10.6769C197.172 10.6769 196.834 9.02616 196.263 8.17038C196.263 8.17038 197.321 8.91475 197.511 10.9124L198.251 11.515C198.251 11.515 197.978 10.3149 197.865 9.97561C197.752 9.63634 197.844 9.61355 197.844 9.61355C198.316 10.2704 198.566 11.0257 198.566 11.796C198.566 11.796 200.004 13.1101 200.108 13.0442Z" fill="#E73361"/>
<path opacity="0.1" d="M176.448 13.4948C176.448 13.4948 165.185 12.4264 166.115 19.2346C166.115 19.2346 165.779 20.4144 167.007 21.0069C167.007 21.0069 167.057 20.5005 168.195 20.7284C168.598 20.8021 169.008 20.8369 169.42 20.8322C169.975 20.8236 170.513 20.661 170.95 20.3688V20.3688C170.95 20.3688 174.192 19.389 175.705 15.0215C175.705 15.0215 176.673 14.0974 176.653 13.8467L174.706 14.4595C174.706 14.4595 175.301 15.657 174.706 16.609C174.706 16.609 174.769 14.505 174.409 14.5379C174.335 14.5379 173.396 14.9025 173.396 14.9025C173.396 14.9025 174.394 16.9913 173.461 18.4471C173.461 18.4471 173.931 15.9457 173.036 15.0443L171.654 15.652C171.654 15.652 172.843 17.8167 171.847 19.4979C171.847 19.4979 172.234 16.8698 171.363 15.8039L170.1 16.5634C170.1 16.5634 171.206 18.6927 170.371 20.0878C170.371 20.0878 170.457 17.0141 169.824 16.7533C169.824 16.7533 168.712 17.5129 168.531 17.8268C168.531 17.8268 169.283 19.3713 168.715 20.1435C168.715 20.1435 168.516 18.0851 168.255 18.0648C168.255 18.0648 167.114 19.3738 166.947 20.2979C167.05 19.4412 167.415 18.6224 168.005 17.9231C167.388 17.9957 166.81 18.22 166.341 18.5687C166.341 18.5687 166.561 17.6192 168.284 17.6091C168.284 17.6091 169.221 16.6191 169.473 16.566C169.473 16.566 167.77 16.371 166.709 16.7179C166.709 16.7179 167.675 15.852 169.797 16.3558L171.048 15.5735C171.048 15.5735 168.787 15.1836 167.83 15.4368C167.83 15.4368 168.977 14.6772 171.372 15.3735L172.718 14.7633C172.718 14.7633 170.819 14.3278 169.669 14.4063C169.669 14.4063 170.908 13.8999 173.11 14.6012L174.067 14.2848C174.067 14.2848 172.674 13.9885 172.263 13.9328C171.853 13.8771 171.839 13.7809 171.839 13.7809C172.737 13.6931 173.646 13.8193 174.465 14.1455C174.465 14.1455 176.468 13.6012 176.448 13.4948Z" fill="#E73361"/>
<path opacity="0.1" d="M274.988 87.9749C274.988 87.9749 263.731 86.9065 264.661 93.7071C264.661 93.7071 264.325 94.8869 265.553 95.4794C265.553 95.4794 265.603 94.973 266.741 95.1983C267.143 95.2746 267.554 95.3094 267.966 95.3021C268.522 95.2949 269.059 95.1321 269.496 94.8388V94.8388C269.496 94.8388 272.738 93.859 274.236 89.494C274.236 89.494 275.205 88.5674 275.184 88.3192L273.237 88.9294C273.237 88.9294 273.832 90.1295 273.237 91.0815C273.237 91.0815 273.3 88.975 272.94 89.0104C272.866 89.0104 271.927 89.3725 271.927 89.3725C271.927 89.3725 272.925 91.4613 271.992 92.9171C271.992 92.9171 272.462 90.4181 271.567 89.5143L270.185 90.1245C270.185 90.1245 271.374 92.2892 270.382 93.9704C270.382 93.9704 270.765 91.3423 269.894 90.2738L268.631 91.0334C268.631 91.0334 269.737 93.1627 268.902 94.5552C268.902 94.5552 268.988 91.4815 268.355 91.2233C268.355 91.2233 267.246 91.9829 267.062 92.2968C267.062 92.2968 267.817 93.8412 267.246 94.6135C267.246 94.6135 267.047 92.5551 266.786 92.5348C266.786 92.5348 265.645 93.8438 265.478 94.7679C265.581 93.9111 265.946 93.0923 266.536 92.393C265.919 92.4643 265.34 92.6889 264.872 93.0386C264.872 93.0386 265.092 92.0867 266.816 92.0765C266.816 92.0765 267.755 91.0866 268.004 91.0359C268.004 91.0359 266.301 90.8384 265.241 91.1853C265.241 91.1853 266.206 90.3219 268.331 90.8258L269.579 90.0434C269.579 90.0434 267.344 89.6839 266.373 89.932C266.373 89.932 267.52 89.1725 269.915 89.8662L271.261 89.2586C271.261 89.2586 269.362 88.8231 268.212 88.9016C268.212 88.9016 269.451 88.3952 271.653 89.0965L272.61 88.7775C272.61 88.7775 271.217 88.4813 270.806 88.4281C270.396 88.3749 270.382 88.2762 270.382 88.2762C271.28 88.1868 272.189 88.3121 273.008 88.6382C273.008 88.6382 275.017 88.0838 274.988 87.9749Z" fill="#E73361"/>
<path opacity="0.1" d="M292.197 96.9327C292.197 96.9327 280.94 95.8668 281.87 102.665C281.87 102.665 281.537 103.845 282.762 104.437C282.762 104.437 282.812 103.931 283.95 104.159C284.351 104.233 284.761 104.267 285.172 104.26C285.725 104.25 286.259 104.089 286.696 103.799V103.799C286.696 103.799 289.935 102.819 291.433 98.4518C291.433 98.4518 292.405 97.5277 292.381 97.277L290.434 97.8872C290.434 97.8872 291.029 99.0873 290.434 100.039C290.434 100.039 290.497 97.9353 290.137 97.9682C290.063 97.9682 289.124 98.3303 289.124 98.3303C289.124 98.3303 290.122 100.419 289.189 101.875C289.189 101.875 289.659 99.376 288.764 98.4746L287.382 99.0823C287.382 99.0823 288.571 101.247 287.579 102.928C287.579 102.928 287.962 100.3 287.091 99.2342L285.828 99.9937C285.828 99.9937 286.934 102.123 286.102 103.518C286.102 103.518 286.185 100.442 285.552 100.184C285.552 100.184 284.444 100.943 284.259 101.257C284.259 101.257 285.014 102.802 284.444 103.574C284.444 103.574 284.244 101.515 283.983 101.495C283.983 101.495 282.842 102.804 282.678 103.728C282.781 102.872 283.145 102.053 283.733 101.353C283.117 101.426 282.538 101.65 282.069 101.999C282.069 101.999 282.292 101.047 284.016 101.039C284.016 101.039 284.952 100.049 285.204 99.9963C285.204 99.9963 283.501 99.8013 282.441 100.148C282.441 100.148 283.406 99.2823 285.531 99.7861L286.779 99.0038C286.779 99.0038 284.545 98.6442 283.573 98.8924C283.573 98.8924 284.72 98.1328 287.115 98.8291L288.461 98.2189C288.461 98.2189 286.562 97.7834 285.412 97.8619C285.412 97.8619 286.651 97.3555 288.853 98.0568L289.81 97.7404C289.81 97.7404 288.417 97.4441 288.009 97.3884C287.602 97.3327 287.582 97.2365 287.582 97.2365C288.48 97.1487 289.389 97.2749 290.208 97.6011C290.208 97.6011 292.226 97.0416 292.197 96.9327Z" fill="#E73361"/>
<path opacity="0.1" d="M253.99 21.4804C253.99 21.4804 244.921 15.7001 241.678 21.9615C241.678 21.9615 240.689 22.835 241.399 23.8806C241.399 23.8806 241.738 23.473 242.588 24.149C242.889 24.3876 243.222 24.595 243.58 24.7668C244.066 24.9969 244.626 25.0857 245.176 25.02V25.02C245.176 25.02 248.552 25.5744 252.442 22.4577C252.442 22.4577 253.827 22.0779 253.957 21.8551L251.916 21.5412C251.916 21.5412 251.702 22.8248 250.647 23.3996C250.647 23.3996 251.951 21.6121 251.613 21.4829C251.544 21.4551 250.525 21.3563 250.525 21.3563C250.525 21.3563 250.142 23.5895 248.478 24.4326C248.478 24.4326 250.371 22.4805 250.136 21.3158L248.582 21.2449C248.582 21.2449 248.317 23.6224 246.463 24.6452C246.463 24.6452 248.359 22.5463 248.246 21.25L246.706 21.3563C246.706 21.3563 246.409 23.6679 244.846 24.5085C244.846 24.5085 246.748 21.8956 246.356 21.3994C246.356 21.3994 244.95 21.569 244.603 21.7665C244.603 21.7665 244.335 23.4223 243.384 23.8426C243.384 23.8426 244.436 21.9817 244.222 21.8526C244.222 21.8526 242.46 22.4881 241.768 23.2122C242.367 22.5189 243.168 21.9708 244.091 21.6222C243.517 21.4186 242.885 21.3623 242.273 21.4601C242.273 21.4601 243.031 20.736 244.522 21.4728C244.522 21.4728 245.916 21.0247 246.154 21.0804C246.154 21.0804 244.802 20.1765 243.681 20.0195C243.681 20.0195 245.03 19.6904 246.561 21.0323L248.103 20.8981C248.103 20.8981 246.392 19.6321 245.405 19.4195C245.405 19.4195 246.84 19.265 248.495 20.8905L250.02 20.9487C250.02 20.9487 248.641 19.7537 247.604 19.3233C247.604 19.3233 248.971 19.4245 250.454 20.9766L251.467 21.1158C251.467 21.1158 250.442 20.26 250.121 20.0372C249.8 19.8144 249.848 19.741 249.848 19.741C250.673 20.0534 251.381 20.5547 251.892 21.1892C251.892 21.1892 253.951 21.5842 253.99 21.4804Z" fill="#E73361"/>
<path opacity="0.1" d="M260.997 63.2107C260.997 63.2107 257.871 53.9365 250.84 57.2659C250.84 57.2659 249.431 57.4507 249.256 58.6508C249.256 58.6508 249.815 58.5014 250.008 59.4712C250.079 59.8195 250.199 60.1595 250.364 60.4839C250.585 60.9202 250.967 61.283 251.452 61.5169V61.5169C251.452 61.5169 253.752 63.6943 259.059 63.2082C259.059 63.2082 260.432 63.6184 260.694 63.507L259.288 62.2056C259.288 62.2056 258.209 63.1221 256.961 63.036C256.961 63.036 259.267 62.2765 259.089 62.0056C259.053 61.9499 258.31 61.3447 258.31 61.3447C258.31 61.3447 256.426 62.9297 254.501 62.7449C254.501 62.7449 257.392 62.1625 258.028 61.1143L256.84 60.2586C256.84 60.2586 254.944 62.0157 252.742 61.879C252.742 61.879 255.737 61.1776 256.563 60.0864L255.262 59.38C255.262 59.38 253.375 61.0637 251.544 60.9371C251.544 60.9371 254.911 59.8307 254.953 59.2357C254.953 59.2357 253.71 58.6483 253.291 58.628C253.291 58.628 251.904 59.8079 250.849 59.656C250.849 59.656 253.006 58.7116 252.929 58.4989C252.929 58.4989 251.074 58.1014 250.008 58.3217C250.974 58.0776 251.998 58.0523 252.979 58.2483C252.665 57.7901 252.2 57.4205 251.642 57.1849C251.642 57.1849 252.759 56.995 253.425 58.3495C253.425 58.3495 254.854 58.7091 255.003 58.8762C255.003 58.8762 254.566 57.4608 253.785 56.7595C253.785 56.7595 255.092 57.1899 255.357 59.0534L256.682 59.7395C256.682 59.7395 256.218 57.8406 255.577 57.1722C255.577 57.1722 256.831 57.7875 257 59.9345L258.189 60.7624C258.189 60.7624 257.936 59.1015 257.413 58.2305C257.413 58.2305 258.432 59.0154 258.516 61.0156L259.223 61.6486C259.223 61.6486 259.015 60.4383 258.926 60.094C258.836 59.7497 258.926 59.7015 258.926 59.7015C259.365 60.375 259.576 61.1395 259.535 61.9093C259.535 61.9093 260.89 63.2715 260.997 63.2107Z" fill="#E73361"/>
<path opacity="0.1" d="M191.336 84.1087C191.336 84.1087 185.265 75.9611 179.628 80.8375C179.628 80.8375 178.338 81.3439 178.564 82.5465C178.564 82.5465 179.054 82.268 179.559 83.1542C179.741 83.4682 179.966 83.7624 180.231 84.0302C180.585 84.3957 181.071 84.6519 181.613 84.7594V84.7594C181.613 84.7594 184.54 86.2987 189.473 84.5568C189.473 84.5568 190.926 84.6226 191.14 84.453L189.357 83.5415C189.357 83.5415 188.623 84.6809 187.395 84.8961C187.395 84.8961 189.363 83.6302 189.098 83.3972C189.048 83.3517 188.132 82.9516 188.132 82.9516C188.132 82.9516 186.846 84.9214 184.938 85.2075C184.938 85.2075 187.52 83.9542 187.788 82.7946L186.364 82.2604C186.364 82.2604 185.125 84.3998 182.968 84.7923C182.968 84.7923 185.612 83.4023 186.043 82.1566L184.557 81.792C184.557 81.792 183.303 83.8606 181.506 84.177C181.506 84.177 184.37 82.3085 184.213 81.7262C184.213 81.7262 182.828 81.4603 182.43 81.5414C182.43 81.5414 181.488 83.0073 180.424 83.1136C180.424 83.1136 182.183 81.6907 182.038 81.5034C182.038 81.5034 180.127 81.5667 179.176 82.0351C180.024 81.5669 181.002 81.2963 182.011 81.2502C181.559 80.8858 180.992 80.642 180.379 80.5489C180.379 80.5489 181.387 80.1007 182.459 81.2401C182.459 81.2401 183.945 81.2401 184.15 81.3667C184.15 81.3667 183.259 80.1007 182.281 79.6273C182.281 79.6273 183.678 79.7285 184.546 81.4527L186.046 81.792C186.046 81.792 184.974 80.083 184.138 79.5944C184.138 79.5944 185.544 79.883 186.415 81.906L187.817 82.4123C187.817 82.4123 187.027 80.8805 186.233 80.164C186.233 80.164 187.47 80.6704 188.21 82.5718L189.101 83.0098C189.101 83.0098 188.507 81.8984 188.296 81.592C188.085 81.2856 188.168 81.2147 188.168 81.2147C188.811 81.7559 189.265 82.4388 189.479 83.1871C189.479 83.1871 191.256 84.1948 191.336 84.1087Z" fill="#E73361"/>
<path d="M231.236 42.4798C231.236 42.4798 225.462 34.1778 219.647 38.9022C219.647 38.9022 218.339 39.3833 218.524 40.5834C218.524 40.5834 219.02 40.315 219.495 41.2138C219.665 41.5333 219.88 41.8343 220.134 42.1101C220.476 42.4835 220.952 42.7505 221.489 42.8697V42.8697C221.489 42.8697 224.357 44.485 229.352 42.8697C229.352 42.8697 230.803 42.9735 231.022 42.8089L229.278 41.8519C229.278 41.8519 228.505 42.9684 227.269 43.1532C227.269 43.1532 229.281 41.9304 229.028 41.7C228.975 41.6518 228.077 41.2265 228.077 41.2265C228.077 41.2265 226.719 43.1634 224.809 43.3988C224.809 43.3988 227.436 42.2139 227.742 41.0645L226.339 40.5024C226.339 40.5024 225.023 42.6114 222.85 42.9482C222.85 42.9482 225.546 41.6291 226.021 40.396L224.553 39.9909C224.553 39.9909 223.222 42.0164 221.415 42.2949C221.415 42.2949 224.345 40.5024 224.208 39.9175C224.208 39.9175 222.835 39.6137 222.425 39.6846C222.425 39.6846 221.43 41.1252 220.363 41.2037C220.363 41.2037 222.173 39.8314 222.036 39.639C222.036 39.639 220.122 39.6517 219.157 40.0947C220.022 39.6501 221.008 39.4058 222.018 39.3858C221.579 39.0095 221.02 38.7507 220.411 38.6415C220.411 38.6415 221.436 38.2186 222.491 39.3858C222.491 39.3858 223.977 39.4289 224.176 39.558C224.176 39.558 223.335 38.2921 222.372 37.7705C222.372 37.7705 223.763 37.9072 224.568 39.6542L226.054 40.034C226.054 40.034 225.046 38.2971 224.226 37.7857C224.226 37.7857 225.623 38.1123 226.419 40.1555L227.801 40.7049C227.801 40.7049 227.067 39.1529 226.315 38.4262C226.315 38.4262 227.531 38.9655 228.205 40.8847L229.076 41.3455C229.076 41.3455 228.517 40.2188 228.321 39.9074C228.125 39.596 228.208 39.5276 228.208 39.5276C228.831 40.0854 229.26 40.7796 229.447 41.5329C229.447 41.5329 231.15 42.5633 231.236 42.4798Z" fill="#E73361"/>
<path d="M194.705 59.937C194.705 59.937 195.003 50.2906 187.137 51.6502C187.137 51.6502 185.728 51.4654 185.134 52.5642C185.134 52.5642 185.728 52.5642 185.562 53.539C185.507 53.8866 185.501 54.2384 185.544 54.5872C185.598 55.0603 185.833 55.5051 186.212 55.8531C186.212 55.8531 187.63 58.5217 192.863 59.4281C192.863 59.4281 194.025 60.175 194.316 60.1345L193.425 58.5344C193.425 58.5344 192.073 59.1268 190.911 58.7243C190.911 58.7243 193.377 58.6002 193.309 58.2913C193.309 58.228 192.798 57.4583 192.798 57.4583C192.798 57.4583 190.438 58.4837 188.67 57.8103C188.67 57.8103 191.642 58.0001 192.613 57.1672L191.784 56.0456C191.784 56.0456 189.354 57.2305 187.303 56.5317C187.303 56.5317 190.408 56.638 191.585 55.8101L190.596 54.7973C190.596 54.7973 188.198 55.9164 186.498 55.324C186.498 55.324 190.099 55.1391 190.361 54.5796C190.361 54.5796 189.386 53.701 188.994 53.5669C188.994 53.5669 187.253 54.3264 186.302 53.9163C186.302 53.9163 188.679 53.577 188.694 53.3516C188.694 53.3516 187.068 52.4933 185.972 52.43C186.983 52.4454 187.972 52.6864 188.839 53.1288C188.704 52.6113 188.394 52.1388 187.948 51.7692C187.948 51.7692 189.08 51.8781 189.235 53.339C189.235 53.339 190.474 54.053 190.554 54.2505C190.554 54.2505 190.64 52.7896 190.144 51.9186C190.144 51.9186 191.238 52.6655 190.827 54.5087L191.847 55.5063C191.847 55.5063 192.079 53.577 191.707 52.7744C191.707 52.7744 192.682 53.6833 192.082 55.7746L192.905 56.8659C192.905 56.8659 193.255 55.2176 193.068 54.2479C193.068 54.2479 193.758 55.2607 193.128 57.1874L193.579 57.9723C193.579 57.9723 193.808 56.7646 193.838 56.4127C193.867 56.0607 193.98 56.038 193.98 56.038C194.159 56.7932 194.088 57.576 193.775 58.2989C193.775 58.2989 194.575 59.9699 194.705 59.937Z" fill="#E73361"/>
<path opacity="0.1" d="M207.71 182.51C212.129 182.51 215.712 181.994 215.712 181.358C215.712 180.722 212.129 180.206 207.71 180.206C203.29 180.206 199.707 180.722 199.707 181.358C199.707 181.994 203.29 182.51 207.71 182.51Z" fill="#E73361"/>
<path opacity="0.1" d="M178.537 200C182.957 200 186.539 199.484 186.539 198.848C186.539 198.212 182.957 197.696 178.537 197.696C174.117 197.696 170.534 198.212 170.534 198.848C170.534 199.484 174.117 200 178.537 200Z" fill="#E73361"/>
<path opacity="0.1" d="M27.6784 191.04C32.0982 191.04 35.6811 190.524 35.6811 189.888C35.6811 189.251 32.0982 188.736 27.6784 188.736C23.2587 188.736 19.6758 189.251 19.6758 189.888C19.6758 190.524 23.2587 191.04 27.6784 191.04Z" fill="#E73361"/>
<path opacity="0.1" d="M239.236 198.848C243.656 198.848 247.239 198.332 247.239 197.696C247.239 197.06 243.656 196.544 239.236 196.544C234.816 196.544 231.233 197.06 231.233 197.696C231.233 198.332 234.816 198.848 239.236 198.848Z" fill="#E73361"/>
<path d="M247.568 184.801C254.167 184.801 259.517 184.03 259.517 183.079C259.517 182.129 254.167 181.358 247.568 181.358C240.969 181.358 235.619 182.129 235.619 183.079C235.619 184.03 240.969 184.801 247.568 184.801Z" fill="#E73361"/>
<g clip-path="url(#clip1)">
<path d="M123.317 62.5372C115.109 62.5372 108.465 68.2061 108.465 75.1986C108.465 82.1914 115.109 87.8559 123.317 87.8559C131.524 87.8559 138.177 82.1914 138.177 75.1984C138.177 68.2061 131.524 62.5372 123.317 62.5372ZM123.323 79.7555C120.37 79.7555 117.974 77.715 117.974 75.1981C117.974 72.6812 120.37 70.6407 123.323 70.6407C126.278 70.6407 128.672 72.6812 128.672 75.1981C128.672 77.715 126.278 79.7555 123.323 79.7555Z" fill="#EAB39C"/>
<path d="M136.12 71.9345C135.185 71.2304 134.418 69.7789 134.408 68.7124C134.399 67.646 133.384 66.6406 132.157 66.4814C130.927 66.3216 129.366 65.4597 128.687 64.5652C128.005 63.6707 126.523 63.296 125.387 63.734C124.253 64.17 122.396 64.17 121.262 63.734C120.127 63.296 118.642 63.6707 117.963 64.5652C117.283 65.4597 115.721 66.3218 114.491 66.4814C113.263 66.6409 112.25 67.646 112.24 68.7124C112.231 69.7789 111.46 71.2304 110.527 71.9345C109.593 72.6406 109.373 73.9572 110.037 74.8578C110.703 75.7604 110.967 77.3388 110.625 78.3665C110.283 79.3919 110.927 80.5996 112.054 81.052C113.18 81.5024 114.397 82.7081 114.756 83.7297C115.114 84.7511 116.417 85.4699 117.648 85.3266C118.879 85.1833 120.66 85.6317 121.607 86.3254C122.552 87.0171 124.098 87.0171 125.043 86.3254C125.988 85.6312 127.77 85.183 129.002 85.3266C130.234 85.4699 131.535 84.7516 131.895 83.7297C132.252 82.7081 133.469 81.5024 134.594 81.052C135.724 80.5996 136.367 79.3916 136.024 78.3665C135.681 77.3388 135.948 75.7604 136.61 74.8578C137.273 73.957 137.054 72.6406 136.12 71.9345V71.9345ZM123.324 79.2146C120.741 79.2146 118.647 77.416 118.647 75.1976C118.647 72.9791 120.741 71.1808 123.324 71.1808C125.907 71.1808 128.001 72.9791 128.001 75.1976C128.001 77.416 125.907 79.2146 123.324 79.2146Z" fill="#E73361"/>
<path d="M118.804 70.6805L117.396 69.7485C117.35 69.717 117.297 69.6936 117.24 69.6797C117.183 69.6658 117.124 69.6617 117.065 69.6676C117.006 69.6735 116.949 69.6893 116.898 69.714C116.846 69.7388 116.801 69.772 116.765 69.8118C116.729 69.8516 116.702 69.8971 116.687 69.9458C116.671 69.9944 116.667 70.0452 116.675 70.0951C116.683 70.145 116.702 70.1931 116.732 70.2366C116.762 70.2801 116.802 70.3181 116.849 70.3483L118.257 71.2803C118.303 71.3124 118.356 71.3363 118.413 71.3507C118.47 71.365 118.53 71.3695 118.589 71.3638C118.648 71.3581 118.706 71.3424 118.758 71.3176C118.809 71.2927 118.855 71.2593 118.891 71.2193C118.928 71.1792 118.955 71.1334 118.97 71.0844C118.985 71.0354 118.989 70.9843 118.981 70.9341C118.973 70.8839 118.953 70.8356 118.922 70.792C118.892 70.7485 118.851 70.7106 118.804 70.6805ZM132.653 77.7439C132.562 77.6792 132.445 77.6477 132.328 77.6565C132.21 77.6652 132.101 77.7134 132.025 77.7905L130.878 78.9542C130.841 78.9924 130.812 79.0365 130.795 79.0841C130.777 79.1317 130.771 79.1818 130.776 79.2314C130.781 79.2811 130.797 79.3295 130.824 79.3737C130.851 79.418 130.889 79.4572 130.933 79.4893C130.978 79.5213 131.03 79.5455 131.086 79.5605C131.142 79.5755 131.2 79.581 131.259 79.5766C131.317 79.5723 131.374 79.5582 131.426 79.5351C131.478 79.5121 131.524 79.4805 131.561 79.4423L132.708 78.2789C132.784 78.2018 132.821 78.1021 132.81 78.0018C132.8 77.9015 132.743 77.8087 132.653 77.7439V77.7439ZM132.202 70.0184C132.216 69.9699 132.218 69.9196 132.209 69.8704C132.199 69.8212 132.179 69.774 132.148 69.7315C132.118 69.6891 132.077 69.6522 132.03 69.6229C131.983 69.5937 131.929 69.5727 131.872 69.5612L130.137 69.2098C130.022 69.1865 129.901 69.203 129.801 69.2558C129.7 69.3086 129.628 69.3933 129.6 69.4913C129.573 69.5893 129.593 69.6924 129.655 69.7781C129.717 69.8638 129.816 69.9251 129.931 69.9486L131.665 70.3C131.722 70.3115 131.781 70.3134 131.839 70.3055C131.897 70.2976 131.952 70.2801 132.002 70.254C132.052 70.2278 132.095 70.1936 132.13 70.1532C132.164 70.1127 132.189 70.067 132.202 70.0184ZM118.365 81.699L116.593 81.8686C116.534 81.8728 116.476 81.8872 116.423 81.9108C116.37 81.9344 116.324 81.9667 116.286 82.006C116.248 82.0452 116.22 82.0905 116.203 82.1392C116.186 82.1879 116.181 82.239 116.187 82.2895C116.194 82.34 116.212 82.3888 116.242 82.4331C116.271 82.4773 116.31 82.5162 116.357 82.5473C116.404 82.5784 116.458 82.6011 116.516 82.6142C116.574 82.6272 116.634 82.6302 116.693 82.6231L118.464 82.4535C118.524 82.4492 118.582 82.4349 118.634 82.4113C118.687 82.3877 118.734 82.3553 118.772 82.3161C118.81 82.2769 118.838 82.2315 118.855 82.1828C118.872 82.1341 118.877 82.083 118.87 82.0326C118.864 81.9821 118.845 81.9333 118.816 81.889C118.787 81.8447 118.747 81.8059 118.7 81.7748C118.653 81.7437 118.599 81.7209 118.542 81.7079C118.484 81.6949 118.424 81.6919 118.365 81.699Z" fill="#F29C1F"/>
<path d="M113.517 75.9577C113.36 75.9577 113.208 76.0111 113.097 76.1061C112.985 76.2011 112.923 76.33 112.923 76.4643C112.923 76.5986 112.986 76.7274 113.097 76.8224C113.209 76.9174 113.36 76.9707 113.517 76.9707C113.596 76.9707 113.673 76.9575 113.745 76.9321C113.817 76.9066 113.883 76.8693 113.938 76.8222C113.993 76.7752 114.037 76.7193 114.067 76.6579C114.096 76.5964 114.112 76.5306 114.112 76.464C114.112 76.3975 114.096 76.3317 114.066 76.2702C114.037 76.2088 113.993 76.153 113.938 76.1059C113.882 76.0589 113.817 76.0216 113.745 75.9962C113.673 75.9707 113.595 75.9577 113.517 75.9577V75.9577ZM134.022 75.1984C133.864 75.1984 133.713 75.2518 133.601 75.3468C133.49 75.4418 133.427 75.5707 133.427 75.705C133.427 75.8393 133.49 75.9681 133.601 76.0631C133.713 76.1581 133.864 76.2114 134.022 76.2114C134.18 76.2113 134.331 76.1579 134.442 76.0629C134.554 75.9679 134.616 75.8391 134.616 75.7047C134.616 75.5704 134.553 75.4416 134.442 75.3466C134.33 75.2517 134.179 75.1983 134.022 75.1984V75.1984Z" fill="#FFC60A"/>
<path d="M132.182 73.5402C132.102 73.4662 131.99 73.4223 131.872 73.4181C131.754 73.414 131.639 73.45 131.552 73.5182L130.241 74.5474C130.158 74.6165 130.11 74.7104 130.107 74.8092C130.104 74.908 130.146 75.0039 130.224 75.0766C130.303 75.1493 130.412 75.193 130.527 75.1985C130.643 75.2041 130.757 75.171 130.845 75.1062L132.156 74.077C132.199 74.0432 132.234 74.0025 132.259 73.9573C132.283 73.912 132.297 73.863 132.3 73.8132C132.302 73.7633 132.293 73.7136 132.273 73.6667C132.252 73.6199 132.222 73.5769 132.182 73.5402V73.5402ZM113.849 71.4046C113.731 71.4132 113.622 71.4613 113.546 71.5383C113.47 71.6153 113.433 71.7149 113.443 71.8153L113.595 73.3291C113.598 73.3798 113.614 73.4293 113.64 73.4749C113.666 73.5204 113.703 73.561 113.748 73.5942C113.793 73.6275 113.845 73.6527 113.902 73.6684C113.959 73.6841 114.018 73.69 114.078 73.6856C114.137 73.6813 114.195 73.6669 114.248 73.6433C114.3 73.6196 114.347 73.5872 114.385 73.5479C114.422 73.5087 114.451 73.4634 114.467 73.4147C114.484 73.366 114.489 73.315 114.483 73.2645L114.331 71.7507C114.321 71.6504 114.265 71.5575 114.174 71.4926C114.084 71.4277 113.967 71.3961 113.849 71.4046V71.4046ZM120.352 83.0469C120.274 83.0469 120.196 83.06 120.124 83.0855C120.052 83.111 119.987 83.1483 119.931 83.1953C119.876 83.2424 119.833 83.2982 119.803 83.3597C119.773 83.4212 119.757 83.487 119.757 83.5535C119.757 83.6201 119.773 83.6859 119.803 83.7474C119.833 83.8088 119.876 83.8646 119.932 83.9116C119.987 83.9587 120.052 83.996 120.125 84.0214C120.197 84.0468 120.274 84.0599 120.352 84.0599C120.51 84.0599 120.661 84.0065 120.772 83.9115C120.884 83.8165 120.946 83.6876 120.946 83.5533C120.946 83.4189 120.884 83.2901 120.772 83.1952C120.661 83.1002 120.509 83.0469 120.352 83.0469V83.0469ZM121.54 68.1091C121.462 68.1091 121.385 68.1223 121.313 68.1477C121.241 68.1732 121.175 68.2105 121.12 68.2576C121.065 68.3046 121.021 68.3605 120.991 68.4219C120.961 68.4834 120.946 68.5492 120.946 68.6158C120.946 68.6823 120.962 68.7481 120.991 68.8096C121.021 68.871 121.065 68.9268 121.12 68.9739C121.176 69.0209 121.241 69.0582 121.313 69.0836C121.385 69.1091 121.463 69.1221 121.541 69.1221C121.698 69.1221 121.85 69.0687 121.961 68.9737C122.073 68.8787 122.135 68.7498 122.135 68.6155C122.135 68.4812 122.072 68.3524 121.961 68.2574C121.849 68.1624 121.698 68.1091 121.54 68.1091V68.1091Z" fill="#56C1A6"/>
<path d="M115.979 78.0437L114.832 79.2074C114.756 79.2846 114.719 79.3843 114.729 79.4846C114.74 79.585 114.796 79.6777 114.887 79.7425C114.977 79.8072 115.095 79.8386 115.212 79.8298C115.33 79.821 115.439 79.7727 115.515 79.6955L116.661 78.5321C116.7 78.4941 116.73 78.4498 116.748 78.4019C116.767 78.354 116.774 78.3035 116.769 78.2532C116.765 78.2029 116.748 78.1539 116.721 78.1091C116.694 78.0642 116.657 78.0244 116.611 77.992C116.566 77.9596 116.514 77.9352 116.457 77.9202C116.401 77.9052 116.341 77.9 116.282 77.9048C116.223 77.9096 116.166 77.9244 116.114 77.9482C116.062 77.9721 116.016 78.0045 115.979 78.0437V78.0437ZM124.225 67.6585C124.274 67.6305 124.315 67.5946 124.347 67.5529C124.379 67.5112 124.401 67.4645 124.412 67.4156C124.423 67.3666 124.423 67.3163 124.411 67.2675C124.399 67.2186 124.376 67.1723 124.343 67.1311L123.34 65.8753C123.272 65.7951 123.17 65.7407 123.055 65.7236C122.941 65.7065 122.823 65.7281 122.727 65.7837C122.631 65.8394 122.564 65.9247 122.541 66.0216C122.518 66.1185 122.54 66.2193 122.602 66.3027L123.605 67.5585C123.672 67.6416 123.775 67.6988 123.891 67.7176C124.007 67.7363 124.127 67.7151 124.225 67.6585V67.6585ZM123.918 83.0469C123.84 83.047 123.763 83.0601 123.691 83.0856C123.619 83.111 123.553 83.1483 123.498 83.1954C123.443 83.2424 123.399 83.2983 123.369 83.3597C123.339 83.4212 123.324 83.4871 123.324 83.5536C123.324 83.6201 123.34 83.686 123.369 83.7474C123.399 83.8088 123.443 83.8647 123.498 83.9117C123.554 83.9587 123.619 83.996 123.691 84.0214C123.763 84.0469 123.841 84.06 123.919 84.06C124.076 84.0599 124.228 84.0065 124.339 83.9115C124.451 83.8165 124.513 83.6877 124.513 83.5533C124.513 83.419 124.45 83.2902 124.339 83.1952C124.227 83.1002 124.076 83.0469 123.918 83.0469V83.0469ZM118.57 79.2491C118.412 79.2492 118.261 79.3026 118.149 79.3976C118.038 79.4926 117.975 79.6214 117.975 79.7558C117.975 79.8901 118.038 80.0189 118.149 80.1139C118.261 80.2088 118.412 80.2622 118.57 80.2621C118.727 80.2621 118.879 80.2087 118.99 80.1137C119.102 80.0187 119.164 79.8898 119.164 79.7555C119.164 79.6212 119.101 79.4924 118.99 79.3974C118.878 79.3024 118.727 79.2491 118.57 79.2491V79.2491ZM118.272 67.6028C118.272 67.5363 118.257 67.4704 118.227 67.409C118.197 67.3475 118.153 67.2917 118.098 67.2447C118.043 67.1977 117.977 67.1604 117.905 67.1349C117.833 67.1095 117.756 67.0964 117.678 67.0964C117.6 67.0964 117.522 67.1096 117.45 67.135C117.378 67.1605 117.313 67.1978 117.257 67.2449C117.202 67.2919 117.158 67.3478 117.129 67.4092C117.099 67.4707 117.083 67.5365 117.083 67.603C117.083 67.7373 117.146 67.8661 117.258 67.9611C117.369 68.056 117.52 68.1093 117.678 68.1093C117.835 68.1093 117.987 68.0559 118.098 67.9609C118.21 67.8659 118.272 67.7371 118.272 67.6028H118.272ZM130.159 71.4006C130.081 71.4006 130.004 71.4137 129.931 71.4392C129.859 71.4647 129.794 71.502 129.739 71.549C129.683 71.5961 129.64 71.6519 129.61 71.7134C129.58 71.7748 129.565 71.8407 129.565 71.9072C129.565 71.9737 129.58 72.0396 129.61 72.101C129.64 72.1625 129.684 72.2183 129.739 72.2653C129.794 72.3124 129.86 72.3497 129.932 72.3751C130.004 72.4005 130.081 72.4136 130.159 72.4136C130.317 72.4136 130.468 72.3602 130.58 72.2652C130.691 72.1702 130.754 72.0413 130.754 71.907C130.754 71.7726 130.691 71.6438 130.579 71.5489C130.468 71.4539 130.317 71.4006 130.159 71.4006V71.4006Z" fill="#FBF063"/>
<path d="M130.159 81.7809C130.001 81.781 129.85 81.8344 129.738 81.9294C129.627 82.0244 129.564 82.1532 129.564 82.2876C129.564 82.4219 129.627 82.5507 129.739 82.6457C129.85 82.7407 130.001 82.794 130.159 82.7939C130.237 82.7939 130.314 82.7808 130.386 82.7553C130.459 82.7299 130.524 82.6926 130.579 82.6455C130.634 82.5985 130.678 82.5426 130.708 82.4812C130.738 82.4197 130.753 82.3538 130.753 82.2873C130.753 82.2208 130.738 82.1549 130.708 82.0935C130.678 82.0321 130.634 81.9762 130.579 81.9292C130.524 81.8822 130.458 81.8449 130.386 81.8195C130.314 81.794 130.237 81.7809 130.159 81.7809V81.7809ZM126.296 68.6155C126.138 68.6155 125.987 68.6688 125.875 68.7638C125.764 68.8588 125.701 68.9876 125.701 69.1219C125.701 69.2562 125.764 69.3849 125.875 69.4799C125.987 69.5749 126.138 69.6282 126.296 69.6282C126.453 69.6282 126.604 69.5749 126.716 69.4799C126.827 69.3849 126.89 69.2562 126.89 69.1219C126.89 68.9876 126.827 68.8588 126.716 68.7638C126.604 68.6688 126.453 68.6155 126.296 68.6155Z" fill="#F57E20"/>
<path d="M127.026 81.2994C127.014 81.2501 126.991 81.2034 126.958 81.1619C126.925 81.1205 126.882 81.0852 126.832 81.0582C126.782 81.0312 126.727 81.0131 126.669 81.0049C126.611 80.9967 126.551 80.9986 126.494 81.0105C126.376 81.0343 126.274 81.0959 126.208 81.1825C126.142 81.2691 126.118 81.374 126.141 81.4754L126.498 82.9821C126.509 83.0313 126.533 83.0781 126.566 83.1196C126.599 83.1611 126.642 83.1964 126.691 83.2234C126.741 83.2504 126.797 83.2686 126.855 83.2768C126.913 83.285 126.973 83.2831 127.03 83.2712C127.148 83.2475 127.25 83.1859 127.316 83.0993C127.382 83.0128 127.406 82.9079 127.383 82.8066L127.026 81.2994V81.2994ZM129.267 78.2363C129.189 78.2363 129.112 78.2495 129.04 78.2749C128.968 78.3004 128.902 78.3377 128.847 78.3848C128.792 78.4318 128.748 78.4877 128.718 78.5491C128.688 78.6106 128.673 78.6764 128.673 78.743C128.673 78.8095 128.688 78.8753 128.718 78.9368C128.748 78.9982 128.792 79.054 128.847 79.1011C128.902 79.1481 128.968 79.1854 129.04 79.2108C129.112 79.2363 129.189 79.2493 129.268 79.2493C129.425 79.2493 129.576 79.1959 129.688 79.1009C129.799 79.0059 129.862 78.877 129.862 78.7427C129.862 78.6084 129.799 78.4796 129.688 78.3846C129.576 78.2896 129.425 78.2363 129.267 78.2363V78.2363ZM116.192 74.1856C116.114 74.1856 116.037 74.1987 115.965 74.2242C115.892 74.2497 115.827 74.287 115.772 74.334C115.716 74.3811 115.673 74.4369 115.643 74.4984C115.613 74.5598 115.598 74.6257 115.598 74.6922C115.598 74.7587 115.613 74.8246 115.643 74.886C115.673 74.9475 115.717 75.0033 115.772 75.0503C115.827 75.0974 115.893 75.1346 115.965 75.1601C116.037 75.1855 116.114 75.1986 116.192 75.1986C116.35 75.1986 116.501 75.1452 116.613 75.0502C116.724 74.9551 116.787 74.8263 116.787 74.692C116.787 74.5576 116.724 74.4288 116.612 74.3339C116.501 74.2389 116.35 74.1856 116.192 74.1856V74.1856ZM122.135 81.0214C121.978 81.0214 121.826 81.0748 121.715 81.1698C121.604 81.2648 121.541 81.3937 121.541 81.528C121.541 81.6623 121.604 81.7912 121.715 81.8861C121.827 81.9811 121.978 82.0344 122.136 82.0344C122.293 82.0344 122.444 81.981 122.556 81.8859C122.667 81.7909 122.73 81.6621 122.73 81.5278C122.73 81.3934 122.667 81.2646 122.556 81.1696C122.444 81.0747 122.293 81.0214 122.135 81.0214V81.0214ZM127.781 66.3368C127.703 66.3368 127.626 66.3499 127.554 66.3754C127.482 66.4009 127.416 66.4382 127.361 66.4852C127.306 66.5323 127.262 66.5881 127.232 66.6496C127.202 66.711 127.187 66.7769 127.187 66.8434C127.187 66.9099 127.203 66.9758 127.232 67.0372C127.262 67.0987 127.306 67.1545 127.361 67.2015C127.417 67.2486 127.482 67.2858 127.554 67.3113C127.626 67.3367 127.704 67.3498 127.782 67.3498C127.939 67.3498 128.091 67.2964 128.202 67.2014C128.313 67.1063 128.376 66.9775 128.376 66.8432C128.376 66.7088 128.313 66.58 128.202 66.4851C128.09 66.3901 127.939 66.3368 127.781 66.3368V66.3368ZM134.022 72.1601C133.864 72.1601 133.713 72.2135 133.602 72.3085C133.49 72.4035 133.428 72.5324 133.428 72.6667C133.428 72.8011 133.49 72.9299 133.602 73.0248C133.713 73.1198 133.865 73.1731 134.022 73.1731C134.18 73.1731 134.331 73.1197 134.443 73.0247C134.554 72.9296 134.617 72.8008 134.617 72.6665C134.616 72.5321 134.554 72.4033 134.442 72.3084C134.331 72.2134 134.18 72.1601 134.022 72.1601V72.1601Z" fill="#6AC9F2"/>
<path d="M123.911 87.3496C115.703 87.3496 109.059 81.685 109.059 74.6923C109.059 71.3226 110.605 68.2626 113.122 65.994C110.256 68.3026 108.465 71.5712 108.465 75.1986C108.465 82.1914 115.109 87.856 123.317 87.856C127.573 87.856 131.408 86.3303 134.118 83.888C131.455 86.0328 127.865 87.3496 123.911 87.3496Z" fill="#D3896D"/>
<path d="M128.298 74.9445C128.298 72.7261 126.204 70.9277 123.621 70.9277C122.261 70.9277 121.04 71.4297 120.185 72.226C121.016 71.5786 122.115 71.1809 123.324 71.1809C125.907 71.1809 128.001 72.9792 128.001 75.1977C128.001 76.2476 127.528 77.2006 126.76 77.9161C127.245 77.5393 127.633 77.0803 127.898 76.5686C128.162 76.0569 128.299 75.5037 128.298 74.9445V74.9445ZM110.825 71.6814C111.758 70.9773 112.528 69.5258 112.538 68.4593C112.543 67.9266 112.798 67.4094 113.205 67.005C112.629 67.4319 112.247 68.0601 112.241 68.7125C112.233 69.6749 111.604 70.9492 110.795 71.7065L110.825 71.6814V71.6814ZM118.261 64.3119C118.316 64.2385 118.379 64.1699 118.445 64.1035C118.259 64.2362 118.096 64.3917 117.963 64.5651C117.844 64.719 117.71 64.864 117.562 64.9985C117.841 64.7798 118.082 64.5471 118.261 64.3119ZM134.891 80.7989C134.395 80.9977 133.882 81.343 133.432 81.7547C133.804 81.4562 134.204 81.2083 134.594 81.0521C134.917 80.923 135.197 80.7308 135.429 80.5007C135.266 80.6199 135.085 80.7202 134.891 80.7989V80.7989ZM129.299 85.0735C128.067 84.9302 126.285 85.3786 125.34 86.0723C124.395 86.764 122.849 86.764 121.904 86.0723C120.957 85.3781 119.176 84.9299 117.945 85.0735C116.714 85.217 115.412 84.4985 115.053 83.4766C114.694 82.4548 113.478 81.2493 112.351 80.7989C111.224 80.3465 110.58 79.1388 110.923 78.1134C111.264 77.0857 111 75.5073 110.335 74.6047C109.723 73.7748 109.864 72.5924 110.62 71.8594L110.527 71.9346C109.594 72.6407 109.374 73.9573 110.038 74.8579C110.703 75.7605 110.967 77.3389 110.626 78.3666C110.284 79.392 110.927 80.5997 112.054 81.0521C113.181 81.5025 114.397 82.7082 114.756 83.7298C115.115 84.7512 116.417 85.47 117.648 85.3267C118.879 85.1834 120.661 85.6318 121.607 86.3255C122.552 87.0172 124.098 87.0172 125.043 86.3255C125.988 85.6313 127.77 85.1831 129.002 85.3267C129.885 85.429 130.801 85.0884 131.383 84.5117C130.811 84.9309 130.043 85.1601 129.299 85.0735Z" fill="#854D9B"/>
</g>
<path d="M252.522 180.262C253.067 179.884 253.464 179.373 253.66 178.798C253.809 178.216 253.517 177.52 252.867 177.307C252.136 177.069 251.354 177.499 250.76 177.935C250.165 178.37 249.491 178.869 248.715 178.778C249.113 178.47 249.411 178.079 249.58 177.644C249.749 177.209 249.782 176.744 249.678 176.294C249.644 176.108 249.552 175.933 249.411 175.788C249.003 175.418 248.269 175.578 247.782 175.869C246.237 176.795 245.806 178.583 245.797 180.193C245.642 179.613 245.773 179.008 245.77 178.421C245.767 177.833 245.574 177.155 244.983 176.846C244.62 176.674 244.21 176.586 243.794 176.593C243.099 176.573 242.323 176.631 241.851 177.064C241.256 177.601 241.414 178.504 241.925 179.089C242.436 179.674 243.218 180.051 243.937 180.462C244.512 180.754 245.004 181.153 245.375 181.629C245.417 181.695 245.452 181.765 245.479 181.836H249.835C250.811 181.418 251.715 180.888 252.522 180.262V180.262Z" fill="#E73361"/>
<path d="M22.3047 184.533C22.3047 184.533 26.8662 184.414 28.248 183.578C29.6298 182.743 35.27 181.748 35.6118 183.087C35.9535 184.426 42.4703 189.743 37.3175 189.779C32.1646 189.814 25.3447 189.095 23.9718 188.381C22.5989 187.667 22.3047 184.533 22.3047 184.533Z" fill="#A8A8A8"/>
<path opacity="0.2" d="M37.4036 189.313C32.2508 189.348 25.4309 188.629 24.058 187.915C23.0119 187.374 22.5959 185.427 22.4562 184.528H22.3047C22.3047 184.528 22.6019 187.665 23.9658 188.376C25.3298 189.088 32.1587 189.809 37.3115 189.774C38.7974 189.774 39.3114 189.313 39.2847 188.645C39.0767 189.052 38.5091 189.305 37.4036 189.313Z" fill="black"/>
</g>
<defs>
<linearGradient id="paint0_linear" x1="66.2644" y1="109.736" x2="159.019" y2="109.736" gradientUnits="userSpaceOnUse">
<stop stop-color="#808080" stop-opacity="0.25"/>
<stop offset="0.54" stop-color="#808080" stop-opacity="0.12"/>
<stop offset="1" stop-color="#808080" stop-opacity="0.1"/>
</linearGradient>
<clipPath id="clip0">
<rect width="300" height="200" fill="white"/>
</clipPath>
<clipPath id="clip1">
<rect x="108.465" y="62.5372" width="29.7135" height="25.3187" fill="white"/>
</clipPath>
</defs>
</svg>
