<svg width="300" height="181" viewBox="0 0 300 181" fill="none" xmlns="http://www.w3.org/2000/svg">
<path d="M150 22.3773C156.75 22.3773 162.222 18.0131 162.222 12.6296C162.222 7.24605 156.75 2.88184 150 2.88184C143.249 2.88184 137.777 7.24605 137.777 12.6296C137.777 18.0131 143.249 22.3773 150 22.3773Z" fill="#FAF0F0"/>
<path d="M203.704 35.9653C205.954 35.9653 207.778 34.5106 207.778 32.716C207.778 30.9215 205.954 29.4668 203.704 29.4668C201.454 29.4668 199.63 30.9215 199.63 32.716C199.63 34.5106 201.454 35.9653 203.704 35.9653Z" fill="#FAF0F0"/>
<path d="M203.704 61.6639C205.954 61.6639 207.778 60.2092 207.778 58.4146C207.778 56.6201 205.954 55.1654 203.704 55.1654C201.454 55.1654 199.63 56.6201 199.63 58.4146C199.63 60.2092 201.454 61.6639 203.704 61.6639Z" fill="#FAF0F0"/>
<path d="M244.446 68.1623C246.696 68.1623 248.52 66.7076 248.52 64.9131C248.52 63.1186 246.696 61.6638 244.446 61.6638C242.196 61.6638 240.372 63.1186 240.372 64.9131C240.372 66.7076 242.196 68.1623 244.446 68.1623Z" fill="#FAF0F0"/>
<path d="M150 181C232.843 181 300 178.355 300 175.092C300 171.83 232.843 169.185 150 169.185C67.1573 169.185 0 171.83 0 175.092C0 178.355 67.1573 181 150 181Z" fill="#FAF0F0"/>
<path d="M237.747 79.1378C236.045 76.8998 230.102 76.9576 230.102 76.9576C224.692 83.3692 211.686 76.5585 211.686 76.5585C202.025 80.0053 196.131 69.0211 196.131 69.0211C183.133 67.471 185.141 56.5834 185.141 56.5834C178.674 55.5479 180.489 46.2231 180.489 46.2231C180.489 46.2231 184.077 43.8758 182.311 42.1587C181.189 41.0671 181.119 37.9341 181.217 35.7954C172.778 33.7485 164.006 32.7108 155.185 32.7161C105.889 32.7161 65.9258 64.5881 65.9258 103.904C65.9258 143.22 105.889 175.092 155.185 175.092C204.482 175.092 244.444 143.22 244.444 103.904C244.455 95.3628 242.534 86.89 238.773 78.8925C238.315 79.3049 237.96 79.4183 237.747 79.1378Z" fill="#3F3D56"/>
<path opacity="0.1" d="M237.747 79.1378C236.045 76.8998 230.102 76.9576 230.102 76.9576C224.692 83.3692 211.686 76.5585 211.686 76.5585C202.025 80.0053 196.131 69.0211 196.131 69.0211C183.133 67.471 185.141 56.5834 185.141 56.5834C178.674 55.5479 180.489 46.2231 180.489 46.2231C180.489 46.2231 184.077 43.8758 182.311 42.1587C181.189 41.0671 181.119 37.9341 181.217 35.7954C172.778 33.7485 164.006 32.7108 155.185 32.7161C105.889 32.7161 65.9258 64.5881 65.9258 103.904C65.9258 143.22 105.889 175.092 155.185 175.092C204.482 175.092 244.444 143.22 244.444 103.904C244.455 95.3628 242.534 86.89 238.773 78.8925C238.315 79.3049 237.96 79.4183 237.747 79.1378Z" fill="#FAF0F0"/>
<path d="M232.456 78.8566C230.838 76.7282 225.186 76.7831 225.186 76.7831C220.04 82.8808 207.67 76.4036 207.67 76.4036C198.483 79.6817 192.878 69.2352 192.878 69.2352C180.516 67.7609 182.426 57.4063 182.426 57.4063C176.275 56.4215 178.001 47.5531 178.001 47.5531C178.001 47.5531 181.414 45.3208 179.734 43.6877C178.667 42.6495 178.6 39.6699 178.694 37.6358C170.668 35.6892 162.325 34.7023 153.936 34.7073C107.052 34.7073 69.0459 65.0192 69.0459 102.411C69.0459 139.802 107.052 170.114 153.936 170.114C200.819 170.114 238.826 139.802 238.826 102.411C238.836 94.2874 237.009 86.2293 233.432 78.6234C232.996 79.0155 232.659 79.1233 232.456 78.8566Z" fill="#FAF0F0"/>
<path d="M143.801 74.7311C143.801 74.7311 129.162 67.3015 115.188 74.7311C110.298 77.3315 107.852 81.037 106.74 84.7555C104.762 91.3671 106.931 98.3373 112.221 103.667L143.833 135.513C144.917 136.622 146.371 137.466 148.028 137.948C149.685 138.429 151.478 138.529 153.203 138.236C153.271 138.224 153.34 138.211 153.41 138.198C154.659 137.953 155.832 137.506 156.856 136.886C157.881 136.265 158.735 135.484 159.367 134.591L181.352 103.8C185.419 98.1922 187.086 91.6811 186.101 85.2509C185.07 78.9185 181.257 72.2435 170.417 69.9549C170.417 69.9549 157.774 65.7094 143.801 74.7311Z" fill="#E73361"/>
<path opacity="0.1" d="M143.801 74.7311C143.801 74.7311 129.162 67.3015 115.188 74.7311C110.298 77.3315 107.852 81.037 106.74 84.7555C104.762 91.3671 106.931 98.3373 112.221 103.667L143.833 135.513C144.917 136.622 146.371 137.466 148.028 137.948C149.685 138.429 151.478 138.529 153.203 138.236C153.271 138.224 153.34 138.211 153.41 138.198C154.659 137.953 155.832 137.506 156.856 136.886C157.881 136.265 158.735 135.484 159.367 134.591L181.352 103.8C185.419 98.1922 187.086 91.6811 186.101 85.2509C185.07 78.9185 181.257 72.2435 170.417 69.9549C170.417 69.9549 157.774 65.7094 143.801 74.7311Z" fill="black"/>
<path d="M143.951 76.5241C143.951 76.5241 130.219 69.5547 117.111 76.5241C112.523 78.9634 110.229 82.4395 109.185 85.9277C107.33 92.1298 109.365 98.6683 114.327 103.668L143.981 133.542C144.998 134.582 146.362 135.374 147.916 135.826C149.47 136.277 151.153 136.371 152.771 136.096C152.835 136.085 152.9 136.073 152.965 136.06C154.137 135.83 155.237 135.412 156.198 134.83C157.159 134.248 157.961 133.515 158.553 132.676L179.176 103.792C182.992 98.5323 184.555 92.4244 183.631 86.3924C182.664 80.4522 179.088 74.1906 168.919 72.0438C168.919 72.0438 157.059 68.0612 143.951 76.5241Z" fill="#E73361"/>
<path opacity="0.1" d="M144.484 88.4746C144.484 88.4746 137.803 85.0837 131.426 88.4746C129.445 89.5433 128.063 91.1837 127.57 93.0496C127.143 94.5456 127.146 96.0992 127.579 97.594C128.013 99.0887 128.865 100.486 130.071 101.681C130.071 101.681 147.176 117.744 148.775 117.458C148.807 117.452 148.838 117.447 148.87 117.441C150.022 117.22 161.622 101.741 161.622 101.741C163.478 99.1821 164.239 96.2104 163.79 93.2757C163.319 90.3857 161.579 87.3392 156.632 86.2947C156.632 86.2947 150.862 84.3571 144.484 88.4746Z" fill="black"/>
<path opacity="0.1" d="M102.752 113.86L104.625 116.35L108.369 121.328L109.618 124.812L107.121 127.799L110.242 133.773L111.49 137.258L108.994 139.249L113.987 142.236" fill="black"/>
<path opacity="0.1" d="M194.507 91.9563V95.939L191.386 102.411L189.514 105.895L192.635 110.376L193.883 113.363L198.877 114.856L200.749 117.345V123.319" fill="black"/>
<path opacity="0.1" d="M226.344 95.9391L221.35 98.4282C221.35 98.4282 218.854 99.4238 218.854 99.9216V103.904" fill="black"/>
<path opacity="0.1" d="M203.87 82.0001L205.118 86.9783L203.87 90.4632" fill="black"/>
<path opacity="0.1" d="M208.864 126.804L205.119 131.284L200.75 134.271V136.262L203.247 138.751V141.738L201.374 144.725" fill="black"/>
<path opacity="0.1" d="M173.286 42.1744H167.045L162.051 45.6591L153.936 49.1438L150.191 51.633V52.6288L142.077 56.1134L139.58 59.5981" fill="black"/>
<path opacity="0.1" d="M105.874 50.6375L100.256 59.5982L98.3834 63.0829L94.0141 67.5633C94.0141 67.5633 90.8931 72.0437 90.2689 72.5415C89.6447 73.0393 85.2754 74.035 85.2754 74.035L91.5173 79.0131" fill="black"/>
<path opacity="0.1" d="M80.9053 84.9869L79.6568 91.4586L80.9053 95.4413V102.411L77.1602 115.354L80.9053 118.839L85.2746 123.319" fill="black"/>
<path opacity="0.1" d="M90.2705 87.974L94.0157 89.4675L96.5124 95.9391L101.506 94.9434L104.003 98.4283" fill="black"/>
<path opacity="0.1" d="M158.93 152.69L168.917 151.695L173.286 148.21H179.528" fill="#FAF0F0"/>
<path opacity="0.1" d="M98.3857 142.236L102.131 145.721L108.373 147.214L112.742 148.21L113.991 153.686" fill="black"/>
<path opacity="0.1" d="M172.039 125.31L176.409 122.821L178.281 118.839L182.026 118.341L183.899 113.363" fill="black"/>
<path d="M59.9396 0.223511H70.3908C73.6905 0.223511 76.8551 1.26893 79.1883 3.1298C81.5216 4.99067 82.8324 7.51456 82.8324 10.1462V28.4042H47.498V10.1462C47.498 8.84316 47.8199 7.55285 48.4451 6.34897C49.0704 5.14509 49.9868 4.05122 51.1421 3.12981C52.2974 2.2084 53.669 1.4775 55.1784 0.978832C56.6879 0.480168 58.3058 0.223511 59.9396 0.223511V0.223511Z" fill="#2F2E41"/>
<path d="M70.6719 156.802C70.6719 156.802 69.5608 162.415 67.709 163.301C65.8571 164.187 77.3386 166.255 77.3386 166.255L79.1905 157.393L70.6719 156.802Z" fill="#FBBEBE"/>
<path d="M84.3735 92.7036L88.4476 96.5436L86.5957 109.836L85.1143 136.125C85.1143 136.125 88.0772 158.87 85.1143 159.461C82.1513 160.052 68.818 159.756 69.1883 158.279C69.5587 156.802 69.9291 155.621 70.6698 153.553C71.4106 151.486 69.9291 144.101 69.9291 144.101L71.7809 135.83L65.1143 100.088L84.3735 92.7036Z" fill="#2F2E41"/>
<path d="M71.0398 162.415C71.0398 162.415 66.9658 161.824 66.5954 162.415C66.225 163.006 59.188 169.209 58.0769 169.209C56.9658 169.209 48.8176 175.116 57.3361 175.412C65.8547 175.707 79.9287 170.39 79.9287 170.39C79.9287 170.39 77.8575 162.874 77.9672 163.235C78.0769 163.596 71.0398 163.892 71.0398 162.415Z" fill="#2F2E41"/>
<path d="M66.5967 148.827C66.5967 148.827 76.9671 157.984 77.3374 158.87C77.7078 159.756 83.2633 158.87 83.2633 158.87L85.4856 152.962L83.6337 150.895L73.2633 144.101L66.5967 148.827Z" fill="#FBBEBE"/>
<path d="M81.4094 155.621L76.0391 159.652C76.0391 159.652 82.8909 168.027 82.8909 168.913C82.8909 169.799 83.2613 177.184 86.965 176.002C90.6687 174.821 91.0391 163.005 91.0391 163.005C91.0391 163.005 90.6687 150.895 88.4465 150.008C86.2243 149.122 81.3537 149.402 81.3537 149.402C81.3537 149.402 84.3724 155.325 81.4094 155.621Z" fill="#2F2E41"/>
<path d="M50.6711 66.4141C50.6711 66.4141 48.8192 71.1403 48.4489 72.3219C48.0785 73.5034 45.8563 76.7527 45.8563 81.7742C45.8563 86.7958 46.597 92.7035 45.8563 93.2943C45.1155 93.8851 33.2637 126.968 38.4489 130.513C43.6341 134.058 60.6711 145.873 61.7822 147.35C62.8933 148.827 63.2637 152.372 65.4859 151.781C67.7081 151.19 76.2266 145.282 76.597 144.101C76.9674 142.919 71.7822 140.852 71.7822 140.852C71.7822 140.852 61.4118 128.741 58.8192 129.036C56.2266 129.331 56.597 127.559 56.9674 126.673C57.3378 125.787 58.0785 125.196 56.9674 125.196C55.8563 125.196 56.597 122.833 56.9674 121.651C57.3378 120.47 65.8563 104.519 65.8563 104.519L88.4489 96.5436C88.4489 96.5436 87.3378 74.9803 79.1896 69.0726L77.3378 65.528C77.3378 65.528 56.597 64.3464 50.6711 66.4141Z" fill="#2F2E41"/>
<path d="M59.9282 19.743C59.9282 19.743 61.7801 30.0816 57.3356 30.6723C52.8912 31.2631 49.1875 30.9677 49.1875 31.2631C49.1875 31.5585 60.2986 40.7155 60.2986 40.7155L70.669 40.1247L79.9282 32.1493C79.9282 32.1493 71.4097 30.9677 71.4097 26.8323C71.4097 22.6969 71.0394 19.743 71.0394 19.743H59.9282Z" fill="#FBBEBE"/>
<path opacity="0.1" d="M59.9282 19.743C59.9282 19.743 61.7801 30.0816 57.3356 30.6723C52.8912 31.2631 49.1875 30.9677 49.1875 31.2631C49.1875 31.5585 60.2986 40.7155 60.2986 40.7155L70.669 40.1247L79.9282 32.1493C79.9282 32.1493 71.4097 30.9677 71.4097 26.8323C71.4097 22.6969 71.0394 19.743 71.0394 19.743H59.9282Z" fill="black"/>
<path d="M65.6709 24.0262C72.012 24.0262 77.1524 19.9265 77.1524 14.8693C77.1524 9.812 72.012 5.71228 65.6709 5.71228C59.3299 5.71228 54.1895 9.812 54.1895 14.8693C54.1895 19.9265 59.3299 24.0262 65.6709 24.0262Z" fill="#FBBEBE"/>
<path d="M55.4844 29.7863C55.4844 29.7863 41.0399 31.2632 39.9288 35.1032C38.8177 38.9432 47.3362 62.8695 48.4473 64.9373C49.5584 67.005 49.1881 68.4819 49.1881 68.4819C50.8639 67.4823 52.7888 66.7806 54.8331 66.4239C56.8774 66.0672 58.9938 66.0639 61.0399 66.4142C68.077 67.5957 78.077 67.005 78.077 67.005C78.077 67.005 81.4103 56.0757 82.151 54.8941C82.8918 53.7126 85.8547 47.2141 85.8547 45.4417C85.8547 43.6694 90.2992 36.2848 90.2992 36.2848C90.2992 36.2848 88.077 30.9678 79.9288 31.2632C79.9288 31.2632 76.3747 29.9945 75.374 30.9242C74.3733 31.854 68.8177 35.9894 61.7807 34.2171C54.7436 32.4447 55.4844 29.7863 55.4844 29.7863Z" fill="#FF6584"/>
<path d="M44.0023 34.8077H39.9283L37.7061 58.1433C37.7061 58.1433 45.8542 59.9156 46.9653 58.7341C48.0764 57.5525 44.0023 34.8077 44.0023 34.8077Z" fill="#FF6584"/>
<path d="M83.2617 34.8077L90.2988 36.2847C90.2988 36.2847 95.4839 51.3494 95.8543 51.6448C96.2247 51.9402 96.5951 53.7125 96.5951 53.7125C96.5951 53.7125 96.5951 54.0079 97.3358 54.894C98.0765 55.7802 99.1876 55.1894 98.4469 56.371C97.7062 57.5525 96.5951 56.9617 97.3358 58.1433C98.0765 59.3248 97.7062 62.5741 97.7062 62.5741C97.7062 62.5741 95.8543 56.9617 89.1876 58.4387L84.7432 42.4878L83.2617 34.8077Z" fill="#FF6584"/>
<path d="M74.6347 12.6422H56.7947L52.7559 5.23865H77.664L74.6347 12.6422Z" fill="#2F2E41"/>
<path d="M54.4541 18.0595C54.9306 17.9493 55.0184 17.0385 54.6502 16.025C54.282 15.0115 53.5972 14.2792 53.1206 14.3893C52.6441 14.4995 52.5563 15.4103 52.9245 16.4238C53.2928 17.4373 53.9776 18.1696 54.4541 18.0595Z" fill="#FFB9B9"/>
<path d="M78.5887 16.4237C78.9569 15.4103 78.8691 14.4994 78.3926 14.3893C77.9161 14.2791 77.2313 15.0114 76.863 16.0249C76.4948 17.0384 76.5826 17.9493 77.0591 18.0594C77.5357 18.1695 78.2205 17.4372 78.5887 16.4237Z" fill="#FFB9B9"/>
<path d="M75.5563 55.4607C79.2382 55.4607 82.223 53.0802 82.223 50.1437C82.223 47.2073 79.2382 44.8268 75.5563 44.8268C71.8744 44.8268 68.8896 47.2073 68.8896 50.1437C68.8896 53.0802 71.8744 55.4607 75.5563 55.4607Z" fill="#3F3D56"/>
<path opacity="0.1" d="M75.5563 55.4607C79.2382 55.4607 82.223 53.0802 82.223 50.1437C82.223 47.2073 79.2382 44.8268 75.5563 44.8268C71.8744 44.8268 68.8896 47.2073 68.8896 50.1437C68.8896 53.0802 71.8744 55.4607 75.5563 55.4607Z" fill="black"/>
<path d="M75.5553 54.9334C78.8721 54.9334 81.5608 52.789 81.5608 50.1438C81.5608 47.4985 78.8721 45.3541 75.5553 45.3541C72.2386 45.3541 69.5498 47.4985 69.5498 50.1438C69.5498 52.789 72.2386 54.9334 75.5553 54.9334Z" fill="#3F3D56"/>
<path opacity="0.1" d="M75.2913 47.4362C75.2913 47.4362 73.7612 46.6596 72.3006 47.4362C71.8471 47.681 71.5305 48.0566 71.4175 48.484C71.3197 48.8266 71.3205 49.1824 71.4197 49.5248C71.5189 49.8671 71.7141 50.1871 71.9905 50.4607L75.2947 53.7895C75.408 53.9054 75.5599 53.9936 75.7331 54.044C75.9064 54.0943 76.0938 54.1047 76.2741 54.0741L76.2957 54.0701C76.4263 54.0445 76.5489 53.9978 76.656 53.933C76.7631 53.8681 76.8524 53.7865 76.9184 53.693L79.2164 50.4746C79.6415 49.8885 79.8158 49.2079 79.7128 48.5358C79.6891 48.1647 79.5173 47.8093 79.2223 47.5216C78.9274 47.234 78.5248 47.0291 78.0734 46.937C78.0734 46.937 76.7519 46.4932 75.2913 47.4362Z" fill="black"/>
<path d="M75.3057 47.6237C75.3057 47.6237 73.8703 46.8952 72.5002 47.6237C72.0748 47.8533 71.7778 48.2057 71.6718 48.6066C71.5801 48.928 71.5808 49.2617 71.6739 49.5829C71.7669 49.904 71.95 50.2042 72.2093 50.4609L75.3088 53.5835C75.4151 53.6922 75.5577 53.775 75.7201 53.8222C75.8826 53.8694 76.0585 53.8792 76.2276 53.8505L76.2479 53.8467C76.3704 53.8227 76.4854 53.7789 76.5858 53.7181C76.6863 53.6573 76.7701 53.5807 76.832 53.493L78.9876 50.4739C79.3864 49.9241 79.5499 49.2857 79.4533 48.6552C79.4311 48.307 79.2699 47.9737 78.9932 47.7038C78.7165 47.434 78.3389 47.2418 77.9155 47.1554C77.9155 47.1554 76.6758 46.7391 75.3057 47.6237Z" fill="#E73361"/>
<path opacity="0.1" d="M75.3627 48.8727C75.1569 48.7733 74.9209 48.7207 74.6803 48.7207C74.4396 48.7207 74.2036 48.7733 73.9978 48.8727C73.7908 48.9844 73.6463 49.1559 73.5947 49.3509C73.5501 49.5073 73.5505 49.6697 73.5957 49.8259C73.641 49.9822 73.7301 50.1282 73.8562 50.2531C73.8562 50.2531 75.6441 51.9321 75.8113 51.9022L75.8211 51.9004C75.9416 51.8773 77.1541 50.2594 77.1541 50.2594C77.3481 49.9919 77.4276 49.6813 77.3806 49.3746C77.3698 49.2052 77.2914 49.043 77.1568 48.9117C77.0222 48.7804 76.8384 48.6869 76.6324 48.6449C76.4144 48.5903 76.1821 48.5826 75.9592 48.6227C75.7362 48.6627 75.5305 48.7489 75.3627 48.8727V48.8727Z" fill="black"/>
<path d="M69.6286 58.4145C73.3105 58.4145 76.2952 56.0341 76.2952 53.0976C76.2952 50.1611 73.3105 47.7806 69.6286 47.7806C65.9467 47.7806 62.9619 50.1611 62.9619 53.0976C62.9619 56.0341 65.9467 58.4145 69.6286 58.4145Z" fill="#3F3D56"/>
<path opacity="0.1" d="M69.6286 58.4145C73.3105 58.4145 76.2952 56.0341 76.2952 53.0976C76.2952 50.1611 73.3105 47.7806 69.6286 47.7806C65.9467 47.7806 62.9619 50.1611 62.9619 53.0976C62.9619 56.0341 65.9467 58.4145 69.6286 58.4145Z" fill="black"/>
<path d="M69.6295 57.8873C72.9463 57.8873 75.635 55.7429 75.635 53.0976C75.635 50.4524 72.9463 48.308 69.6295 48.308C66.3128 48.308 63.624 50.4524 63.624 53.0976C63.624 55.7429 66.3128 57.8873 69.6295 57.8873Z" fill="#3F3D56"/>
<path opacity="0.1" d="M69.3655 50.3902C69.3655 50.3902 67.8354 49.6136 66.3748 50.3902C65.9213 50.6349 65.6047 51.0106 65.4917 51.438C65.3939 51.7806 65.3947 52.1364 65.4939 52.4787C65.5932 52.8211 65.7883 53.1411 66.0647 53.4147L69.3689 56.7434C69.4822 56.8594 69.6342 56.9476 69.8074 56.9979C69.9806 57.0483 70.168 57.0587 70.3483 57.0281L70.3699 57.0241C70.5005 56.9985 70.6231 56.9518 70.7302 56.8869C70.8373 56.8221 70.9266 56.7404 70.9926 56.647L73.2906 53.4286C73.7157 52.8425 73.8899 52.1619 73.787 51.4898C73.7633 51.1186 73.5915 50.7633 73.2965 50.4756C73.0016 50.188 72.599 49.9831 72.1476 49.8909C72.1476 49.8909 70.8261 49.4472 69.3655 50.3902Z" fill="black"/>
<path d="M69.3789 50.5775C69.3789 50.5775 67.9436 49.849 66.5734 50.5775C66.148 50.8071 65.851 51.1595 65.745 51.5604C65.6533 51.8818 65.654 52.2156 65.7471 52.5367C65.8402 52.8579 66.0232 53.158 66.2825 53.4147L69.3821 56.5373C69.4884 56.6461 69.6309 56.7288 69.7934 56.7761C69.9559 56.8233 70.1317 56.8331 70.3008 56.8043L70.3211 56.8006C70.4436 56.7766 70.5586 56.7328 70.6591 56.6719C70.7595 56.6111 70.8433 56.5345 70.9052 56.4469L73.0609 53.4278C73.4597 52.8779 73.6232 52.2395 73.5266 51.609C73.5044 51.2609 73.3432 50.9275 73.0665 50.6577C72.7898 50.3878 72.4121 50.1957 71.9887 50.1092C71.9887 50.1092 70.7491 49.6929 69.3789 50.5775Z" fill="#E73361"/>
<path opacity="0.1" d="M69.436 51.8266C69.2302 51.7272 68.9941 51.6746 68.7535 51.6746C68.5129 51.6746 68.2768 51.7272 68.071 51.8266C67.864 51.9383 67.7195 52.1098 67.668 52.3048C67.6234 52.4612 67.6237 52.6236 67.669 52.7798C67.7143 52.936 67.8033 53.0821 67.9295 53.207C67.9295 53.207 69.7173 54.8859 69.8845 54.8561L69.8944 54.8543C70.0148 54.8312 71.2273 53.2133 71.2273 53.2133C71.4214 52.9458 71.5009 52.6352 71.4539 52.3284C71.4431 52.1591 71.3647 51.9969 71.23 51.8656C71.0954 51.7343 70.9117 51.6408 70.7057 51.5987C70.4876 51.5442 70.2554 51.5365 70.0324 51.5765C69.8095 51.6165 69.6037 51.7028 69.436 51.8266V51.8266Z" fill="black"/>
<path d="M64.5449 39.8048C64.3826 39.5912 63.8154 39.5967 63.8154 39.5967C63.299 40.2086 62.0578 39.5586 62.0578 39.5586C61.1359 39.8875 60.5734 38.8393 60.5734 38.8393C59.3329 38.6913 59.5245 37.6523 59.5245 37.6523C58.9073 37.5535 59.0805 36.6635 59.0805 36.6635C59.0805 36.6635 59.423 36.4395 59.2544 36.2756C59.1539 36.0839 59.1179 35.8746 59.15 35.6684C57.3117 35.2221 55.3383 35.285 53.5505 35.8468C51.7627 36.4086 50.2658 37.4362 49.3033 38.7626C48.3408 40.0889 47.9692 41.636 48.2489 43.1522C48.5287 44.6683 49.4434 46.0644 50.8443 47.1134C52.2452 48.1623 54.0498 48.8025 55.9647 48.9296C57.8796 49.0568 59.7921 48.6636 61.3913 47.8139C62.9904 46.9641 64.182 45.708 64.7724 44.2496C65.3628 42.7912 65.3171 41.2164 64.6429 39.7813C64.5992 39.8207 64.5653 39.8315 64.5449 39.8048Z" fill="#3F3D56"/>
<path opacity="0.1" d="M64.5449 39.8048C64.3826 39.5912 63.8154 39.5967 63.8154 39.5967C63.299 40.2086 62.0578 39.5586 62.0578 39.5586C61.1359 39.8875 60.5734 38.8393 60.5734 38.8393C59.3329 38.6913 59.5245 37.6523 59.5245 37.6523C58.9073 37.5535 59.0805 36.6635 59.0805 36.6635C59.0805 36.6635 59.423 36.4395 59.2544 36.2756C59.1539 36.0839 59.1179 35.8746 59.15 35.6684C57.3117 35.2221 55.3383 35.285 53.5505 35.8468C51.7627 36.4086 50.2658 37.4362 49.3033 38.7626C48.3408 40.0889 47.9692 41.636 48.2489 43.1522C48.5287 44.6683 49.4434 46.0644 50.8443 47.1134C52.2452 48.1623 54.0498 48.8025 55.9647 48.9296C57.8796 49.0568 59.7921 48.6636 61.3913 47.8139C62.9904 46.9641 64.182 45.708 64.7724 44.2496C65.3628 42.7912 65.3171 41.2164 64.6429 39.7813C64.5992 39.8207 64.5653 39.8315 64.5449 39.8048Z" fill="black"/>
<path d="M64.0406 39.7779C63.8862 39.5748 63.3468 39.5801 63.3468 39.5801C62.8557 40.162 61.6752 39.5438 61.6752 39.5438C60.7985 39.8567 60.2635 38.8597 60.2635 38.8597C59.0837 38.719 59.266 37.7308 59.266 37.7308C58.679 37.6368 58.8437 36.7905 58.8437 36.7905C58.8437 36.7905 59.1694 36.5774 59.0091 36.4216C58.9135 36.2392 58.8793 36.0402 58.9098 35.844C57.1615 35.4196 55.2846 35.4794 53.5844 36.0137C51.8841 36.548 50.4605 37.5253 49.5451 38.7868C48.6297 40.0482 48.2763 41.5196 48.5424 42.9615C48.8084 44.4035 49.6784 45.7312 51.0107 46.7288C52.343 47.7264 54.0593 48.3352 55.8804 48.4562C57.7016 48.5771 59.5205 48.2031 61.0413 47.395C62.5622 46.5869 63.6955 45.3922 64.257 44.0052C64.8184 42.6182 64.775 41.1205 64.1338 39.7557C64.0922 39.7931 64.06 39.8034 64.0406 39.7779Z" fill="#3F3D56"/>
<path d="M55.5809 39.3842C55.5809 39.3842 54.1839 38.6751 52.8503 39.3842C52.4362 39.6077 52.1471 39.9507 52.044 40.3409C51.9547 40.6537 51.9554 40.9786 52.046 41.2911C52.1366 41.6037 52.3148 41.8958 52.5671 42.1457L55.584 45.185C55.6874 45.2908 55.8262 45.3714 55.9843 45.4173C56.1425 45.4633 56.3136 45.4728 56.4782 45.4448L56.498 45.4412C56.6172 45.4178 56.7291 45.3752 56.8269 45.316C56.9247 45.2568 57.0062 45.1822 57.0665 45.0969L59.1646 42.1584C59.5528 41.6232 59.7119 41.0018 59.6179 40.3882C59.5963 40.0493 59.4394 39.7248 59.17 39.4622C58.9007 39.1996 58.5332 39.0125 58.121 38.9284C58.121 38.9284 56.9145 38.5232 55.5809 39.3842Z" fill="#E73361"/>
<path opacity="0.1" d="M55.5809 39.3842C55.5809 39.3842 54.1839 38.6751 52.8503 39.3842C52.4362 39.6077 52.1471 39.9507 52.044 40.3409C51.9547 40.6537 51.9554 40.9786 52.046 41.2911C52.1366 41.6037 52.3148 41.8958 52.5671 42.1457L55.584 45.185C55.6874 45.2908 55.8262 45.3714 55.9843 45.4173C56.1425 45.4633 56.3136 45.4728 56.4782 45.4448L56.498 45.4412C56.6172 45.4178 56.7291 45.3752 56.8269 45.316C56.9247 45.2568 57.0062 45.1822 57.0665 45.0969L59.1646 42.1584C59.5528 41.6232 59.7119 41.0018 59.6179 40.3882C59.5963 40.0493 59.4394 39.7248 59.17 39.4622C58.9007 39.1996 58.5332 39.0125 58.121 38.9284C58.121 38.9284 56.9145 38.5232 55.5809 39.3842Z" fill="black"/>
<path d="M55.5951 39.5554C55.5951 39.5554 54.2845 38.8902 53.0336 39.5554C52.6451 39.765 52.3739 40.0868 52.2772 40.4528C52.1934 40.7463 52.1941 41.051 52.2791 41.3442C52.364 41.6374 52.5312 41.9115 52.7679 42.1459L55.598 44.9969C55.695 45.0962 55.8251 45.1718 55.9735 45.2149C56.1218 45.258 56.2824 45.2669 56.4368 45.2407L56.4553 45.2373C56.5672 45.2153 56.6722 45.1754 56.7639 45.1198C56.8556 45.0643 56.9321 44.9943 56.9887 44.9143L58.9568 42.1577C59.321 41.6557 59.4702 41.0728 59.382 40.4972C59.3618 40.1793 59.2146 39.875 58.9619 39.6286C58.7093 39.3822 58.3645 39.2067 57.9779 39.1278C57.9779 39.1278 56.846 38.7477 55.5951 39.5554Z" fill="#E73361"/>
<path opacity="0.1" d="M55.6465 40.6957C55.4586 40.6049 55.2431 40.5569 55.0234 40.5569C54.8037 40.5569 54.5882 40.6049 54.4003 40.6957C54.2113 40.7977 54.0794 40.9543 54.0323 41.1323C53.9915 41.2751 53.9919 41.4234 54.0332 41.566C54.0745 41.7087 54.1559 41.842 54.271 41.956C54.271 41.956 55.9034 43.489 56.056 43.4618L56.065 43.4601C56.5032 42.9779 56.9094 42.4778 57.2821 41.9618C57.4592 41.7176 57.5319 41.434 57.489 41.1539C57.4791 40.9993 57.4075 40.8512 57.2846 40.7313C57.1617 40.6114 56.9939 40.5261 56.8058 40.4877C56.6067 40.4378 56.3947 40.4309 56.1911 40.4674C55.9875 40.5039 55.7997 40.5827 55.6465 40.6957Z" fill="black"/>
<path opacity="0.1" d="M51.6631 43.1187L51.8416 43.3561L52.199 43.8311L52.3183 44.1637L52.0797 44.4488L52.3779 45.0189L52.4968 45.3515L52.2586 45.5417L52.7353 45.8267" fill="black"/>
<path opacity="0.1" d="M60.42 41.0281V41.4082L60.1222 42.0259L59.9434 42.3582L60.2411 42.7859L60.3604 43.071L60.8371 43.2134L61.0156 43.4511V44.0212" fill="black"/>
<path opacity="0.1" d="M63.459 41.4082L62.9824 41.6458C62.9824 41.6458 62.7441 41.7408 62.7441 41.7883V42.1684" fill="black"/>
<path opacity="0.1" d="M61.3125 40.078L61.4318 40.553L61.3125 40.8856" fill="black"/>
<path opacity="0.1" d="M61.7911 44.3539L61.4336 44.7813L61.0166 45.0664V45.2566L61.2551 45.4941V45.7791L61.0762 46.0642" fill="black"/>
<path opacity="0.1" d="M58.3944 36.2771H57.7988L57.3222 36.6097L56.5477 36.9423L56.1903 37.1798V37.2749L55.4159 37.6072L55.1777 37.9398" fill="black"/>
<path opacity="0.1" d="M51.9609 37.0847L51.4248 37.9399L51.2461 38.2725L50.8291 38.7C50.8291 38.7 50.5312 39.1276 50.4717 39.1751C50.3195 39.2357 50.1597 39.2835 49.9951 39.3177L50.5908 39.7928" fill="black"/>
<path opacity="0.1" d="M49.5781 40.363L49.4588 40.9807L49.5781 41.3609V42.0261L49.2207 43.2611L49.5781 43.5937L49.9951 44.0214" fill="black"/>
<path opacity="0.1" d="M50.4707 40.6481L50.8281 40.7907L51.0663 41.4084L51.5429 41.3133L51.7811 41.6459" fill="black"/>
<path opacity="0.1" d="M57.0244 46.8244L57.9774 46.7296L58.3944 46.397H58.9903" fill="black"/>
<path opacity="0.1" d="M51.2471 45.8267L51.6045 46.1593L52.2 46.3016L52.6171 46.3968L52.7363 46.9193" fill="black"/>
<path opacity="0.1" d="M58.2744 44.2112L58.6914 43.9737L58.87 43.5936L59.2274 43.546L59.4063 43.071" fill="black"/>
<path d="M38.8176 55.7801L37.7065 58.1432C37.7065 58.1432 36.9657 65.8233 41.4102 65.5279C45.8546 65.2325 48.4472 60.8017 48.4472 60.8017C48.4472 60.8017 45.8546 55.1894 42.8916 55.7801C39.9287 56.3709 38.8176 55.7801 38.8176 55.7801Z" fill="#FF6584"/>
<path d="M42.5231 57.2572C42.5231 57.2572 40.3009 62.5741 42.8935 62.5741C45.4861 62.5741 50.3009 59.3249 50.6713 56.6664C51.0417 54.0079 57.7083 43.9648 52.8935 44.851C48.0787 45.7371 45.8565 53.1218 45.8565 53.1218L42.5231 57.2572Z" fill="#FBBEBE"/>
<path d="M95.4847 57.5525L97.7985 60.6364C97.7985 60.6364 98.818 66.4141 93.6328 66.4141C88.4476 66.4141 81.0402 60.8018 81.0402 60.8018C81.0402 60.8018 77.3365 59.6202 75.1143 59.9156C72.8921 60.211 60.6699 59.9156 65.855 54.894C71.0402 49.8725 79.9291 54.894 79.9291 54.894L89.1884 58.4387L94.0032 56.371L95.4847 57.5525Z" fill="#FBBEBE"/>
<path d="M92.3346 53.5648L88.6309 58.291C88.6309 58.291 97.1494 59.1771 97.8901 60.654C98.6309 62.131 94.5568 52.974 94.5568 52.974L92.3346 53.5648Z" fill="#FF6584"/>
</svg>
