<svg width="300" height="200" viewBox="0 0 300 200" fill="none" xmlns="http://www.w3.org/2000/svg">
<g clip-path="url(#clip0)">
<path d="M69.3391 75.8063C69.3391 75.8063 56.9758 56.7835 38.3449 51.3045C30.5265 49.0036 23.7025 44.6773 19.0367 38.7642C16.8278 35.9568 14.9205 32.9792 13.3389 29.8689" stroke="#535461" stroke-width="2" stroke-miterlimit="10"/>
<path d="M1.62352 26.3476C3.74678 28.128 13.632 29.9948 13.632 29.9948C13.632 29.9948 11.2131 21.4729 9.08448 19.6831C8.06126 18.8418 6.69744 18.3846 5.28857 18.4103C3.87969 18.4361 2.53927 18.9429 1.55779 19.8208C0.576301 20.6988 0.0328213 21.8771 0.0451264 23.1006C0.0574314 24.324 0.624529 25.494 1.62352 26.3569V26.3476Z" fill="#E73361"/>
<path d="M7.21717 41.7698C10.1172 42.2692 19.5804 39.1586 19.5804 39.1586C19.5804 39.1586 12.2028 33.1475 9.30011 32.6481C7.92057 32.4372 6.50075 32.7039 5.34496 33.391C4.18916 34.0781 3.38935 35.1309 3.11694 36.3239C2.84452 37.5169 3.12118 38.755 3.88762 39.773C4.65406 40.791 5.8493 41.5078 7.21717 41.7698V41.7698Z" fill="#E73361"/>
<path d="M27.5751 58.4637C30.3703 57.6236 36.7132 50.7934 36.7132 50.7934C36.7132 50.7934 26.8548 48.8356 24.0623 49.6757C23.3771 49.8605 22.7417 50.1629 22.1937 50.565C21.6457 50.9672 21.1964 51.4608 20.8723 52.0165C20.5483 52.5723 20.3562 53.179 20.3073 53.8005C20.2585 54.422 20.354 55.0456 20.5881 55.6345C20.8222 56.2233 21.1902 56.7653 21.6702 57.2283C22.1502 57.6913 22.7325 58.0659 23.3824 58.3298C24.0323 58.5937 24.7367 58.7415 25.4537 58.7645C26.1707 58.7875 26.8857 58.6852 27.5563 58.4637H27.5751Z" fill="#E73361"/>
<path d="M46.2543 68.0754C49.1731 67.6553 56.7631 61.8566 56.7631 61.8566C56.7631 61.8566 47.4288 58.48 44.51 58.8977C43.1083 59.0986 41.8558 59.7746 41.0282 60.7772C40.2006 61.7798 39.8656 63.0267 40.0969 64.2438C40.3282 65.4608 41.1069 66.5482 42.2616 67.2668C43.4164 67.9853 44.8526 68.2762 46.2543 68.0754V68.0754Z" fill="#E73361"/>
<path d="M27.8142 32.4987C27.8142 35.0656 22.4658 42.5164 22.4658 42.5164C22.4658 42.5164 17.1066 35.0702 17.1039 32.5034C17.0879 31.884 17.2146 31.2682 17.4765 30.6919C17.7385 30.1157 18.1304 29.5907 18.6292 29.1477C19.1281 28.7048 19.7239 28.3529 20.3815 28.1126C21.0392 27.8723 21.7455 27.7485 22.4591 27.7485C23.1726 27.7485 23.8789 27.8723 24.5366 28.1126C25.1943 28.3529 25.79 28.7048 26.2889 29.1477C26.7877 29.5907 27.1796 30.1157 27.4416 30.6919C27.7035 31.2682 27.8302 31.884 27.8142 32.5034V32.4987Z" fill="#E73361"/>
<path d="M49.4993 43.9959C48.615 46.4461 40.9418 52.1632 40.9418 52.1632C40.9418 52.1632 38.3938 43.6576 39.2673 41.1957C39.7368 40.0686 40.6894 39.1423 41.9264 38.6101C43.1634 38.0779 44.5893 37.981 45.9066 38.3395C47.224 38.6979 48.331 39.4842 48.9969 40.5341C49.6628 41.5841 49.836 42.8168 49.4805 43.9749L49.4993 43.9959Z" fill="#E73361"/>
<path d="M68.8068 57.6586C68.4144 60.2044 61.964 66.9646 61.964 66.9646C61.964 66.9646 57.7982 58.9653 58.2013 56.4195C58.41 55.2119 59.1574 54.1241 60.282 53.3908C61.4066 52.6576 62.8183 52.3378 64.2122 52.5005C65.606 52.6632 66.8703 53.2953 67.732 54.2603C68.5936 55.2254 68.9836 56.446 68.8176 57.6586H68.8068Z" fill="#E73361"/>
<path opacity="0.25" d="M1.62352 26.3476C3.74678 28.128 13.632 29.9948 13.632 29.9948C13.632 29.9948 11.2131 21.4729 9.08448 19.6831C8.06126 18.8418 6.69744 18.3846 5.28857 18.4103C3.87969 18.4361 2.53927 18.9429 1.55779 19.8208C0.576301 20.6988 0.0328213 21.8771 0.0451264 23.1006C0.0574314 24.324 0.624529 25.494 1.62352 26.3569V26.3476Z" fill="black"/>
<path opacity="0.25" d="M7.21717 41.7698C10.1172 42.2692 19.5804 39.1586 19.5804 39.1586C19.5804 39.1586 12.2028 33.1475 9.30011 32.6481C7.92057 32.4372 6.50075 32.7039 5.34496 33.391C4.18916 34.0781 3.38935 35.1309 3.11694 36.3239C2.84452 37.5169 3.12118 38.755 3.88762 39.773C4.65406 40.791 5.8493 41.5078 7.21717 41.7698V41.7698Z" fill="black"/>
<path opacity="0.25" d="M27.5751 58.4637C30.3703 57.6236 36.7132 50.7934 36.7132 50.7934C36.7132 50.7934 26.8548 48.8356 24.0623 49.6757C23.3771 49.8605 22.7417 50.1629 22.1937 50.565C21.6457 50.9672 21.1964 51.4608 20.8723 52.0165C20.5483 52.5723 20.3562 53.179 20.3073 53.8005C20.2585 54.422 20.354 55.0456 20.5881 55.6345C20.8222 56.2233 21.1902 56.7653 21.6702 57.2283C22.1502 57.6913 22.7325 58.0659 23.3824 58.3298C24.0323 58.5937 24.7367 58.7415 25.4537 58.7645C26.1707 58.7875 26.8857 58.6852 27.5563 58.4637H27.5751Z" fill="black"/>
<path opacity="0.25" d="M46.2543 68.0754C49.1731 67.6553 56.7631 61.8566 56.7631 61.8566C56.7631 61.8566 47.4288 58.48 44.51 58.8977C43.1083 59.0986 41.8558 59.7746 41.0282 60.7772C40.2006 61.7798 39.8656 63.0267 40.0969 64.2438C40.3282 65.4608 41.1069 66.5482 42.2616 67.2668C43.4164 67.9853 44.8526 68.2762 46.2543 68.0754V68.0754Z" fill="black"/>
<path opacity="0.25" d="M27.8142 32.4987C27.8142 35.0656 22.4658 42.5164 22.4658 42.5164C22.4658 42.5164 17.1066 35.0702 17.1039 32.5034C17.0879 31.884 17.2146 31.2682 17.4765 30.6919C17.7385 30.1157 18.1304 29.5907 18.6292 29.1477C19.1281 28.7048 19.7239 28.3529 20.3815 28.1126C21.0392 27.8723 21.7455 27.7485 22.4591 27.7485C23.1726 27.7485 23.8789 27.8723 24.5366 28.1126C25.1943 28.3529 25.79 28.7048 26.2889 29.1477C26.7877 29.5907 27.1796 30.1157 27.4416 30.6919C27.7035 31.2682 27.8302 31.884 27.8142 32.5034V32.4987Z" fill="black"/>
<path opacity="0.25" d="M49.4993 43.9959C48.615 46.4461 40.9418 52.1632 40.9418 52.1632C40.9418 52.1632 38.3938 43.6576 39.2673 41.1957C39.7368 40.0686 40.6894 39.1423 41.9264 38.6101C43.1634 38.0779 44.5893 37.981 45.9066 38.3395C47.224 38.6979 48.331 39.4842 48.9969 40.5341C49.6628 41.5841 49.836 42.8168 49.4805 43.9749L49.4993 43.9959Z" fill="black"/>
<path opacity="0.25" d="M68.8068 57.6586C68.4144 60.2044 61.964 66.9646 61.964 66.9646C61.964 66.9646 57.7982 58.9653 58.2013 56.4195C58.41 55.2119 59.1574 54.1241 60.282 53.3908C61.4066 52.6576 62.8183 52.3378 64.2122 52.5005C65.606 52.6632 66.8703 53.2953 67.732 54.2603C68.5936 55.2254 68.9836 56.446 68.8176 57.6586H68.8068Z" fill="black"/>
<path d="M68.6276 75.4283C68.6276 75.4283 66.2087 53.6847 51.7275 42.1198C45.6561 37.2661 41.4364 30.919 39.9287 23.8625C39.2209 20.5179 38.8683 17.1239 38.8751 13.7234" stroke="#535461" stroke-width="2" stroke-miterlimit="10"/>
<path d="M29.8033 6.38917C30.9106 8.77167 39.0838 13.9404 39.0838 13.9404C39.0838 13.9404 40.8443 5.29475 39.7396 2.91224C39.2086 1.76731 38.1754 0.852426 36.8675 0.36886C35.5595 -0.114707 34.0838 -0.127346 32.7651 0.333722C31.4464 0.794791 30.3927 1.6918 29.8357 2.82741C29.2788 3.96303 29.2642 5.24423 29.7953 6.38917H29.8033Z" fill="#E73361"/>
<path d="M27.71 22.4553C30.1289 23.9324 40.2265 24.4154 40.2265 24.4154C40.2265 24.4154 36.3105 16.3275 33.8916 14.8504C32.7301 14.1387 31.2905 13.8567 29.8896 14.0665C28.4886 14.2764 27.241 14.9608 26.4213 15.9693C25.6015 16.9778 25.2768 18.2277 25.5185 19.444C25.7602 20.6604 26.5485 21.7436 27.71 22.4553V22.4553Z" fill="#E73361"/>
<path d="M38.5435 44.8756C41.4999 45.0926 50.4875 41.0813 50.4875 41.0813C50.4875 41.0813 42.3896 35.8239 39.4412 35.6093C38.7318 35.5437 38.0144 35.6018 37.3313 35.7802C36.6481 35.9586 36.0128 36.2537 35.4628 36.6482C34.9128 37.0427 34.459 37.5286 34.1282 38.0774C33.7974 38.6261 33.5962 39.2268 33.5364 39.844C33.4766 40.4612 33.5595 41.0826 33.78 41.6717C34.0006 42.2607 34.3545 42.8056 34.8209 43.2743C35.2873 43.743 35.8569 44.1261 36.4961 44.4011C37.1354 44.676 37.8315 44.8374 38.5435 44.8756Z" fill="#E73361"/>
<path d="M51.1335 60.2395C53.9985 60.8836 63.6446 58.2514 63.6446 58.2514C63.6446 58.2514 56.6862 51.8809 53.8238 51.2368C52.4575 50.9494 51.0158 51.1399 49.8098 51.7672C48.6038 52.3945 47.7302 53.4083 47.3774 54.5899C47.0247 55.7714 47.2211 57.026 47.9243 58.083C48.6275 59.1399 49.7811 59.9145 51.1362 60.2395H51.1335Z" fill="#E73361"/>
<path d="M50.8775 21.2279C49.6815 23.5754 41.3121 28.5014 41.3121 28.5014C41.3121 28.5014 39.8876 19.8115 41.0836 17.4616C41.3606 16.8931 41.7652 16.3781 42.2738 15.9468C42.7824 15.5154 43.3848 15.1763 44.0459 14.9491C44.707 14.722 45.4135 14.6114 46.1244 14.6237C46.8352 14.6361 47.5361 14.7712 48.1862 15.0212C48.8363 15.2712 49.4225 15.6311 49.9107 16.0798C50.399 16.5285 50.7794 17.0572 51.03 17.6349C51.2805 18.2126 51.396 18.8278 51.3698 19.4447C51.3436 20.0616 51.1763 20.6677 50.8775 21.2279V21.2279Z" fill="#E73361"/>
<path d="M65.3371 39.3545C63.3858 41.2843 53.7021 43.8115 53.7021 43.8115C53.7021 43.8115 55.3362 35.1496 57.2902 33.2198C57.7541 32.761 58.3176 32.3861 58.9484 32.1164C59.5793 31.8468 60.2651 31.6876 60.9668 31.6481C61.6685 31.6085 62.3722 31.6894 63.0379 31.886C63.7036 32.0826 64.3182 32.3911 64.8466 32.7939C65.3749 33.1967 65.8067 33.6859 66.1173 34.2336C66.4279 34.7813 66.6112 35.3768 66.6568 35.986C66.7023 36.5952 66.6092 37.2063 66.3828 37.7842C66.1563 38.3622 65.801 38.8958 65.3371 39.3545V39.3545Z" fill="#E73361"/>
<path d="M76.6252 58.6503C75.0771 60.8391 66.025 64.7501 66.025 64.7501C66.025 64.7501 65.9498 55.9714 67.4978 53.7826C68.2413 52.7305 69.4357 51.9779 70.8183 51.6904C72.2008 51.4029 73.6583 51.604 74.8701 52.2495C76.0819 52.895 76.9487 53.932 77.2799 55.1324C77.611 56.3328 77.3794 57.5982 76.6359 58.6503H76.6252Z" fill="#E73361"/>
<path opacity="0.1" d="M109.7 198.745C126.255 198.745 139.676 197.228 139.676 195.356C139.676 193.485 126.255 191.968 109.7 191.968C93.1451 191.968 79.7246 193.485 79.7246 195.356C79.7246 197.228 93.1451 198.745 109.7 198.745Z" fill="#E73361"/>
<path opacity="0.1" d="M49.1517 196.448C54.1807 196.448 58.2575 195.842 58.2575 195.095C58.2575 194.347 54.1807 193.741 49.1517 193.741C44.1227 193.741 40.0459 194.347 40.0459 195.095C40.0459 195.842 44.1227 196.448 49.1517 196.448Z" fill="#E73361"/>
<path d="M51.1299 180.025C51.1299 180.025 52.6054 181.703 50.4472 184.225C48.289 186.748 46.5098 188.892 47.222 190.472C47.222 190.472 50.4768 185.77 53.1349 185.705C55.793 185.64 54.0487 182.853 51.1299 180.025Z" fill="#E73361"/>
<path opacity="0.1" d="M51.1301 180.025C51.259 180.188 51.3604 180.365 51.4311 180.553C54.0166 183.189 55.3954 185.651 52.9093 185.712C50.5952 185.77 47.8162 189.364 47.1523 190.272C47.1743 190.342 47.2003 190.411 47.2303 190.479C47.2303 190.479 50.4851 185.777 53.1432 185.712C55.8013 185.647 54.0489 182.853 51.1301 180.025Z" fill="black"/>
<path d="M53.8745 182.163C53.8745 182.753 53.7993 183.231 53.7052 183.231C53.6111 183.231 53.5332 182.765 53.5332 182.163C53.5332 181.561 53.63 181.85 53.724 181.85C53.8181 181.85 53.8745 181.572 53.8745 182.163Z" fill="#FFD037"/>
<path d="M54.8183 182.867C54.2217 183.15 53.7003 183.32 53.6546 183.248C53.6089 183.175 54.0577 182.888 54.6544 182.606C55.251 182.324 55.0145 182.529 55.0602 182.606C55.1059 182.683 55.415 182.585 54.8183 182.867Z" fill="#FFD037"/>
<path d="M43.3311 180.025C43.3311 180.025 41.8555 181.703 44.0137 184.225C46.1719 186.748 47.9512 188.892 47.2389 190.472C47.2389 190.472 43.9842 185.77 41.3261 185.705C38.668 185.64 40.4176 182.853 43.3311 180.025Z" fill="#E73361"/>
<path opacity="0.1" d="M43.3301 180.025C43.2012 180.188 43.0998 180.365 43.0291 180.553C40.4435 183.189 39.0647 185.651 41.5508 185.712C43.8676 185.77 46.644 189.364 47.3078 190.272C47.2871 190.342 47.2611 190.412 47.2299 190.479C47.2299 190.479 43.9751 185.777 41.317 185.712C38.6589 185.647 40.4166 182.853 43.3301 180.025Z" fill="black"/>
<path d="M40.5869 182.163C40.5869 182.753 40.6622 183.231 40.7562 183.231C40.8503 183.231 40.9282 182.765 40.9282 182.163C40.9282 181.561 40.8315 181.85 40.7374 181.85C40.6434 181.85 40.5869 181.572 40.5869 182.163Z" fill="#FFD037"/>
<path d="M39.6459 182.867C40.2426 183.15 40.7613 183.32 40.807 183.248C40.8527 183.175 40.4039 182.888 39.8072 182.606C39.2105 182.324 39.4471 182.529 39.4014 182.606C39.3557 182.683 39.0493 182.585 39.6459 182.867Z" fill="#FFD037"/>
<path d="M41.0566 190.26C41.0566 190.26 45.1849 190.148 46.432 189.38C47.6791 188.612 52.7802 187.691 53.0893 188.925C53.3984 190.16 59.2925 195.06 54.632 195.093C49.9716 195.125 43.8034 194.462 42.5617 193.807C41.32 193.151 41.0566 190.26 41.0566 190.26Z" fill="#A8A8A8"/>
<path opacity="0.2" d="M54.7127 194.663C50.0523 194.696 43.8841 194.033 42.6424 193.377C41.6963 192.876 41.32 191.081 41.1937 190.255H41.0566C41.0566 190.255 41.3254 193.144 42.559 193.802C43.7927 194.46 49.9689 195.121 54.6293 195.088C55.9732 195.088 56.4408 194.663 56.414 194.047C56.2285 194.425 55.7152 194.656 54.7127 194.663Z" fill="black"/>
<path d="M178.918 190.122C178.918 190.122 167.555 189.527 168.896 196.441C168.896 196.441 168.627 197.662 169.904 198.217C169.904 198.217 169.926 197.706 171.07 197.879C171.478 197.938 171.892 197.956 172.304 197.93C172.862 197.898 173.393 197.708 173.815 197.389V197.389C173.815 197.389 177.007 196.245 178.249 191.711C178.249 191.711 179.168 190.722 179.133 190.468L177.214 191.168C177.214 191.168 177.87 192.369 177.354 193.368C177.354 193.368 177.292 191.212 176.924 191.268C176.849 191.268 175.927 191.683 175.927 191.683C175.927 191.683 177.056 193.783 176.196 195.296C176.196 195.296 176.518 192.729 175.567 191.835L174.223 192.519C174.223 192.519 175.54 194.68 174.648 196.444C174.648 196.444 174.876 193.739 173.941 192.684L172.718 193.513C172.718 193.513 173.954 195.643 173.199 197.106C173.199 197.106 173.102 193.958 172.452 193.72C172.452 193.72 171.377 194.54 171.218 194.887C171.218 194.887 172.065 196.432 171.541 197.249C171.541 197.249 171.218 195.149 170.952 195.149C170.952 195.149 169.877 196.549 169.775 197.482C169.775 197.482 169.823 196.066 170.694 195.006C170.079 195.108 169.512 195.363 169.063 195.741C169.063 195.741 169.229 194.759 170.944 194.673C170.944 194.673 171.826 193.618 172.062 193.555C172.062 193.555 170.342 193.429 169.299 193.83C169.299 193.83 170.216 192.897 172.377 193.324L173.583 192.47C173.583 192.47 171.32 192.199 170.358 192.498C170.358 192.498 171.466 191.676 173.909 192.264L175.226 191.583C175.226 191.583 173.293 191.221 172.143 191.35C172.143 191.35 173.358 190.78 175.61 191.396L176.551 191.03C176.551 191.03 175.134 190.797 174.72 190.752C174.306 190.708 174.285 190.615 174.285 190.615C175.181 190.485 176.101 190.574 176.943 190.871C176.943 190.871 178.953 190.232 178.918 190.122Z" fill="#E73361"/>
<path opacity="0.1" d="M171.092 200C175.533 200 179.134 199.471 179.134 198.819C179.134 198.167 175.533 197.638 171.092 197.638C166.651 197.638 163.051 198.167 163.051 198.819C163.051 199.471 166.651 200 171.092 200Z" fill="#E73361"/>
<path d="M159.011 190.491C159.011 190.491 152.604 190.155 153.367 194.054C153.328 194.252 153.363 194.455 153.465 194.635C153.567 194.815 153.732 194.962 153.937 195.055C153.937 195.055 153.937 194.766 154.595 194.864C154.824 194.896 155.057 194.906 155.289 194.894C155.603 194.874 155.902 194.767 156.141 194.589V194.589C156.141 194.589 157.941 193.942 158.643 191.387C158.643 191.387 159.159 190.829 159.14 190.687L158.065 191.086C158.065 191.086 158.433 191.765 158.143 192.327C158.143 192.327 158.108 191.112 157.901 191.14C157.858 191.14 157.339 191.373 157.339 191.373C157.339 191.373 157.974 192.54 157.495 193.41C157.495 193.41 157.675 191.956 157.14 191.457L156.38 191.844C156.38 191.844 157.122 193.062 156.619 194.057C156.619 194.057 156.748 192.53 156.218 191.938L155.53 192.404C155.53 192.404 156.227 193.606 155.799 194.43C155.799 194.43 155.743 192.654 155.377 192.521C155.116 192.713 154.882 192.931 154.681 193.172C154.681 193.172 155.16 194.045 154.864 194.505C154.864 194.505 154.681 193.321 154.533 193.317C154.533 193.317 153.931 194.101 153.869 194.638C153.897 194.14 154.075 193.657 154.385 193.237C154.039 193.294 153.72 193.438 153.466 193.65C153.466 193.65 153.56 193.095 154.541 193.048C154.541 193.048 155.036 192.453 155.17 192.418C155.17 192.418 154.2 192.346 153.611 192.572C153.611 192.572 154.13 192.05 155.348 192.288L156.028 191.805C156.028 191.805 154.751 191.653 154.211 191.821C154.211 191.821 154.834 191.354 156.213 191.695L156.952 191.312C156.383 191.203 155.799 191.159 155.216 191.182C155.216 191.182 155.901 190.862 157.17 191.207L157.707 191.002C157.707 191.002 156.901 190.864 156.678 190.843C156.455 190.822 156.431 190.766 156.431 190.766C156.936 190.693 157.456 190.743 157.931 190.911C157.931 190.911 159.03 190.554 159.011 190.491Z" fill="#E73361"/>
<path opacity="0.1" d="M154.598 196.061C157.102 196.061 159.132 195.763 159.132 195.396C159.132 195.029 157.102 194.731 154.598 194.731C152.093 194.731 150.063 195.029 150.063 195.396C150.063 195.763 152.093 196.061 154.598 196.061Z" fill="#E73361"/>
<path d="M171.205 182.228C171.205 182.228 163.472 181.822 164.383 186.529C164.336 186.767 164.378 187.013 164.501 187.23C164.625 187.447 164.824 187.625 165.071 187.737C165.071 187.737 165.071 187.39 165.864 187.504C166.141 187.542 166.423 187.554 166.703 187.539C167.083 187.515 167.443 187.386 167.732 187.17V187.17C167.732 187.17 169.906 186.391 170.75 183.304C170.75 183.304 171.377 182.632 171.352 182.459L170.046 182.942C170.046 182.942 170.492 183.761 170.143 184.44C170.143 184.44 170.1 182.972 169.847 183.007C169.799 183.007 169.17 183.29 169.17 183.29C169.17 183.29 169.939 184.716 169.358 185.749C169.358 185.749 169.578 183.994 168.931 183.392L168.012 183.859C168.012 183.859 168.909 185.329 168.302 186.531C168.302 186.531 168.458 184.69 167.818 183.964L166.985 184.527C166.985 184.527 167.829 185.976 167.315 186.972C167.315 186.972 167.248 184.83 166.805 184.667C166.805 184.667 166.076 185.224 165.966 185.453C165.966 185.453 166.544 186.505 166.184 187.061C166.184 187.061 165.966 185.635 165.786 185.628C165.786 185.628 165.061 186.561 164.98 187.222C165.015 186.622 165.23 186.042 165.603 185.537C165.185 185.606 164.799 185.78 164.493 186.036C164.493 186.036 164.606 185.367 165.783 185.308C165.783 185.308 166.383 184.592 166.544 184.548C166.544 184.548 165.372 184.464 164.663 184.737C164.663 184.737 165.286 184.104 166.759 184.391L167.582 183.81C167.582 183.81 166.039 183.626 165.386 183.829C165.386 183.829 166.138 183.271 167.805 183.677L168.7 183.21C168.7 183.21 167.385 182.977 166.603 183.054C166.603 183.054 167.428 182.667 168.963 183.084L169.603 182.837C169.603 182.837 168.638 182.671 168.356 182.646C168.073 182.62 168.06 182.552 168.06 182.552C168.67 182.464 169.296 182.525 169.869 182.727C169.869 182.727 171.231 182.303 171.205 182.228Z" fill="#E73361"/>
<path opacity="0.1" d="M165.88 188.951C168.904 188.951 171.355 188.591 171.355 188.148C171.355 187.705 168.904 187.345 165.88 187.345C162.856 187.345 160.405 187.705 160.405 188.148C160.405 188.591 162.856 188.951 165.88 188.951Z" fill="#E73361"/>
<path d="M290.309 137.595C291.625 136.879 292.445 135.5 292.445 134.001V27.2943C292.445 24.5329 290.206 22.2943 287.445 22.2943H41.7539C38.9925 22.2943 36.7539 24.5329 36.7539 27.2943V127.334C36.7539 128.936 37.5123 130.458 38.8694 131.311C41.6575 133.063 44.7967 134.582 48.0421 135.878C49.823 136.59 51.6374 137.249 53.4853 137.854C53.974 138.014 54.4854 138.092 54.9996 138.092H288.354C289.037 138.092 289.709 137.921 290.309 137.595V137.595Z" fill="url(#paint0_linear)"/>
<path d="M289.804 137.629C291.125 136.921 291.95 135.544 291.95 134.045V30.5612C291.95 27.7997 289.711 25.5612 286.95 25.5612H42.3125C39.5511 25.5612 37.3125 27.7997 37.3125 30.5612V127.538C37.3125 129.161 38.0901 130.699 39.4746 131.546C42.2372 133.235 45.3421 134.701 48.5469 135.959C50.3238 136.647 52.1342 137.287 53.9783 137.88C54.4608 138.035 54.9649 138.111 55.4717 138.111H287.885C288.554 138.111 289.214 137.945 289.804 137.629V137.629Z" fill="white"/>
<path d="M289.017 22.6187H40.2486C38.6287 22.6187 37.3154 23.9319 37.3154 25.5519C37.3154 27.1718 38.6287 28.4851 40.2486 28.4851H289.017C290.637 28.4851 291.95 27.1718 291.95 25.5519C291.95 23.9319 290.637 22.6187 289.017 22.6187Z" fill="#5A5773"/>
<path d="M42.4013 27.0687C43.3661 27.0687 44.1483 26.3896 44.1483 25.5519C44.1483 24.7142 43.3661 24.0352 42.4013 24.0352C41.4364 24.0352 40.6543 24.7142 40.6543 25.5519C40.6543 26.3896 41.4364 27.0687 42.4013 27.0687Z" fill="white"/>
<path d="M47.1044 27.0687C48.0692 27.0687 48.8514 26.3896 48.8514 25.5519C48.8514 24.7142 48.0692 24.0352 47.1044 24.0352C46.1396 24.0352 45.3574 24.7142 45.3574 25.5519C45.3574 26.3896 46.1396 27.0687 47.1044 27.0687Z" fill="white"/>
<path d="M51.8085 27.0687C52.7733 27.0687 53.5555 26.3896 53.5555 25.5519C53.5555 24.7142 52.7733 24.0352 51.8085 24.0352C50.8437 24.0352 50.0615 24.7142 50.0615 25.5519C50.0615 26.3896 50.8437 27.0687 51.8085 27.0687Z" fill="white"/>
<path d="M144.448 41.3777H102.386V64.3254H144.448V41.3777Z" fill="#E73361"/>
<path opacity="0.2" d="M86.2094 41.3777H44.1475V64.3254H86.2094V41.3777Z" fill="#5A5773"/>
<path opacity="0.2" d="M202.688 41.3777H160.626V64.3254H202.688V41.3777Z" fill="#5A5773"/>
<path opacity="0.2" d="M86.2094 74.1844H44.1475V97.1321H86.2094V74.1844Z" fill="#5A5773"/>
<path opacity="0.2" d="M144.448 74.1844H102.386V97.1321H144.448V74.1844Z" fill="#5A5773"/>
<path opacity="0.2" d="M202.688 74.1844H160.626V97.1321H202.688V74.1844Z" fill="#5A5773"/>
<path opacity="0.2" d="M86.2094 106.989H44.1475V129.936H86.2094V106.989Z" fill="#5A5773"/>
<path opacity="0.2" d="M144.448 106.989H102.386V129.936H144.448V106.989Z" fill="#5A5773"/>
<path opacity="0.2" d="M202.688 106.989H160.626V129.936H202.688V106.989Z" fill="#5A5773"/>
<path d="M134.141 61.4786L131.238 62.37L130.185 60.8532C129.378 59.6865 128.26 58.0903 127.435 56.9306C125.979 54.8911 127.884 51.7829 127.884 51.7829C127.884 51.7829 128.228 48.663 129.454 47.7016C130.679 46.7402 131.021 51.7829 131.021 51.7829C135.942 53.7244 133.305 58.291 133.305 58.291L133.784 60.1018L134.141 61.4786Z" fill="#EFB7B9"/>
<path opacity="0.1" d="M134.141 61.4785L131.238 62.3699L130.185 60.8531V60.7201C130.185 60.7201 131.848 59.7284 133.789 60.1017L134.141 61.4785Z" fill="black"/>
<path d="M129.453 71.6992L130.907 70.6305L130.179 61.0118C130.179 61.0118 133.942 58.7763 136.726 62.2742C136.726 62.2742 136.613 64.4117 136.726 64.9951C136.839 65.5785 135.944 66.1618 136.726 66.7429C137.508 67.3239 136.726 69.2701 136.726 69.2701C136.726 69.2701 137.61 70.6305 138.169 71.0179C138.728 71.4052 139.29 74.6138 138.169 75.2928C137.048 75.9719 134.947 77.5283 134.947 78.2074C134.947 78.8864 132.259 80.5409 132.259 80.5409L129.899 77.8317L129.453 71.6992Z" fill="#FF6484"/>
<path d="M98.0082 130.088C92.5845 128.091 93.7885 123.211 94.8099 120.754C95.014 120.256 95.2536 119.77 95.5275 119.298L98.5699 117.695C98.5699 117.695 99.1908 119.069 99.8546 120.913C101.395 125.202 103.166 131.99 98.0082 130.088Z" fill="#EFB7B9"/>
<path d="M105.464 174.609C105.097 175.23 104.826 175.891 104.658 176.574C104.389 177.673 104.272 178.795 104.308 179.918C104.33 180.695 104.405 181.204 104.405 181.204L98.3633 184.811C98.3633 184.811 98.3982 184.389 98.4574 183.768C98.6132 182.116 98.9384 179.05 99.2448 178.653C99.4572 178.378 99.605 177.272 99.6991 176.245C99.7931 175.218 99.8307 174.317 99.8307 174.317C99.8307 174.317 107.101 171.951 105.464 174.609Z" fill="#EFB7B9"/>
<path d="M119.733 177.197C119.733 177.197 119.733 178.2 119.69 179.367C119.647 180.534 119.566 181.911 119.397 182.552C119.241 183.14 119.23 184.221 119.26 185.217C119.3 186.384 119.397 187.434 119.397 187.434C119.397 187.434 113.229 182.37 113.858 181.969C114.027 181.862 114.193 181.43 114.347 180.856C114.535 180.156 114.704 179.222 114.83 178.429C114.981 177.484 115.075 176.723 115.075 176.723L119.733 177.197Z" fill="#EFB7B9"/>
<path opacity="0.1" d="M105.463 174.609C105.096 175.23 104.825 175.891 104.657 176.574C103.003 176.536 101.353 176.426 99.7119 176.245C99.8033 175.241 99.8436 174.317 99.8436 174.317C99.8436 174.317 107.1 171.951 105.463 174.609Z" fill="black"/>
<path opacity="0.1" d="M119.732 177.197C119.732 177.197 119.732 178.2 119.689 179.367C117.765 179.794 115.787 178.94 114.83 178.434C114.981 177.489 115.075 176.728 115.075 176.728L119.732 177.197Z" fill="black"/>
<path d="M132.361 127.563C129.899 132.23 128.892 137.765 128.892 137.765L127.997 142.432C127.997 142.432 128.445 144.472 127.997 145.249C127.548 146.026 126.653 147.291 126.653 147.291C126.653 147.291 127.325 152.051 126.653 152.537C125.981 153.022 126.653 155.936 126.653 155.936L124.414 165.737L121.28 178.366C118.259 180.506 114.238 177.785 114.238 177.785L115.125 169.527C115.125 169.527 116.469 155.059 115.91 154.466C115.351 153.874 116.133 152.037 116.133 152.037C116.133 152.037 116.918 150.287 116.359 149.608C115.8 148.929 116.469 147.47 116.469 147.47C116.469 147.47 116.246 141.543 116.918 140.183C117.59 138.823 116.918 130.408 116.918 130.408L116.649 127.787L116.493 126.336L116.48 126.194C116.48 126.194 116.378 126.775 116.211 127.675C115.717 130.417 114.663 136.099 114.246 137.268C113.963 138.111 113.579 138.925 113.099 139.698C113.099 139.698 113.679 142.612 113.099 143.389C112.518 144.166 113.01 145.041 113.01 145.041C113.01 145.041 113.569 147.47 111.889 148.441C110.21 149.412 111.889 149.9 111.889 149.9C111.889 149.9 110.658 152.233 110.212 153.202C109.766 154.17 110.212 155.535 110.212 155.535L109.317 163.404C109.317 163.404 108.532 166.706 108.645 168.941C108.758 171.177 107.637 176.324 107.637 176.324C107.637 176.324 99.0208 176.324 97.6931 175.449C96.3654 174.574 99.9104 166.038 99.9104 166.038C99.9104 166.038 100.918 151.076 100.693 150.688C100.467 150.301 100.693 147.384 101.477 146.803C102.262 146.222 101.477 145.053 101.477 145.053C101.477 145.053 101.254 142.719 101.477 142.138C101.7 141.557 101.442 139.611 101.442 139.611C101.442 139.611 100.693 134.851 100.582 132.13C100.472 129.409 99.9104 123.291 99.9104 123.291C99.9104 123.291 100.496 119.506 100.585 117.704C100.617 117.042 100.959 116.213 101.391 115.434C101.876 114.554 102.433 113.705 103.058 112.895C103.058 112.895 129.572 106.09 130.684 106.767C130.98 106.947 131.41 108.167 131.835 109.934C133.017 114.869 134.173 124.133 132.361 127.563Z" fill="#444053"/>
<path d="M116.026 68.1827C120.291 68.1827 123.748 65.1812 123.748 61.4786C123.748 57.776 120.291 54.7744 116.026 54.7744C111.762 54.7744 108.305 57.776 108.305 61.4786C108.305 65.1812 111.762 68.1827 116.026 68.1827Z" fill="#A1616A"/>
<path opacity="0.1" d="M131.835 109.938C130.945 110.335 130.348 110.608 130.348 110.608C130.348 110.608 117.816 115.758 114.252 115.466C111.494 115.233 104.455 115.366 101.389 115.431C101.873 114.551 102.43 113.703 103.055 112.893C103.055 112.893 129.572 106.09 130.684 106.767C130.98 106.952 131.41 108.167 131.835 109.938Z" fill="black"/>
<path d="M110.654 72.1847C110.654 72.1847 103.502 73.1648 101.814 74.1262C100.126 75.0876 96.7825 76.945 96.7825 80.9283C96.7825 84.9116 96.0004 88.9929 95.5516 90.1573C95.1028 91.3218 102.601 100.747 102.601 100.747L99.9137 115.03C99.9137 115.03 110.664 114.738 114.244 115.03C117.824 115.322 130.352 110.172 130.352 110.172C130.352 110.172 137.737 106.772 139.304 106.672C140.871 106.571 136.17 99.1903 136.17 99.1903C136.17 99.1903 128.895 87.2428 130.126 85.299C131.357 83.3552 132.26 80.5386 132.26 80.5386L130.916 70.6306C130.916 70.6306 128.903 70.0472 127.223 71.116C125.543 72.1847 119.837 71.6013 119.837 71.6013L110.654 72.1847Z" fill="#FF6484"/>
<path opacity="0.1" d="M98.5138 89.4782L95.7079 90.1573L94.9311 99.3C94.9311 99.3 95.939 101.729 94.9311 102.506C93.9233 103.283 93.7002 119.898 93.7002 119.898C93.7002 119.898 96.9469 121.937 100.75 120.383C100.75 120.383 100.191 118.537 101.871 111.833C103.55 105.129 103.548 101.729 103.548 101.729C103.548 101.729 103.548 93.3729 104.333 92.0124C105.117 90.652 104.333 87.2521 104.333 87.2521C104.333 87.2521 102.766 85.4063 102.876 84.7272C102.986 84.0482 98.5138 89.4782 98.5138 89.4782Z" fill="black"/>
<path opacity="0.1" d="M99.8543 120.92C98.2065 121.402 96.4129 121.345 94.8096 120.761C95.0137 120.263 95.2533 119.777 95.5272 119.305L98.5696 117.702C98.5696 117.702 99.2012 119.076 99.8543 120.92Z" fill="black"/>
<path d="M98.3441 89.4783L95.5463 90.1574L94.7642 99.3C94.7642 99.3 95.772 101.729 94.7642 102.506C93.7563 103.283 93.5332 119.898 93.5332 119.898C93.5332 119.898 96.7826 121.935 100.583 120.374C100.583 120.374 100.024 118.528 101.701 111.824C103.378 105.12 103.381 101.72 103.381 101.72C103.381 101.72 103.381 93.3636 104.163 92.0032C104.945 90.6427 104.163 87.2428 104.163 87.2428C104.163 87.2428 102.596 85.397 102.709 84.718C102.822 84.0389 98.3441 89.4783 98.3441 89.4783Z" fill="#FF6484"/>
<path opacity="0.1" d="M126.992 90.9343C126.992 90.9343 125.538 101.815 121.283 103.857C121.283 103.857 130.795 101.526 126.992 90.9343Z" fill="black"/>
<path opacity="0.1" d="M105.62 91.9075C105.62 91.9075 110.877 94.1406 109.652 95.6947C108.426 97.2489 105.62 91.9075 105.62 91.9075Z" fill="black"/>
<path opacity="0.1" d="M105.62 96.3761C105.62 96.3761 108.977 99.3886 108.308 100.457C107.639 101.526 105.62 96.3761 105.62 96.3761Z" fill="black"/>
<path opacity="0.1" d="M132.698 71.4076C132.698 71.4076 134.015 73.3491 134.142 74.6138C134.268 75.8786 132.698 71.4076 132.698 71.4076Z" fill="black"/>
<path opacity="0.1" d="M132.698 68.7847C132.698 68.7847 133.359 68.297 135.047 68.7847C136.735 69.2724 132.698 68.7847 132.698 68.7847Z" fill="black"/>
<path opacity="0.1" d="M126.236 125.571C123.464 125.912 120.636 125.598 118.052 124.661L116.641 127.797L116.485 126.345C116.716 125.127 117.165 123.823 118.052 123.494C118.052 123.494 121.159 125.643 126.236 125.571Z" fill="black"/>
<path opacity="0.1" d="M103.281 129.652C103.281 129.652 110.164 130.891 112.094 130.672L103.281 129.652Z" fill="black"/>
<path opacity="0.1" d="M103.996 131.218C103.996 131.218 106.934 131.108 108.401 131.619L103.996 131.218Z" fill="black"/>
<path opacity="0.1" d="M104.332 132.275C105.672 132.522 107.033 132.678 108.401 132.741L104.332 132.275Z" fill="black"/>
<path opacity="0.1" d="M104.163 145.646C104.289 145.573 110.038 144.407 110.753 145.244L104.163 145.646Z" fill="black"/>
<path opacity="0.1" d="M104.163 147.176C104.163 147.176 109.157 146.665 109.283 147.176C109.409 147.687 104.163 147.176 104.163 147.176Z" fill="black"/>
<path opacity="0.1" d="M104.163 148.56C104.163 148.56 109.493 147.603 110.122 147.837C110.751 148.07 104.163 148.56 104.163 148.56Z" fill="black"/>
<path opacity="0.1" d="M104.416 181.206L98.374 184.814C98.374 184.814 98.409 184.391 98.4681 183.771C99.8119 180.9 101.562 179.386 101.562 179.386C102.924 179.078 103.784 179.363 104.319 179.92C104.341 180.695 104.416 181.206 104.416 181.206Z" fill="black"/>
<path d="M105.004 184.447C104.15 186.138 103.72 187.968 103.743 189.814C103.777 191.328 103.335 192.822 102.464 194.134C102.338 194.318 102.196 194.495 102.039 194.661C102.039 194.661 97.8413 194.631 96.3711 193.574C96.2059 193.46 96.0711 193.317 95.976 193.154C95.1348 191.697 97.6128 186.123 97.6128 186.123C98.9136 181.824 101.556 179.528 101.556 179.528C106.262 178.471 105.004 184.447 105.004 184.447Z" fill="#444053"/>
<path opacity="0.1" d="M102.465 194.122C102.339 194.307 102.197 194.483 102.04 194.649C102.04 194.649 97.8422 194.619 96.3721 193.562C97.0951 191.485 99.4011 185.201 100.482 186.27C101.497 187.273 102.204 192.101 102.465 194.122Z" fill="black"/>
<path d="M101.89 186.659L101.597 196.073H103.005C103.005 196.073 103.233 187.814 103.862 186.659C104.491 185.504 101.89 186.659 101.89 186.659Z" fill="#444053"/>
<path opacity="0.1" d="M119.397 187.434C119.397 187.434 113.229 182.37 113.858 181.969C114.027 181.862 114.193 181.43 114.347 180.856C115.532 180.676 117.572 181.106 119.26 185.217C119.3 186.384 119.397 187.434 119.397 187.434Z" fill="black"/>
<path d="M120.318 193.081C120.271 193.099 120.221 193.111 120.17 193.119C119.444 193.228 116.77 193.165 115.273 193.119C114.999 193.111 114.739 193.011 114.548 192.84C114.357 192.669 114.25 192.44 114.249 192.201C114.249 191.851 114.249 191.424 114.217 190.969C114.147 189.532 113.948 187.821 113.354 187.436C112.303 186.736 111.473 184.361 113.354 181.353C113.354 181.353 116.961 178.961 119.563 186.151C119.563 186.151 119.815 188.202 120.947 188.93C122.078 189.658 120.823 192.874 120.318 193.081Z" fill="#444053"/>
<path opacity="0.1" d="M120.165 193.118C119.439 193.228 116.765 193.165 115.268 193.118C114.994 193.111 114.734 193.011 114.543 192.84C114.352 192.668 114.245 192.44 114.244 192.201C114.244 191.851 114.244 191.424 114.212 190.969C114.666 189.229 115.319 187.436 116.16 187.028C116.166 187.026 118.711 186.776 120.165 193.118Z" fill="black"/>
<path d="M113.812 186.816L114.489 194.649H115.349V186.148L113.812 186.816Z" fill="#444053"/>
<path opacity="0.1" d="M115.913 50.7958C113.475 50.9534 111.115 51.6116 109.027 52.7163C108.49 52.9986 107.952 53.3417 107.729 53.848C107.536 54.2867 107.616 54.7814 107.624 55.2481C107.697 59.2664 102.536 62.307 102.698 66.323C102.762 67.9167 103.684 69.4008 103.853 70.99C104.136 73.6408 102.329 76.0793 100.599 78.2752C102.382 78.3694 104.138 77.8638 105.504 76.8634C107.33 82.1488 107.566 87.7525 106.189 93.1396H108.664C108.909 93.1241 109.154 93.1503 109.387 93.2166C109.605 93.3062 109.799 93.4323 109.96 93.5876C112.274 95.5874 113.825 98.544 112.94 101.274L118.208 99.5591C119.469 99.1484 120.748 98.7307 121.845 98.0539C122.941 97.3772 123.86 96.3948 124.092 95.2421C124.234 94.542 124.188 93.7066 124.852 93.3006C125.179 93.1496 125.528 93.0373 125.89 92.9669C127.336 92.5235 127.975 91.0721 128.271 89.7653C128.631 88.1621 128.744 86.5244 128.607 84.8953C128.373 82.1651 127.443 79.3929 128.209 76.728C128.642 75.2323 129.604 73.8392 129.682 72.2944C129.808 69.7485 127.516 67.555 127.174 65.0232C126.935 63.2591 127.669 61.4739 127.43 59.7098C127.297 58.7993 126.913 57.93 126.311 57.1756C125.709 56.4213 124.906 55.8041 123.971 55.3765C123.323 55.0871 122.627 54.8934 121.987 54.5738C120.528 53.8387 119.595 52.5156 118.27 51.6055C116.945 50.6955 114.738 50.3524 113.741 51.5355L115.913 50.7958Z" fill="black"/>
<path d="M115.913 50.5041C113.475 50.6617 111.115 51.3199 109.027 52.4246C108.49 52.7069 107.952 53.05 107.729 53.5563C107.535 53.995 107.616 54.4897 107.624 54.9564C107.697 58.9747 102.536 62.0153 102.698 66.0336C102.762 67.625 103.684 69.1091 103.853 70.7006C104.136 73.3514 102.329 75.79 100.599 77.9881C102.381 78.079 104.136 77.5738 105.504 76.5764C107.33 81.8603 107.566 87.4623 106.189 92.8479H108.664C108.909 92.8332 109.155 92.8601 109.387 92.9272C109.605 93.0151 109.8 93.1406 109.96 93.2959C112.274 95.2981 113.825 98.2523 112.94 100.982L118.208 99.2674C119.469 98.8567 120.748 98.439 121.845 97.7622C122.941 97.0855 123.86 96.1031 124.092 94.9504C124.234 94.2503 124.188 93.4149 124.852 93.0089C125.179 92.8579 125.528 92.7456 125.89 92.6752C127.336 92.2318 127.975 90.7804 128.271 89.4736C128.634 87.8692 128.75 86.2299 128.615 84.5989C128.381 81.8687 127.451 79.0965 128.217 76.4317C128.65 74.9359 129.612 73.5428 129.69 71.998C129.816 69.4522 127.524 67.2587 127.182 64.7268C126.943 62.9627 127.677 61.1799 127.438 59.4134C127.304 58.503 126.92 57.6339 126.318 56.8796C125.716 56.1253 124.914 55.508 123.979 55.0801C123.331 54.7907 122.635 54.5971 121.995 54.2797C120.536 53.5423 119.603 52.2192 118.278 51.3092C116.953 50.3991 114.747 50.0561 113.749 51.2391L115.913 50.5041Z" fill="#925978"/>
<g opacity="0.1">
<path opacity="0.1" d="M107.619 53.9856C107.608 54.0755 107.602 54.1659 107.603 54.2563C107.611 54.1676 107.616 54.0766 107.619 53.9856Z" fill="black"/>
<path opacity="0.1" d="M127.153 63.3266C127.25 62.0898 127.567 60.8484 127.449 59.6163C127.36 60.8531 127.043 62.0945 127.153 63.3266Z" fill="black"/>
<path opacity="0.1" d="M103.853 69.4754C103.697 68.0286 102.92 66.6752 102.738 65.2307C102.701 65.4955 102.688 65.7623 102.697 66.0288C102.762 67.6039 103.662 69.0763 103.845 70.6444C103.889 70.2558 103.892 69.8644 103.853 69.4754Z" fill="black"/>
<path opacity="0.1" d="M128.228 75.2229C127.976 76.1724 127.886 77.1488 127.959 78.1211C127.986 77.5541 128.076 76.9906 128.228 76.4386C128.661 74.9429 129.623 73.5498 129.701 72.005C129.714 71.7306 129.699 71.4558 129.658 71.1836C129.448 72.572 128.612 73.8648 128.228 75.2229Z" fill="black"/>
<path opacity="0.1" d="M105.504 75.3489C104.383 76.1645 102.995 76.6542 101.537 76.749C101.23 77.1643 100.913 77.5704 100.599 77.9717C102.381 78.0626 104.136 77.5574 105.504 76.56C106.485 79.3966 107.012 82.3374 107.068 85.2989C107.148 81.9317 106.62 78.5744 105.504 75.3489V75.3489Z" fill="black"/>
<path opacity="0.1" d="M128.279 88.2508C127.983 89.5576 127.343 91.009 125.897 91.45C125.535 91.5201 125.186 91.6332 124.86 91.7861C124.196 92.1921 124.242 93.0321 124.099 93.7275C123.868 94.8803 122.952 95.8604 121.852 96.5277C120.753 97.1951 119.477 97.6245 118.216 98.0352L113.19 99.6686C113.164 100.107 113.083 100.541 112.948 100.964L118.216 99.2486C119.477 98.8379 120.756 98.4202 121.852 97.7435C122.949 97.0668 123.868 96.0844 124.099 94.9316C124.242 94.2316 124.196 93.3962 124.86 92.9901C125.187 92.8391 125.536 92.7269 125.897 92.6565C127.343 92.2131 127.983 90.7617 128.279 89.4549C128.585 88.095 128.712 86.7094 128.658 85.3246C128.622 86.3073 128.495 87.2858 128.279 88.2508V88.2508Z" fill="black"/>
<path opacity="0.1" d="M109.968 92.0661C109.808 91.91 109.613 91.7838 109.396 91.695C109.163 91.6288 108.917 91.6019 108.673 91.6157H106.477C106.391 92.0217 106.299 92.4278 106.208 92.8315H108.683C108.928 92.8167 109.174 92.8437 109.406 92.9108C109.624 92.9987 109.819 93.1241 109.979 93.2795C111.672 94.7449 112.954 96.7191 113.174 98.7446C113.446 96.3224 112 93.8302 109.968 92.0661Z" fill="black"/>
</g>
<path opacity="0.1" d="M97.6885 100.019C97.6885 100.019 99.6881 99.2906 100.134 100.019C100.58 100.747 97.6885 100.019 97.6885 100.019Z" fill="black"/>
<path opacity="0.1" d="M98.3955 101.267C98.3955 101.267 100.395 100.539 100.844 101.267C101.293 101.995 98.3955 101.267 98.3955 101.267Z" fill="black"/>
<path opacity="0.1" d="M222.327 7.05189C222.327 7.05189 212.1 6.51752 213.307 12.7386C213.307 12.7386 213.068 13.8377 214.215 14.3371C214.215 14.3371 214.234 13.8704 215.264 14.0314C215.63 14.085 216.003 14.1006 216.374 14.0781C216.874 14.048 217.35 13.8767 217.728 13.5904V13.5904C217.728 13.5904 220.601 12.5613 221.719 8.48233C221.719 8.48233 222.547 7.59093 222.526 7.36225L220.8 8.00396C220.8 8.00396 221.389 9.08437 220.924 9.98277C220.924 9.98277 220.87 8.0413 220.537 8.08797C220.47 8.08797 219.642 8.46133 219.642 8.46133C219.642 8.46133 220.655 10.3445 219.889 11.7142C219.889 11.7142 220.179 9.39473 219.325 8.599L218.104 9.22672C218.104 9.22672 219.29 11.1705 218.486 12.7573C218.486 12.7573 218.693 10.3235 217.849 9.37606L216.747 10.1205C216.747 10.1205 217.863 12.0269 217.191 13.343C217.191 13.343 217.102 10.5078 216.516 10.2955C216.516 10.2955 215.554 11.0329 215.409 11.3362C215.409 11.3362 216.169 12.7363 215.696 13.4597C215.696 13.4597 215.406 11.5742 215.159 11.5649C215.159 11.5649 214.199 12.8156 214.1 13.665C214.146 12.8725 214.431 12.1042 214.925 11.4365C214.371 11.5275 213.861 11.758 213.457 12.0993C213.457 12.0993 213.605 11.2149 215.161 11.1355C215.161 11.1355 215.954 10.1881 216.167 10.1298C216.167 10.1298 214.619 10.0178 213.681 10.3795C213.681 10.3795 214.506 9.54407 216.452 9.91277L217.527 9.14271C217.527 9.14271 215.489 8.90936 214.624 9.16838C214.624 9.16838 215.618 8.43099 217.82 8.9677L219.002 8.35399C219.002 8.35399 217.266 8.0273 216.231 8.1463C216.231 8.1463 217.322 7.63527 219.349 8.18831L220.195 7.85928C220.195 7.85928 218.922 7.64227 218.551 7.60727C218.18 7.57226 218.158 7.48359 218.158 7.48359C218.964 7.36713 219.792 7.44793 220.548 7.71694C220.548 7.71694 222.356 7.1499 222.327 7.05189Z" fill="#E73361"/>
<path opacity="0.1" d="M207.751 2.00684C207.751 2.00684 199.15 6.83952 204.367 11.2288C204.367 11.2288 204.924 12.2369 206.189 12.0502C206.189 12.0502 205.888 11.6675 206.826 11.2638C207.159 11.1185 207.47 10.9391 207.754 10.7295C208.137 10.4475 208.404 10.065 208.514 9.63973V9.63973C208.514 9.63973 210.127 7.32956 208.245 3.46994C208.245 3.46994 208.305 2.32653 208.122 2.15851L207.17 3.55862C207.17 3.55862 208.383 4.12566 208.622 5.08706C208.622 5.08706 207.254 3.55395 207.009 3.76163C206.961 3.80363 206.542 4.52469 206.542 4.52469C206.542 4.52469 208.646 5.51876 208.96 7.01454C208.96 7.01454 207.617 4.99606 206.378 4.79771L205.819 5.91779C205.819 5.91779 208.103 6.87453 208.538 8.56632C208.538 8.56632 207.041 6.49883 205.716 6.16981L205.34 7.33656C205.34 7.33656 207.544 8.3073 207.896 9.71673C207.896 9.71673 205.891 7.48124 205.273 7.61658C205.273 7.61658 205.004 8.70399 205.09 9.01668C205.09 9.01668 206.654 9.74474 206.773 10.5801C206.773 10.5801 205.251 9.21036 205.055 9.32471C205.055 9.32471 205.136 10.8251 205.638 11.5672C205.136 10.9047 204.841 10.1397 204.784 9.34804C204.4 9.70599 204.146 10.1539 204.053 10.6361C204.053 10.6361 203.569 9.84741 204.77 8.98401C204.77 8.98401 204.77 7.81726 204.891 7.65625C204.891 7.65625 203.569 8.3563 203.058 9.13569C203.058 9.13569 203.155 8.03895 204.98 7.34356L205.329 6.16514C205.329 6.16514 203.523 7.0192 203.01 7.67959C203.01 7.67959 203.308 6.5735 205.445 5.87345L205.982 4.76971C205.982 4.76971 204.37 5.40208 203.607 6.0298C203.607 6.0298 204.144 5.05439 206.149 4.45935L206.606 3.7593C206.606 3.7593 205.432 4.24 205.109 4.40335C204.786 4.56669 204.709 4.50602 204.709 4.50602C205.278 3.99734 205.999 3.63619 206.791 3.46294C206.791 3.46294 207.842 2.07217 207.751 2.00684Z" fill="#E73361"/>
<path opacity="0.1" d="M194.662 7.63758C194.662 7.63758 189.521 15.3381 196.463 17.1886C196.463 17.1886 197.487 17.8677 198.516 17.1886C198.516 17.1886 198.052 16.9693 198.675 16.2389C198.892 15.9782 199.072 15.6962 199.213 15.3988C199.407 14.9964 199.446 14.5502 199.323 14.1271V14.1271C199.323 14.1271 199.551 11.4342 195.856 8.73433C195.856 8.73433 195.318 7.69358 195.049 7.61658L194.934 9.25003C194.934 9.25003 196.31 9.27803 197.028 10.0411C197.028 10.0411 195.006 9.21269 194.904 9.49038C194.883 9.54639 194.885 10.3538 194.885 10.3538C194.885 10.3538 197.302 10.4168 198.377 11.6255C198.377 11.6255 196.119 10.3584 194.918 10.6665L195.004 11.8846C195.004 11.8846 197.538 11.8379 198.809 13.175C198.809 13.175 196.391 11.9219 195.047 12.1506L195.315 13.3383C195.315 13.3383 197.788 13.3383 198.836 14.4537C198.836 14.4537 195.88 13.2497 195.399 13.6067C195.399 13.6067 195.724 14.6848 195.971 14.9344C195.971 14.9344 197.745 14.9671 198.288 15.6648C198.288 15.6648 196.216 15.0418 196.1 15.2238C196.1 15.2238 196.958 16.5282 197.794 16.9903C197 16.5999 196.338 16.0369 195.872 15.3568C195.717 15.8267 195.725 16.3257 195.893 16.7919C195.893 16.7919 195.049 16.2809 195.668 15.0371C195.668 15.0371 195.049 13.9964 195.084 13.8074C195.084 13.8074 194.278 14.9578 194.224 15.8468C194.224 15.8468 193.735 14.8318 194.998 13.4947L194.695 12.3046C194.695 12.3046 193.531 13.777 193.418 14.5681C193.418 14.5681 193.106 13.4643 194.646 12.0012L194.544 10.8088C194.544 10.8088 193.431 12.0106 193.087 12.867C193.087 12.867 193.05 11.7889 194.531 10.4658L194.571 9.66073C194.571 9.66073 193.765 10.5498 193.574 10.8275C193.383 11.1052 193.27 11.0655 193.27 11.0655C193.512 10.3873 193.966 9.7807 194.582 9.31303C194.582 9.31303 194.775 7.65858 194.662 7.63758Z" fill="#E73361"/>
<path d="M238.807 95.4194C238.046 95.4194 237.302 95.6152 236.67 95.9821C236.037 96.3491 235.545 96.8706 235.253 97.4808C234.962 98.0909 234.886 98.7623 235.035 99.4101C235.183 100.058 235.549 100.653 236.087 101.12C236.625 101.587 237.31 101.905 238.056 102.034C238.802 102.163 239.576 102.096 240.279 101.844C240.981 101.591 241.582 101.163 242.005 100.614C242.427 100.065 242.653 99.4191 242.653 98.7586C242.65 97.8738 242.244 97.0258 241.523 96.4001C240.802 95.7744 239.826 95.4218 238.807 95.4194V95.4194ZM227.562 69.2164V72.5557H231.408L238.331 84.7319L235.436 88.8226C235.12 89.3064 234.955 89.8532 234.955 90.4093C234.955 92.6448 236.716 93.7486 239.102 93.7486H261.59V90.5377H239.573C239.509 90.5411 239.444 90.5326 239.384 90.5128C239.324 90.4931 239.269 90.4624 239.224 90.4229C239.178 90.3834 239.143 90.336 239.12 90.2838C239.097 90.2316 239.088 90.1757 239.092 90.12C239.142 89.9756 239.211 89.8363 239.296 89.7046L241.218 87.0701H255.546C256.238 87.075 256.918 86.914 257.512 86.6048C258.106 86.2956 258.59 85.8502 258.91 85.3176L265.837 74.9779C265.972 74.7153 266.038 74.4299 266.03 74.1425C266.027 73.9276 265.975 73.7154 265.876 73.5184C265.777 73.3214 265.634 73.1437 265.454 72.9957C265.275 72.8477 265.063 72.7325 264.832 72.6569C264.6 72.5814 264.353 72.5469 264.106 72.5557H235.641L233.813 69.2164H227.562ZM257.741 95.4194C256.981 95.4198 256.237 95.6161 255.605 95.9833C254.973 96.3505 254.481 96.8722 254.19 97.4824C253.899 98.0926 253.824 98.7639 253.972 99.4115C254.121 100.059 254.487 100.654 255.025 101.121C255.563 101.587 256.249 101.905 256.995 102.034C257.741 102.163 258.514 102.096 259.216 101.843C259.919 101.591 260.52 101.163 260.942 100.614C261.365 100.064 261.59 99.419 261.59 98.7586C261.587 97.8734 261.181 97.0251 260.46 96.3993C259.738 95.7736 258.761 95.4212 257.741 95.4194V95.4194Z" fill="#E73361"/>
<path d="M252.82 78.4547H249.595V75.6545H247.176V78.4547H243.951V80.5549H247.176V83.3551H249.595V80.5549H252.82V78.4547Z" fill="white"/>
</g>
<defs>
<linearGradient id="paint0_linear" x1="164.598" y1="138.092" x2="164.598" y2="22.2943" gradientUnits="userSpaceOnUse">
<stop stop-color="#808080" stop-opacity="0.25"/>
<stop offset="0.54" stop-color="#808080" stop-opacity="0.12"/>
<stop offset="1" stop-color="#808080" stop-opacity="0.1"/>
</linearGradient>
<clipPath id="clip0">
<rect width="300" height="200" fill="white"/>
</clipPath>
</defs>
</svg>
