<svg width="300" height="200" viewBox="0 0 300 200" fill="none" xmlns="http://www.w3.org/2000/svg">
<g clip-path="url(#clip0)">
<path d="M251.5 199C278.286 199 300 196.538 300 193.5C300 190.462 278.286 188 251.5 188C224.714 188 203 190.462 203 193.5C203 196.538 224.714 199 251.5 199Z" fill="#FAF0F0"/>
<path d="M38.2484 149.243C59.3725 149.243 76.4969 133.991 76.4969 115.178C76.4969 96.3647 59.3725 81.1134 38.2484 81.1134C17.1244 81.1134 0 96.3647 0 115.178C0 133.991 17.1244 149.243 38.2484 149.243Z" fill="#E73361"/>
<path d="M44.4682 144.258C65.5922 144.258 82.7166 129.006 82.7166 110.193C82.7166 91.3796 65.5922 76.1283 44.4682 76.1283C23.3441 76.1283 6.21973 91.3796 6.21973 110.193C6.21973 129.006 23.3441 144.258 44.4682 144.258Z" fill="#FAF0F0"/>
<path d="M213.912 46.8662H212.695V17.181C212.695 14.9247 212.196 12.6906 211.226 10.6061C210.257 8.5216 208.836 6.62758 207.045 5.03218C205.253 3.43677 203.127 2.17123 200.786 1.30781C198.446 0.444386 195.937 -8.00117e-06 193.404 1.18098e-10H122.787C120.254 -8.36486e-06 117.745 0.444384 115.405 1.30781C113.064 2.17123 110.938 3.43677 109.146 5.03217C107.355 6.62758 105.934 8.5216 104.965 10.6061C103.995 12.6906 103.496 14.9247 103.496 17.181V180.036C103.496 182.292 103.995 184.527 104.965 186.611C105.934 188.696 107.355 190.59 109.146 192.185C110.938 193.78 113.064 195.046 115.405 195.909C117.745 196.773 120.254 197.217 122.787 197.217H193.404C195.937 197.217 198.446 196.773 200.786 195.909C203.127 195.046 205.253 193.78 207.045 192.185C208.836 190.59 210.257 188.696 211.226 186.611C212.196 184.527 212.695 182.292 212.695 180.036V67.9966H213.912L213.912 46.8662Z" fill="#3F3D56"/>
<path d="M193.726 4.87622H184.508C184.932 5.80181 185.094 6.80604 184.98 7.80045C184.865 8.79486 184.478 9.74892 183.852 10.5786C183.226 11.4083 182.38 12.0881 181.39 12.5582C180.399 13.0282 179.294 13.2741 178.171 13.2742H137.716C136.594 13.2741 135.489 13.0282 134.498 12.5582C133.508 12.0881 132.662 11.4083 132.036 10.5786C131.41 9.74892 131.022 8.79486 130.908 7.80045C130.793 6.80604 130.955 5.80181 131.379 4.87622H122.77C120.878 4.87622 119.004 5.20809 117.257 5.85288C115.509 6.49768 113.921 7.44277 112.583 8.63419C111.245 9.82562 110.184 11.24 109.46 12.7967C108.736 14.3534 108.363 16.0218 108.363 17.7068V180.323C108.363 182.008 108.736 183.676 109.46 185.233C110.184 186.79 111.245 188.204 112.583 189.396C113.921 190.587 115.509 191.532 117.257 192.177C119.004 192.822 120.878 193.154 122.77 193.154H193.726C195.618 193.154 197.491 192.822 199.239 192.177C200.987 191.532 202.575 190.587 203.913 189.396C205.251 188.204 206.312 186.79 207.036 185.233C207.76 183.676 208.133 182.008 208.133 180.323V17.7068C208.133 16.0218 207.76 14.3534 207.036 12.7967C206.312 11.2401 205.251 9.82563 203.913 8.6342C202.575 7.44277 200.987 6.49768 199.239 5.85288C197.491 5.20809 195.618 4.87622 193.726 4.87622ZM192.178 80.315C192.175 81.1956 191.781 82.0394 191.081 82.6621C190.382 83.2848 189.435 83.6358 188.446 83.6383H170.41C169.421 83.6358 168.474 83.2848 167.775 82.6621C167.076 82.0394 166.682 81.1956 166.679 80.315V79.4841C166.682 78.6035 167.076 77.7597 167.775 77.137C168.474 76.5143 169.421 76.1633 170.41 76.1607H188.446C189.435 76.1633 190.382 76.5143 191.081 77.137C191.781 77.7597 192.175 78.6035 192.178 79.4841V80.315ZM194.199 65.6367C194.196 66.5173 193.802 67.3611 193.103 67.9838C192.404 68.6065 191.456 68.9575 190.467 68.9601H125.787C124.798 68.9575 123.851 68.6065 123.152 67.9838C122.452 67.3611 122.058 66.5173 122.055 65.6367V64.8059C122.058 63.9252 122.452 63.0814 123.152 62.4587C123.851 61.836 124.798 61.4851 125.787 61.4825H190.467C191.456 61.4851 192.404 61.836 193.103 62.4587C193.802 63.0814 194.196 63.9252 194.199 64.8059V65.6367ZM194.199 50.9584C194.196 51.8391 193.802 52.6829 193.103 53.3056C192.404 53.9283 191.456 54.2792 190.467 54.2818H125.787C124.798 54.2792 123.851 53.9283 123.152 53.3056C122.452 52.6829 122.058 51.8391 122.055 50.9584V50.1276C122.058 49.247 122.452 48.4032 123.152 47.7805C123.851 47.1578 124.798 46.8068 125.787 46.8042H190.467C191.456 46.8068 192.404 47.1578 193.103 47.7805C193.802 48.4032 194.196 49.247 194.199 50.1276V50.9584ZM194.199 36.2802C194.196 37.1608 193.802 38.0046 193.103 38.6273C192.404 39.25 191.456 39.601 190.467 39.6036H125.787C124.798 39.601 123.851 39.25 123.152 38.6273C122.452 38.0046 122.058 37.1608 122.055 36.2802V35.4493C122.058 34.5687 122.452 33.7249 123.152 33.1022C123.851 32.4795 124.798 32.1285 125.787 32.126H190.467C191.456 32.1285 192.404 32.4795 193.103 33.1022C193.802 33.7249 194.196 34.5687 194.199 35.4493V36.2802Z" fill="#FAF0F0"/>
<path d="M127.497 67.2984C128.699 67.2984 129.674 66.4305 129.674 65.3598C129.674 64.2891 128.699 63.4211 127.497 63.4211C126.295 63.4211 125.32 64.2891 125.32 65.3598C125.32 66.4305 126.295 67.2984 127.497 67.2984Z" fill="#D0CDE1"/>
<path d="M134.649 67.2984C135.852 67.2984 136.826 66.4305 136.826 65.3598C136.826 64.2891 135.852 63.4211 134.649 63.4211C133.447 63.4211 132.473 64.2891 132.473 65.3598C132.473 66.4305 133.447 67.2984 134.649 67.2984Z" fill="#D0CDE1"/>
<path d="M141.802 67.2984C143.004 67.2984 143.978 66.4305 143.978 65.3598C143.978 64.2891 143.004 63.4211 141.802 63.4211C140.6 63.4211 139.625 64.2891 139.625 65.3598C139.625 66.4305 140.6 67.2984 141.802 67.2984Z" fill="#D0CDE1"/>
<path d="M148.954 67.2984C150.156 67.2984 151.131 66.4305 151.131 65.3598C151.131 64.2891 150.156 63.4211 148.954 63.4211C147.752 63.4211 146.777 64.2891 146.777 65.3598C146.777 66.4305 147.752 67.2984 148.954 67.2984Z" fill="#D0CDE1"/>
<path d="M172.276 81.9766C173.479 81.9766 174.453 81.1087 174.453 80.038C174.453 78.9673 173.479 78.0994 172.276 78.0994C171.074 78.0994 170.1 78.9673 170.1 80.038C170.1 81.1087 171.074 81.9766 172.276 81.9766Z" fill="#D0CDE1"/>
<path d="M179.428 81.9766C180.63 81.9766 181.604 81.1087 181.604 80.038C181.604 78.9673 180.63 78.0994 179.428 78.0994C178.226 78.0994 177.251 78.9673 177.251 80.038C177.251 81.1087 178.226 81.9766 179.428 81.9766Z" fill="#D0CDE1"/>
<path d="M186.58 81.9766C187.782 81.9766 188.757 81.1087 188.757 80.038C188.757 78.9673 187.782 78.0994 186.58 78.0994C185.378 78.0994 184.403 78.9673 184.403 80.038C184.403 81.1087 185.378 81.9766 186.58 81.9766Z" fill="#D0CDE1"/>
<path d="M123.118 114.383C120.856 113.172 118.129 113.264 117.093 113.357C117.488 114.215 118.672 116.404 120.934 117.616C123.201 118.831 125.924 118.735 126.959 118.643C126.564 117.785 125.38 115.595 123.118 114.383Z" fill="#D0CDE1"/>
<path d="M133.745 138.417H119.61C118.767 138.417 117.958 138.716 117.361 139.247C116.765 139.778 116.43 140.499 116.43 141.25C116.43 142.001 116.765 142.722 117.361 143.253C117.958 143.784 118.767 144.082 119.61 144.082H133.745C134.588 144.082 135.397 143.784 135.993 143.253C136.59 142.722 136.925 142.001 136.925 141.25C136.925 140.499 136.59 139.778 135.993 139.247C135.397 138.716 134.588 138.417 133.745 138.417H133.745Z" fill="#D0CDE1"/>
<path d="M197.751 108.52H118.502C117.581 108.52 116.668 108.681 115.816 108.996C114.964 109.31 114.19 109.77 113.539 110.351C112.887 110.931 112.37 111.621 112.017 112.379C111.664 113.138 111.482 113.951 111.482 114.772V149.16C111.482 150.818 112.222 152.408 113.539 153.581C114.855 154.753 116.641 155.412 118.502 155.412H197.751C199.613 155.412 201.399 154.753 202.715 153.581C204.032 152.408 204.771 150.818 204.771 149.16V114.772C204.771 113.951 204.59 113.138 204.237 112.379C203.884 111.621 203.367 110.931 202.715 110.351C202.063 109.77 201.289 109.31 200.438 108.996C199.586 108.681 198.673 108.52 197.751 108.52V108.52ZM116.542 112.785C116.698 112.759 120.409 112.197 123.482 113.844C126.555 115.49 127.735 118.674 127.784 118.808L127.908 119.152L127.509 119.215C126.94 119.294 126.365 119.331 125.789 119.327C124.394 119.327 122.372 119.122 120.569 118.155C117.496 116.509 116.316 113.325 116.267 113.191L116.143 112.848L116.542 112.785ZM133.745 144.712H119.61C118.579 144.712 117.59 144.347 116.861 143.698C116.132 143.049 115.723 142.168 115.723 141.25C115.723 140.332 116.132 139.451 116.861 138.802C117.59 138.153 118.579 137.788 119.61 137.788H133.745C134.775 137.788 135.764 138.153 136.493 138.802C137.222 139.451 137.632 140.332 137.632 141.25C137.632 142.168 137.222 143.049 136.493 143.698C135.764 144.347 134.775 144.712 133.745 144.712H133.745ZM198.057 144.082C198.054 145.083 197.606 146.042 196.812 146.75C196.017 147.457 194.941 147.856 193.817 147.859H183.216C182.092 147.856 181.016 147.457 180.221 146.75C179.427 146.042 178.979 145.083 178.975 144.082V138.417C178.979 137.417 179.427 136.458 180.221 135.75C181.016 135.043 182.092 134.644 183.216 134.641H193.817C194.941 134.644 196.017 135.043 196.812 135.75C197.606 136.458 198.054 137.417 198.057 138.417V144.082Z" fill="#E73361"/>
<path d="M186.574 142.981H181.98C181.652 142.981 181.337 143.097 181.105 143.303C180.873 143.51 180.743 143.79 180.743 144.082C180.743 144.374 180.873 144.655 181.105 144.861C181.337 145.068 181.652 145.184 181.98 145.184H186.574C186.901 145.183 187.215 145.067 187.447 144.861C187.679 144.654 187.809 144.374 187.809 144.082C187.809 143.791 187.679 143.511 187.447 143.304C187.215 143.098 186.901 142.981 186.574 142.981ZM186.574 144.554H181.98C181.84 144.554 181.705 144.504 181.606 144.416C181.507 144.327 181.451 144.207 181.451 144.082C181.451 143.957 181.507 143.837 181.606 143.749C181.705 143.66 181.84 143.611 181.98 143.61H186.574C186.714 143.61 186.849 143.66 186.949 143.749C187.048 143.837 187.104 143.957 187.104 144.082C187.104 144.208 187.048 144.328 186.949 144.416C186.849 144.505 186.714 144.554 186.574 144.554Z" fill="#D0CDE1"/>
<path d="M195.054 142.981H190.46C190.132 142.981 189.818 143.097 189.586 143.303C189.354 143.51 189.224 143.79 189.224 144.082C189.224 144.374 189.354 144.655 189.586 144.861C189.818 145.068 190.132 145.184 190.46 145.184H195.054C195.382 145.183 195.696 145.067 195.927 144.861C196.159 144.654 196.289 144.374 196.289 144.082C196.289 143.791 196.159 143.511 195.927 143.304C195.696 143.098 195.382 142.981 195.054 142.981ZM195.054 144.554H190.46C190.32 144.554 190.185 144.505 190.086 144.416C189.986 144.328 189.93 144.208 189.93 144.082C189.93 143.957 189.986 143.837 190.086 143.749C190.185 143.66 190.32 143.61 190.46 143.61H195.054C195.195 143.61 195.33 143.66 195.429 143.749C195.528 143.837 195.584 143.957 195.584 144.082C195.584 144.208 195.528 144.328 195.429 144.416C195.33 144.505 195.195 144.554 195.054 144.554Z" fill="#D0CDE1"/>
<path d="M186.574 140.148H181.98C181.652 140.148 181.337 140.264 181.105 140.471C180.873 140.678 180.743 140.958 180.743 141.25C180.743 141.542 180.873 141.822 181.105 142.029C181.337 142.235 181.652 142.351 181.98 142.351H186.574C186.902 142.351 187.216 142.235 187.448 142.029C187.68 141.822 187.811 141.542 187.811 141.25C187.811 140.958 187.68 140.678 187.448 140.471C187.216 140.264 186.902 140.148 186.574 140.148V140.148ZM186.574 141.722H181.98C181.84 141.722 181.705 141.672 181.606 141.583C181.507 141.495 181.451 141.375 181.451 141.25C181.451 141.125 181.507 141.005 181.606 140.917C181.705 140.828 181.84 140.778 181.98 140.778H186.574C186.714 140.778 186.849 140.828 186.949 140.916C187.048 141.005 187.104 141.125 187.104 141.25C187.104 141.375 187.048 141.495 186.949 141.584C186.849 141.672 186.714 141.722 186.574 141.722Z" fill="#D0CDE1"/>
<path d="M195.054 140.148H190.46C190.132 140.148 189.818 140.264 189.586 140.471C189.354 140.678 189.224 140.958 189.224 141.25C189.224 141.542 189.354 141.822 189.586 142.029C189.818 142.235 190.132 142.351 190.46 142.351H195.054C195.382 142.351 195.697 142.235 195.929 142.029C196.161 141.822 196.291 141.542 196.291 141.25C196.291 140.958 196.161 140.678 195.929 140.471C195.697 140.264 195.382 140.148 195.054 140.148V140.148ZM195.054 141.722H190.46C190.32 141.722 190.185 141.672 190.086 141.584C189.986 141.495 189.93 141.375 189.93 141.25C189.93 141.125 189.986 141.005 190.086 140.916C190.185 140.828 190.32 140.778 190.46 140.778H195.054C195.195 140.778 195.33 140.828 195.429 140.916C195.528 141.005 195.584 141.125 195.584 141.25C195.584 141.375 195.528 141.495 195.429 141.584C195.33 141.672 195.195 141.722 195.054 141.722Z" fill="#D0CDE1"/>
<path d="M186.574 137.316H181.98C181.818 137.316 181.657 137.344 181.507 137.4C181.357 137.455 181.22 137.536 181.105 137.639C180.991 137.741 180.899 137.862 180.837 137.996C180.775 138.13 180.743 138.273 180.743 138.417C180.743 138.562 180.775 138.705 180.837 138.839C180.899 138.973 180.991 139.094 181.105 139.196C181.22 139.299 181.357 139.38 181.507 139.435C181.657 139.49 181.818 139.519 181.98 139.519H186.574C186.902 139.519 187.216 139.403 187.448 139.196C187.68 138.99 187.811 138.71 187.811 138.417C187.811 138.125 187.68 137.845 187.448 137.639C187.216 137.432 186.902 137.316 186.574 137.316V137.316ZM186.574 138.889H181.98C181.84 138.889 181.705 138.839 181.606 138.751C181.507 138.662 181.451 138.542 181.451 138.417C181.451 138.292 181.507 138.173 181.606 138.084C181.705 137.996 181.84 137.946 181.98 137.945H186.574C186.714 137.946 186.849 137.996 186.948 138.084C187.047 138.173 187.102 138.292 187.102 138.417C187.102 138.542 187.047 138.662 186.948 138.751C186.849 138.839 186.714 138.889 186.574 138.889V138.889Z" fill="#D0CDE1"/>
<path d="M195.054 137.316H190.46C190.298 137.316 190.137 137.344 189.987 137.4C189.837 137.455 189.701 137.536 189.586 137.639C189.471 137.741 189.38 137.862 189.318 137.996C189.256 138.13 189.224 138.273 189.224 138.417C189.224 138.562 189.256 138.705 189.318 138.839C189.38 138.973 189.471 139.094 189.586 139.196C189.701 139.299 189.837 139.38 189.987 139.435C190.137 139.49 190.298 139.519 190.46 139.519H195.054C195.382 139.519 195.697 139.403 195.929 139.196C196.161 138.99 196.291 138.71 196.291 138.417C196.291 138.125 196.161 137.845 195.929 137.639C195.697 137.432 195.382 137.316 195.054 137.316V137.316ZM195.054 138.889H190.46C190.32 138.889 190.185 138.84 190.086 138.751C189.986 138.663 189.93 138.543 189.93 138.417C189.93 138.292 189.986 138.172 190.086 138.084C190.185 137.995 190.32 137.945 190.46 137.945H195.054C195.195 137.946 195.329 137.996 195.428 138.084C195.527 138.173 195.583 138.292 195.583 138.417C195.583 138.542 195.527 138.662 195.428 138.751C195.329 138.839 195.195 138.889 195.054 138.889V138.889Z" fill="#D0CDE1"/>
<path d="M255.449 16.6169H256.401C258.542 16.6169 260.278 14.881 260.278 12.7397C260.278 10.5983 258.542 8.86239 256.401 8.86239H255.449C253.307 8.86239 251.571 10.5983 251.571 12.7397C251.571 14.881 253.307 16.6169 255.449 16.6169Z" fill="#F2F2F2"/>
<path d="M253.583 18.5555H254.536C256.677 18.5555 258.413 16.8196 258.413 14.6783C258.413 12.5369 256.677 10.801 254.536 10.801H253.583C251.442 10.801 249.706 12.5369 249.706 14.6783C249.706 16.8196 251.442 18.5555 253.583 18.5555Z" fill="#E73361"/>
<path d="M241.31 19.9402C241.31 16.4223 244.161 13.5704 247.679 13.5704H249.244C252.762 13.5704 255.614 16.4223 255.614 19.9402V19.9402C255.614 23.4582 252.762 26.3101 249.244 26.3101H247.679C244.161 26.3101 241.31 23.4582 241.31 19.9402V19.9402ZM254.992 19.9402C254.992 16.7282 252.388 14.1243 249.176 14.1243H247.747C244.535 14.1243 241.931 16.7282 241.931 19.9402V19.9402C241.931 23.1523 244.535 25.7562 247.747 25.7562H249.176C252.388 25.7562 254.992 23.1523 254.992 19.9402V19.9402Z" fill="#E73361"/>
<path d="M86.3043 72.8374H85.3519C83.2105 72.8374 81.4746 74.5733 81.4746 76.7147C81.4746 78.856 83.2105 80.5919 85.3519 80.5919H86.3043C88.4457 80.5919 90.1816 78.856 90.1816 76.7147C90.1816 74.5733 88.4457 72.8374 86.3043 72.8374Z" fill="#F2F2F2"/>
<path d="M88.1705 70.8988H87.2181C85.0767 70.8988 83.3408 72.6347 83.3408 74.7761C83.3408 76.9174 85.0767 78.6534 87.2181 78.6534H88.1705C90.3119 78.6534 92.0478 76.9174 92.0478 74.7761C92.0478 72.6347 90.3119 70.8988 88.1705 70.8988Z" fill="#E73361"/>
<path d="M100.444 69.514C100.444 73.0319 97.5921 75.8838 94.0741 75.8838H92.5095C88.9915 75.8838 86.1396 73.0319 86.1396 69.514V69.514C86.1396 65.996 88.9915 63.1442 92.5095 63.1442H94.0741C97.5921 63.1442 100.444 65.996 100.444 69.514V69.514ZM86.7616 69.514C86.7616 72.726 89.3654 75.3299 92.5775 75.3299H94.0061C97.2181 75.3299 99.822 72.726 99.822 69.514V69.514C99.822 66.3019 97.2181 63.6981 94.0061 63.6981H92.5775C89.3655 63.6981 86.7616 66.3019 86.7616 69.514V69.514Z" fill="#E73361"/>
<path d="M229.5 116.83C229.5 116.83 224.075 126.896 227.692 127.299C231.308 127.701 232.212 118.239 232.212 118.239L229.5 116.83Z" fill="#FFB9B9"/>
<path d="M250.07 181.253L246.453 186.961L253.008 190.614L254.574 183.874L250.07 181.253Z" fill="#FFB9B9"/>
<path d="M248.525 187.754C248.525 187.754 246.539 184.874 245.821 185.356C245.103 185.838 242.14 187.927 242.14 187.927L238.281 191.219C238.281 191.219 225.243 192.446 233.528 196.515C241.812 200.583 246.39 197.21 246.39 197.21C246.39 197.21 257.994 197.747 257.806 194.864C257.619 191.981 253.877 187.419 253.877 187.419C253.877 187.419 249.161 190.236 248.525 187.754Z" fill="#2F2E41"/>
<path opacity="0.1" d="M248.525 187.754C248.525 187.754 246.539 184.874 245.821 185.356C245.103 185.838 242.14 187.927 242.14 187.927L238.281 191.219C238.281 191.219 225.243 192.446 233.528 196.515C241.812 200.583 246.39 197.21 246.39 197.21C246.39 197.21 257.994 197.747 257.806 194.864C257.619 191.981 253.877 187.419 253.877 187.419C253.877 187.419 249.161 190.236 248.525 187.754Z" fill="black"/>
<path d="M266.119 116.729L262.729 153.269C262.729 153.269 262.616 175.112 258.999 179.34C255.382 183.568 255.269 185.682 255.269 185.682L247.81 182.259C247.81 182.259 250.296 182.058 249.166 180.649C248.036 179.239 244.645 180.649 247.81 178.635C250.974 176.622 251.652 176.556 250.861 175.683C250.373 175.13 250.026 174.488 249.844 173.804L251.878 151.256L248.036 111.998L266.119 116.729Z" fill="#2F2E41"/>
<path opacity="0.1" d="M266.119 116.729L262.729 153.269C262.729 153.269 262.616 175.112 258.999 179.34C255.382 183.568 255.269 185.682 255.269 185.682L247.81 182.259C247.81 182.259 250.296 182.058 249.166 180.649C248.036 179.239 244.645 180.649 247.81 178.635C250.974 176.622 251.652 176.556 250.861 175.683C250.373 175.13 250.026 174.488 249.844 173.804L251.878 151.256L248.036 111.998L266.119 116.729Z" fill="black"/>
<path d="M256.852 181.253L260.016 188.701L269.058 185.682L263.407 180.447L256.852 181.253Z" fill="#FFB9B9"/>
<path d="M261.341 185.499C261.341 185.499 257.963 183.619 257.54 184.371C257.118 185.123 255.429 188.32 255.429 188.32L253.528 193.022C253.528 193.022 241.914 199.604 251.839 199.98C261.764 200.356 264.298 195.278 264.298 195.278C264.298 195.278 275.489 190.953 273.8 188.32C272.111 185.687 266.198 182.957 266.198 182.957C266.198 182.957 263.242 187.568 261.341 185.499Z" fill="#2F2E41"/>
<path d="M237.411 116.83L235.603 150.451C235.603 150.451 244.418 172.797 252.104 176.421C252.104 176.421 252.104 180.85 253.912 181.655C254.451 181.903 254.929 182.245 255.317 182.659C255.705 183.074 255.996 183.554 256.173 184.071L266.119 181.857C266.119 181.857 263.632 179.642 264.536 178.636C265.441 177.629 261.598 175.414 261.598 175.414L251.652 153.873C251.652 153.873 250.07 153.269 249.617 151.256C249.165 149.243 248.261 149.243 250.522 148.84C252.782 148.437 252.782 146.424 252.782 146.424L260.242 115.824L237.411 116.83Z" fill="#2F2E41"/>
<path d="M245.549 64.0843C250.542 64.0843 254.591 60.4789 254.591 56.0314C254.591 51.584 250.542 47.9786 245.549 47.9786C240.555 47.9786 236.507 51.584 236.507 56.0314C236.507 60.4789 240.555 64.0843 245.549 64.0843Z" fill="#FFB9B9"/>
<path d="M253.573 56.5347C253.573 56.5347 254.251 66.802 255.155 67.8086C256.059 68.8152 245.661 68.6139 245.661 68.6139C245.661 68.6139 246.339 59.9571 245.661 59.1518C244.983 58.3465 253.573 56.5347 253.573 56.5347Z" fill="#FFB9B9"/>
<path d="M256.624 64.6882C256.624 64.6882 248.035 63.8829 244.87 66.2987C243.859 67.0674 242.776 67.7575 241.633 68.3614C240.678 68.8714 239.882 69.5872 239.319 70.4428C238.756 71.2984 238.444 72.2663 238.411 73.2575L236.732 119.045C236.732 119.045 262.276 117.031 267.023 119.045C267.023 119.045 267.249 114.414 267.701 113.81C268.03 113.37 268.6 95.8111 268.885 86.3267C269.08 80.9699 266.955 75.7513 262.95 71.751C261.58 70.4004 260.049 69.2682 258.433 68.7146C258.433 68.7146 258.885 64.8895 256.624 64.6882Z" fill="#E73361"/>
<path d="M242.837 68.7147C241.564 69.0129 240.419 69.6393 239.545 70.5153C238.671 71.3912 238.107 72.4777 237.924 73.6381L234.699 94.081L230.178 110.388C230.178 110.388 227.917 112.2 228.822 113.206C229.726 114.213 227.691 118.441 227.691 118.441L233.343 120.051C233.343 120.051 234.021 115.824 235.151 115.622C236.144 115.445 247.263 88.9913 249.943 82.5827C250.313 81.6991 250.522 81.1965 250.522 81.1965C250.522 81.1965 250.07 67.7081 242.837 68.7147Z" fill="#E73361"/>
<path opacity="0.1" d="M250.408 81.0958L236.732 114.046C236.732 114.046 249.956 91.7658 250.408 81.0958Z" fill="black"/>
<path d="M250.272 58.4044C249.508 58.3638 248.761 58.5939 248.002 58.6837C245.285 59.0049 242.458 57.2492 241.859 54.8675C241.81 54.5503 241.704 54.2423 241.544 53.9558C241.126 53.3478 240.174 53.2318 239.389 53.3716C238.604 53.5114 237.86 53.8387 237.06 53.876C235.826 53.9337 234.641 53.2569 233.983 52.3249C233.362 51.3634 233.097 50.2515 233.228 49.1481L233.82 49.7012C234.06 49.2482 234.153 48.7441 234.088 48.2464C234.401 48.172 234.731 48.1706 235.045 48.2422C235.36 48.3139 235.648 48.4562 235.883 48.6556C236.405 48.705 236.011 47.7936 236.399 47.4787C236.587 47.3755 236.812 47.338 237.03 47.3735C238.14 47.3831 239.038 46.6269 239.912 46.0182C241.428 44.9659 243.2 44.2459 245.086 43.9164C246.339 43.6987 247.672 43.6637 248.861 44.0794C249.821 44.4631 250.687 45.0102 251.41 45.69C253.271 47.2837 254.919 49.1563 255.693 51.3499C256.323 53.1466 256.341 55.0691 255.745 56.8749C255.433 57.8126 254.493 61.0242 253.116 61.099C251.387 61.193 252.425 58.5188 250.272 58.4044Z" fill="#2F2E41"/>
</g>
<defs>
<clipPath id="clip0">
<rect width="300" height="200" fill="white"/>
</clipPath>
</defs>
</svg>
