<svg width="100" height="100" viewBox="0 0 100 100" fill="none" xmlns="http://www.w3.org/2000/svg">
<path d="M100 75C100 77.9468 98.8294 80.773 96.7456 82.8567C94.6619 84.9405 91.8357 86.1111 88.8889 86.1111H11.1111C8.16426 86.1111 5.33811 84.9405 3.25437 82.8567C1.17063 80.773 0 77.9468 0 75V66.6667C0 63.7198 1.17063 60.8936 3.25437 58.8099C5.33811 56.7262 8.16426 55.5555 11.1111 55.5555H88.8889C91.8357 55.5555 94.6619 56.7262 96.7456 58.8099C98.8294 60.8936 100 63.7198 100 66.6667V75Z" fill="#EB5757"/>
<path d="M52.7778 36.1111L50.0583 33.3333H19.85C11.1111 33.3333 8.33333 38.8889 8.33333 38.8889L0 55.4416V69.4444H52.7778V36.1111Z" fill="#EB5757"/>
<path d="M25 55.5556H5.55554L11.1111 44.4445C11.1111 44.4445 13.8889 38.8889 19.4444 38.8889H25V55.5556Z" fill="#FAF0F0"/>
<path d="M25 97.2222C31.1365 97.2222 36.1111 92.2476 36.1111 86.1111C36.1111 79.9746 31.1365 75 25 75C18.8635 75 13.8889 79.9746 13.8889 86.1111C13.8889 92.2476 18.8635 97.2222 25 97.2222Z" fill="#6C676C"/>
<path d="M25 91.6667C28.0683 91.6667 30.5556 89.1793 30.5556 86.1111C30.5556 83.0428 28.0683 80.5555 25 80.5555C21.9318 80.5555 19.4445 83.0428 19.4445 86.1111C19.4445 89.1793 21.9318 91.6667 25 91.6667Z" fill="#FAF0F0"/>
<path d="M75 97.2222C81.1365 97.2222 86.1111 92.2476 86.1111 86.1111C86.1111 79.9746 81.1365 75 75 75C68.8635 75 63.8889 79.9746 63.8889 86.1111C63.8889 92.2476 68.8635 97.2222 75 97.2222Z" fill="#6C676C"/>
<path d="M75 91.6667C78.0683 91.6667 80.5556 89.1793 80.5556 86.1111C80.5556 83.0428 78.0683 80.5555 75 80.5555C71.9318 80.5555 69.4445 83.0428 69.4445 86.1111C69.4445 89.1793 71.9318 91.6667 75 91.6667Z" fill="#FAF0F0"/>
<path d="M88.8889 22.2222H47.2222C44.2753 22.2222 41.4492 23.3929 39.3655 25.4766C37.2817 27.5603 36.1111 30.3865 36.1111 33.3333V69.4445H100V33.3333C100 30.3865 98.8293 27.5603 96.7456 25.4766C94.6619 23.3929 91.8357 22.2222 88.8889 22.2222Z" fill="#FAF0F0"/>
</svg>
