<svg height="512" viewBox="0 0 512 512" width="512" xmlns="http://www.w3.org/2000/svg"><g id="Creditcard-2" data-name="Creditcard"><path d="m496 136v192a32 32 0 0 1 -32 32h-16v-160h-384v-64a32 32 0 0 1 32-32h368a32 32 0 0 1 32 32z" fill="#57a4ff"/><path d="m64 152v48h-48v-16a32 32 0 0 1 32-32z" fill="#57a4ff"/><path d="m16 248v128a32 32 0 0 0 32 32h368a32 32 0 0 0 32-32v-128zm32 32h160v32h-160z" fill="#57a4ff"/><g fill="#004fac"><path d="m48 384h72a8 8 0 0 0 0-16h-72a8 8 0 0 0 0 16z"/><path d="m152 368h-8a8 8 0 0 0 0 16h8a8 8 0 0 0 0-16z"/><path d="m48 320h160a8 8 0 0 0 8-8v-32a8 8 0 0 0 -8-8h-160a8 8 0 0 0 -8 8v32a8 8 0 0 0 8 8zm8-32h144v16h-144z"/><path d="m464 96h-368a40.045 40.045 0 0 0 -40 40v8h-8a40.045 40.045 0 0 0 -40 40v192a40.045 40.045 0 0 0 40 40h368a40.045 40.045 0 0 0 40-40v-8h8a40.045 40.045 0 0 0 40-40v-192a40.045 40.045 0 0 0 -40-40zm-440 88a24.027 24.027 0 0 1 24-24h368a24.027 24.027 0 0 1 24 24v8h-416zm0 24h416v32h-416zm416 168a24.027 24.027 0 0 1 -24 24h-368a24.027 24.027 0 0 1 -24-24v-120h416zm48-48a24.027 24.027 0 0 1 -24 24h-8v-168a40.045 40.045 0 0 0 -40-40h-344v-8a24.027 24.027 0 0 1 24-24h368a24.027 24.027 0 0 1 24 24z"/></g></g></svg>