<svg height="512" viewBox="0 0 54 58" width="512" xmlns="http://www.w3.org/2000/svg"><g id="Page-1" fill="none" fill-rule="evenodd"><g id="032---Cup-Cake" fill-rule="nonzero"><path id="Shape" d="m49.12 25.99c-.0394323.0082848-.0797403.0116438-.12.01-1.66 0-2.57-4.77-1.9-5.32-.9273347-1.8663869-2.1122447-3.5932585-3.52-5.13-1.2894447-1.3847591-2.7712683-2.5769536-4.4-3.54-2.2381365-1.3010099-4.695146-2.18214437-7.25-2.6-1.07 1.56-8.79 1.56-9.86 0-2.554854.41785563-5.0118635 1.2989901-7.25 2.6.12.31-3.94 3.82-4.4 3.54-1.40775534 1.5367415-2.59266531 3.2636131-3.52 5.13-.85441144 1.6957081-1.53133865 3.4751553-2.02 5.31-.27316998 1.0037994-.49017327 2.0220455-.65 3.05.72-.12 1.49 3.54 2.04 3.96h41.46c.55-.42 1.32-4.08 2.04-3.96-.1598267-1.0279545-.37683-2.0462006-.65-3.05z" fill="#603e26"/><g fill="#c03a2b"><path id="Shape" d="m33 6c.0044594 1.21995375-.3693628 2.41129358-1.07 3.41-1.1173519 1.6216149-2.9607082 2.59005-4.93 2.59005s-3.8126481-.9684351-4.93-2.59005c-.7006372-.99870642-1.0744594-2.19004625-1.07-3.41 0-3.3137085 2.6862915-6 6-6s6 2.6862915 6 6z"/><path id="Shape" d="m15 13c0 1.6568542-1.3431458 3-3 3-.5580355-.0017925-1.1047595-.157505-1.58-.45-1.1280711-.6895952-1.67169414-2.0363956-1.33841177-3.315852.33328237-1.2794565 1.46488447-2.1898818 2.78602897-2.24148697 1.3211445-.05160519 2.5203145.76777787 2.9523828 2.01733897.1210941.3159206.18214.6516732.18.99z"/><circle id="Oval" cx="18" cy="23" r="3"/><path id="Shape" d="m6.9 20.68c-.85441144 1.6957081-1.53133865 3.4751553-2.02 5.31-1.30861118-.04724-2.43539403-.937784-2.78369924-2.2000749-.3483052-1.2622909.16234917-2.6046546 1.26156355-3.3162883 1.09921439-.7116338 2.53299636-.6281023 3.54213569.2063632z"/><path id="Shape" d="m45 13c-.0000747 1.0384816-.5372159 2.0030663-1.42 2.55-1.2894447-1.3847591-2.7712683-2.5769536-4.4-3.54.480116-1.3809198 1.8876184-2.21289595 3.3289174-1.9677265 1.441299.2451694 2.4945558 1.4957283 2.4910826 2.9577265z"/><circle id="Oval" cx="36" cy="23" r="3"/><path id="Shape" d="m52 23c.0010894 1.6093104-1.2717786 2.930795-2.88 2.99-.0394323.0082848-.0797403.0116438-.12.01-1.6568542 0-3-1.3431458-3-3s1.3431458-3 3-3 3 1.3431458 3 3z"/></g><path id="Shape" d="m53.13 30.81c-2.13 2.18-7.46 8.86-8.07 21.73-.0726309 1.67815-1.1814901 3.1340263-2.78 3.65-2.59.84-7.32 1.81-15.28 1.81s-12.69-.97-15.28-1.81c-1.5985099-.5159737-2.70736909-1.97185-2.78-3.65-.61-12.87-5.94-19.55-8.07-21.73.33604048-.0140415.66153183-.1213844.94-.31l1.3-1c.32713937-.2478401.71310001-.4063597 1.12-.46.71421222-.128194 1.44991864.0377006 2.04.46l1.31 1c.943164.6698591 2.206836.6698591 3.15 0l1.31-1c.943164-.6698591 2.206836-.6698591 3.15 0l1.31 1c.943164.6698591 2.206836.6698591 3.15 0l1.31-1c.9467686-.6700691 2.2132314-.6700691 3.16 0l1.3 1c.9467686.6700691 2.2132314.6700691 3.16 0l1.3-1c.9467686-.6700691 2.2132314-.6700691 3.16 0l1.31 1c.943164.6698591 2.206836.6698591 3.15 0l1.31-1c.943164-.6698591 2.206836-.6698591 3.15 0l1.31 1c.943164.6698591 2.206836.6698591 3.15 0l1.31-1c.5900814-.4222994 1.3257878-.588194 2.04-.46.4069.0536403.7928606.2121599 1.12.46l1.3 1c.2784682.1886156.6039595.2959585.94.31z" fill="#f0c419"/><path id="Shape" d="m17 53c-.5522847 0-1-.4477153-1-1 0-9.2-4.68-14.263-4.727-14.313-.2454415-.2597321-.3336733-.6306759-.2314595-.9731005.1022139-.3424246.3793447-.6043075.727-.687.3476554-.0826925.713018.0263684.9584595.2861005.215.229 5.273 5.698 5.273 15.687 0 .5522847-.4477153 1-1 1z" fill="#e57e25"/><path id="Shape" d="m37 53c-.5522847 0-1-.4477153-1-1 0-9.989 5.058-15.458 5.273-15.687.3791435-.4017871 1.0122128-.4201434 1.4139999-.0409999.4017872.3791434.4201435 1.0122127.0410001 1.4139999-.072.078-4.728 5.186-4.728 14.314 0 .5522847-.4477153 1-1 1z" fill="#e57e25"/><path id="Shape" d="m27 53c-.5522847 0-1-.4477153-1-1v-15c0-.5522847.4477153-1 1-1s1 .4477153 1 1v15c0 .5522847-.4477153 1-1 1z" fill="#e57e25"/></g></g></svg>