<svg height="512pt" viewBox="0 0 512 512" width="512pt" xmlns="http://www.w3.org/2000/svg"><path d="m437.019531 74.980469c-48.351562-48.351563-112.640625-74.980469-181.019531-74.980469s-132.667969 26.628906-181.019531 74.980469c-48.351563 48.351562-74.980469 112.640625-74.980469 181.019531s26.628906 132.667969 74.980469 181.019531c48.351562 48.351563 112.636719 74.980469 181.019531 74.980469s132.667969-26.628906 181.019531-74.980469c48.351563-48.351562 74.980469-112.640625 74.980469-181.019531s-26.628906-132.667969-74.980469-181.019531zm0 0" fill="#3aa5fb"/><path d="m437.019531 74.980469c-48.351562-48.351563-112.640625-74.980469-181.019531-74.980469-6.53125 0-13.027344.246094-19.472656.730469 61.042968 4.558593 117.8125 30.519531 161.546875 74.25 48.351562 48.351562 74.980469 112.640625 74.980469 181.019531s-26.628907 132.667969-74.980469 181.019531c-43.734375 43.730469-100.503907 69.691407-161.546875 74.25 6.445312.484375 12.941406.730469 19.472656.730469 68.378906 0 132.667969-26.628906 181.019531-74.980469 48.351563-48.351562 74.980469-112.640625 74.980469-181.019531s-26.628906-132.667969-74.980469-181.019531zm0 0" fill="#0088fa"/><path d="m411.183594 100.816406c-41.453125-41.449218-96.5625-64.277344-155.183594-64.277344s-113.730469 22.828126-155.183594 64.277344c-41.449218 41.453125-64.277344 96.5625-64.277344 155.183594s22.828126 113.730469 64.277344 155.183594c41.453125 41.449218 96.5625 64.277344 155.183594 64.277344 58.617188 0 113.730469-22.828126 155.179688-64.277344 41.453124-41.453125 64.28125-96.5625 64.28125-155.183594s-22.828126-113.730469-64.277344-155.183594zm0 0" fill="#e0e0e2"/><path d="m411.183594 100.816406c-41.453125-41.449218-96.5625-64.277344-155.183594-64.277344-6.539062 0-13.035156.300782-19.472656.863282 51.273437 4.476562 98.882812 26.589844 135.710937 63.414062 41.449219 41.453125 64.277344 96.5625 64.277344 155.183594s-22.828125 113.730469-64.277344 155.183594c-36.828125 36.824218-84.441406 58.9375-135.710937 63.414062 6.4375.5625 12.933594.863282 19.472656.863282 58.621094 0 113.730469-22.828126 155.183594-64.277344 41.449218-41.453125 64.277344-96.5625 64.277344-155.183594s-22.828126-113.730469-64.277344-155.183594zm0 0" fill="#c7c6cc"/><g fill="#0088fa"><path d="m256 418.625c-4.160156 0-7.53125 3.371094-7.53125 7.53125v49.164062c2.503906.082032 5.011719.140626 7.53125.140626s5.027344-.054688 7.53125-.140626v-49.164062c0-4.160156-3.371094-7.53125-7.53125-7.53125zm0 0"/><path d="m256 36.539062c-2.519531 0-5.027344.054688-7.53125.140626v49.164062c0 4.160156 3.371094 7.53125 7.53125 7.53125s7.53125-3.371094 7.53125-7.53125v-49.164062c-2.503906-.085938-5.011719-.140626-7.53125-.140626zm0 0"/><path d="m36.679688 263.53125h49.164062c4.160156 0 7.53125-3.371094 7.53125-7.53125s-3.371094-7.53125-7.53125-7.53125h-49.164062c-.082032 2.503906-.140626 5.011719-.140626 7.53125s.054688 5.027344.140626 7.53125zm0 0"/><path d="m418.625 256c0 4.160156 3.371094 7.53125 7.53125 7.53125h49.164062c.082032-2.503906.140626-5.011719.140626-7.53125s-.054688-5.027344-.140626-7.53125h-49.164062c-4.160156 0-7.53125 3.371094-7.53125 7.53125zm0 0"/></g><path d="m255.699219 221.835938c-.027344 0-.058594 0-.085938 0-.691406.007812-1.378906.03125-2.058593.078124-.003907.003907-.011719.003907-.015626.003907-.003906 0-.007812 0-.007812 0-.132812.007812-.261719.03125-.390625.046875-.054687.003906-.113281 0-.167969.007812-.589844.050782-1.179687.109375-1.757812.191406-.203125.027344-.402344.066407-.597656.109376-.074219.011718-.148438.015624-.222657.027343l-.148437.023438c-.089844.015625-.179688.035156-.269532.050781v-16.242188c0-1.324218-.351562-2.628906-1.015624-3.777343l-46.148438-79.570313c-2.824219-4.871094-7.378906-8.351562-12.820312-9.800781-5.441407-1.445313-11.121094-.6875-15.996094 2.136719-4.871094 2.828125-8.347656 7.378906-9.796875 12.824218-1.445313 5.441407-.6875 11.121094 2.136719 15.992188l59.765624 103.058594c1.347657 2.324218 3.832032 3.753906 6.515626 3.753906h.089843c2.71875-.035156 5.207031-1.53125 6.511719-3.914062 1.699219-3.097657 4.234375-5.671876 7.332031-7.4375.160157-.09375.3125-.191407.460938-.292969.121093-.054688.242187-.097657.363281-.160157l.28125-.132812c.132812-.066406.246094-.144531.375-.21875.132812-.046875.269531-.089844.402344-.148438l.429687-.171874c.148438-.058594.28125-.140626.425781-.210938.101563-.027344.203126-.042969.304688-.074219l.527344-.167969c.128906-.042968.246094-.105468.371094-.152343.109374-.027344.21875-.039063.328124-.070313.109376-.03125.222657-.054687.335938-.082031l.300781-.074219c.101563-.023437.195313-.070312.296875-.101562.097656-.015625.195313-.023438.292969-.046875.210937-.042969.429687-.074219.644531-.109375l.160156-.027344c.121094-.019531.234376-.050781.355469-.074219.035157-.003906.070313-.003906.105469-.007812.328125-.046875.65625-.074219.988281-.105469.078125-.003906.152344-.019531.230469-.03125h.082031.007813c.382812-.027344.773437-.039062 1.160156-.042969 4.128906-.042969 7.445312-3.40625 7.449219-7.527343 0-.027344 0-.054688 0-.085938-.050781-4.125-3.410157-7.445312-7.53125-7.445312zm0 0" fill="#fb8f2d"/><path d="m241.585938 238.246094-59.765626-103.058594c-2.824218-4.871094-3.582031-10.550781-2.136718-15.996094.664062-2.496094 1.773437-4.792968 3.230468-6.832031-3.105468.242187-6.144531 1.15625-8.917968 2.765625-4.871094 2.824219-8.347656 7.378906-9.796875 12.820312-1.445313 5.441407-.6875 11.121094 2.136719 15.992188l59.765624 103.0625c1.347657 2.324219 3.832032 3.75 6.515626 3.75h.089843c2.71875-.035156 5.207031-1.527344 6.511719-3.914062 1.257812-2.292969 2.976562-4.296876 5.039062-5.898438-1.085937-.644531-2.015624-1.558594-2.671874-2.691406zm0 0" fill="#e8812d"/><path d="m256 136.4375c-11.625 0-21.082031 9.457031-21.082031 21.085938v75.539062c0 2.703125 1.449219 5.203125 3.800781 6.542969 2.347656 1.335937 5.238281 1.316406 7.5625-.066407 2.9375-1.734374 6.296875-2.652343 9.71875-2.652343s6.78125.917969 9.71875 2.652343c1.179688.703126 2.507812 1.050782 3.835938 1.050782 1.285156 0 2.574218-.328125 3.726562-.984375 2.351562-1.339844 3.800781-3.839844 3.800781-6.542969v-75.539062c0-11.625-9.457031-21.085938-21.082031-21.085938zm0 0" fill="#ff9f34"/><path d="m256 136.4375c-2.992188 0-5.835938.636719-8.414062 1.765625 7.445312 3.257813 12.667968 10.683594 12.667968 19.320313v75.539062c0 1.472656-.445312 2.878906-1.21875 4.074219 2.355469.378906 4.625 1.1875 6.679688 2.402343 1.183594.703126 2.511718 1.050782 3.839844 1.050782 1.285156 0 2.570312-.328125 3.726562-.984375 2.351562-1.339844 3.800781-3.839844 3.800781-6.542969v-75.539062c0-11.625-9.457031-21.085938-21.082031-21.085938zm0 0" fill="#fb8f2d"/><path d="m239.171875 236.886719c-1.023437 0-2.039063.089843-3.039063.253906.644532.996094 1.515626 1.855469 2.585938 2.464844 2.347656 1.339843 5.238281 1.316406 7.566406-.0625.421875-.253907.859375-.480469 1.300782-.699219-2.609376-1.28125-5.488282-1.957031-8.414063-1.957031zm0 0" fill="#fb8f2d"/><path d="m290.5625 256c0 19.089844-15.472656 34.5625-34.5625 34.5625s-34.5625-15.472656-34.5625-34.5625 15.472656-34.5625 34.5625-34.5625 34.5625 15.472656 34.5625 34.5625zm0 0" fill="#56555b"/><path d="m256 221.4375c-4.976562 0-9.699219 1.058594-13.976562 2.953125 12.125 5.367187 20.585937 17.496094 20.585937 31.609375s-8.460937 26.242188-20.585937 31.613281c4.277343 1.890625 9 2.949219 13.976562 2.949219 19.089844 0 34.5625-15.472656 34.5625-34.5625 0-19.085938-15.472656-34.5625-34.5625-34.5625zm0 0" fill="#454549"/></svg>